<meta message track_name name='untitled' time=0>
<meta message copyright text='Copyright © 1998 by Alfredo Solines Acevedo' time=0>
<meta message text text='Alfredo Solines Acevedo' time=0>
<meta message time_signature numerator=3 denominator=4 clocks_per_click=24 notated_32nd_notes_per_beat=8 time=0>
<meta message key_signature key='C' time=0>
<meta message set_tempo tempo=600000 time=0>
<meta message midi_port port=2 time=0>
<meta message track_name name='BAJO' time=0>
control_change channel=0 control=0 value=0 time=0
control_change channel=0 control=32 value=0 time=0
program_change channel=0 program=39 time=0
control_change channel=0 control=7 value=70 time=0
<meta message midi_port port=2 time=0>
<meta message track_name name='PIANO' time=0>
control_change channel=1 control=0 value=0 time=0
control_change channel=1 control=32 value=0 time=0
program_change channel=1 program=1 time=0
control_change channel=1 control=7 value=70 time=0
<meta message midi_port port=2 time=0>
<meta message track_name name='GUITARRAS' time=0>
control_change channel=2 control=0 value=0 time=0
control_change channel=2 control=32 value=0 time=0
program_change channel=2 program=25 time=0
control_change channel=2 control=7 value=127 time=0
<meta message midi_port port=2 time=0>
<meta message track_name name='JAZZ GTR' time=0>
control_change channel=3 control=0 value=0 time=0
control_change channel=3 control=32 value=0 time=0
program_change channel=3 program=26 time=0
control_change channel=3 control=7 value=127 time=0
<meta message midi_port port=2 time=0>
<meta message track_name name='PLATILLO' time=0>
control_change channel=9 control=7 value=120 time=0
<meta message midi_port port=2 time=0>
<meta message track_name name='TAMBOR' time=0>
control_change channel=9 control=7 value=120 time=0
note_on channel=2 note=62 velocity=64 time=1.5
note_on channel=2 note=58 velocity=64 time=0
note_on channel=2 note=58 velocity=0 time=0.155
note_on channel=2 note=62 velocity=0 time=0.08
note_on channel=0 note=43 velocity=64 time=0.065
note_on channel=1 note=74 velocity=64 time=0
note_on channel=1 note=70 velocity=64 time=0
note_on channel=1 note=62 velocity=64 time=0
note_on channel=2 note=70 velocity=64 time=0
note_on channel=2 note=67 velocity=64 time=0
note_on channel=9 note=46 velocity=64 time=0
note_on channel=9 note=46 velocity=0 time=0.07
note_on channel=2 note=67 velocity=0 time=0.13
note_on channel=0 note=43 velocity=0 time=0.005
note_on channel=2 note=70 velocity=0 time=0.035
note_on channel=1 note=70 velocity=0 time=0.055
note_on channel=0 note=43 velocity=64 time=0.005
note_on channel=1 note=67 velocity=64 time=0
note_on channel=2 note=70 velocity=64 time=0
note_on channel=2 note=67 velocity=64 time=0
note_on channel=9 note=46 velocity=64 time=0
note_on channel=9 note=46 velocity=0 time=0.06
note_on channel=2 note=67 velocity=0 time=0.14
note_on channel=2 note=70 velocity=0 time=0.025
note_on channel=1 note=70 velocity=64 time=0.075
note_on channel=2 note=70 velocity=64 time=0
note_on channel=2 note=67 velocity=64 time=0
note_on channel=9 note=38 velocity=64 time=0
note_on channel=9 note=38 velocity=0 time=0.08
note_on channel=1 note=74 velocity=0 time=0.05
note_on channel=1 note=62 velocity=0 time=0.02
note_on channel=1 note=67 velocity=0 time=0.025
note_on channel=1 note=70 velocity=0 time=0.015
note_on channel=2 note=67 velocity=0 time=0.025
note_on channel=0 note=43 velocity=0 time=0.005
note_on channel=2 note=70 velocity=0 time=0.035
note_on channel=0 note=38 velocity=64 time=0.045
note_on channel=1 note=76 velocity=64 time=0
note_on channel=1 note=70 velocity=64 time=0
note_on channel=1 note=64 velocity=64 time=0
note_on channel=1 note=67 velocity=64 time=0
note_on channel=2 note=69 velocity=64 time=0
note_on channel=2 note=66 velocity=64 time=0
note_on channel=9 note=46 velocity=64 time=0
note_on channel=9 note=46 velocity=0 time=0.045
note_on channel=1 note=67 velocity=0 time=0.145
note_on channel=1 note=76 velocity=0 time=0.005
note_on channel=1 note=70 velocity=0 time=0
note_on channel=1 note=64 velocity=0 time=0
note_on channel=2 note=66 velocity=0 time=0
note_on channel=0 note=38 velocity=0 time=0.02
note_on channel=2 note=69 velocity=0 time=0.035
note_on channel=0 note=38 velocity=64 time=0.05
note_on channel=1 note=64 velocity=64 time=0
note_on channel=1 note=76 velocity=64 time=0
note_on channel=1 note=67 velocity=64 time=0
note_on channel=1 note=70 velocity=64 time=0
note_on channel=2 note=72 velocity=64 time=0
note_on channel=2 note=69 velocity=64 time=0
note_on channel=9 note=46 velocity=64 time=0
note_on channel=9 note=46 velocity=0 time=0.055
note_on channel=2 note=69 velocity=0 time=0.145
note_on channel=2 note=70 velocity=64 time=0.1
note_on channel=2 note=67 velocity=64 time=0
note_on channel=9 note=38 velocity=64 time=0
note_on channel=2 note=72 velocity=0 time=0.045
note_on channel=1 note=70 velocity=0 time=0.02
note_on channel=9 note=38 velocity=0 time=0.01
note_on channel=1 note=76 velocity=0 time=0.02
note_on channel=1 note=67 velocity=0 time=0.02
note_on channel=0 note=38 velocity=0 time=0.015
note_on channel=1 note=64 velocity=0 time=0.025
note_on channel=2 note=70 velocity=0 time=0.015
note_on channel=2 note=67 velocity=0 time=0.12
note_on channel=0 note=43 velocity=64 time=0.01
note_on channel=9 note=46 velocity=64 time=0
note_on channel=9 note=46 velocity=0 time=0.055
note_on channel=0 note=43 velocity=0 time=0.165
note_on channel=0 note=43 velocity=64 time=0.08
note_on channel=1 note=67 velocity=64 time=0
note_on channel=1 note=70 velocity=64 time=0
note_on channel=1 note=74 velocity=64 time=0
note_on channel=1 note=62 velocity=64 time=0
note_on channel=2 note=70 velocity=64 time=0
note_on channel=2 note=67 velocity=64 time=0
note_on channel=9 note=46 velocity=64 time=0
note_on channel=9 note=46 velocity=0 time=0.06
note_on channel=1 note=74 velocity=0 time=0.135
note_on channel=2 note=70 velocity=0 time=0.015
note_on channel=2 note=67 velocity=0 time=0.005
note_on channel=1 note=67 velocity=0 time=0.01
note_on channel=1 note=70 velocity=0 time=0.02
note_on channel=1 note=67 velocity=64 time=0.055
note_on channel=1 note=76 velocity=64 time=0
note_on channel=1 note=64 velocity=64 time=0
note_on channel=2 note=70 velocity=64 time=0
note_on channel=2 note=76 velocity=64 time=0
note_on channel=9 note=38 velocity=64 time=0
note_on channel=1 note=62 velocity=0 time=0.045
note_on channel=9 note=38 velocity=0 time=0.04
note_on channel=0 note=43 velocity=0 time=0.105
note_on channel=0 note=38 velocity=64 time=0.11
note_on channel=1 note=74 velocity=64 time=0
note_on channel=9 note=46 velocity=64 time=0
note_on channel=9 note=46 velocity=0 time=0.045
note_on channel=1 note=76 velocity=0 time=0.02
note_on channel=1 note=64 velocity=0 time=0.03
note_on channel=0 note=38 velocity=0 time=0.115
note_on channel=1 note=67 velocity=0 time=0.075
note_on channel=0 note=38 velocity=64 time=0.015
note_on channel=1 note=70 velocity=64 time=0
note_on channel=9 note=46 velocity=64 time=0
note_on channel=9 note=46 velocity=0 time=0.055
note_on channel=2 note=70 velocity=0 time=0.125
note_on channel=2 note=76 velocity=0 time=0.08
note_on channel=1 note=74 velocity=0 time=0.02
note_on channel=1 note=67 velocity=64 time=0.02
note_on channel=1 note=74 velocity=64 time=0
note_on channel=2 note=70 velocity=64 time=0
note_on channel=2 note=74 velocity=64 time=0
note_on channel=9 note=38 velocity=64 time=0
note_on channel=1 note=74 velocity=0 time=0.05
note_on channel=0 note=38 velocity=0 time=0.015
note_on channel=1 note=70 velocity=0 time=0.03
note_on channel=9 note=38 velocity=0 time=0
note_on channel=1 note=67 velocity=0 time=0.09
note_on channel=2 note=70 velocity=0 time=0.065
note_on channel=2 note=74 velocity=0 time=0.045
note_on channel=0 note=38 velocity=64 time=0.005
note_on channel=1 note=62 velocity=64 time=0
note_on channel=1 note=74 velocity=64 time=0
note_on channel=1 note=69 velocity=64 time=0
note_on channel=2 note=65 velocity=64 time=0
note_on channel=2 note=69 velocity=64 time=0
note_on channel=9 note=46 velocity=64 time=0
note_on channel=9 note=46 velocity=0 time=0.05
note_on channel=2 note=69 velocity=0 time=0.155
note_on channel=2 note=65 velocity=0 time=0.01
note_on channel=0 note=38 velocity=0 time=0.01
note_on channel=0 note=38 velocity=64 time=0.075
note_on channel=1 note=65 velocity=64 time=0
note_on channel=2 note=65 velocity=64 time=0
note_on channel=2 note=69 velocity=64 time=0
note_on channel=9 note=46 velocity=64 time=0
note_on channel=1 note=69 velocity=0 time=0.05
note_on channel=9 note=46 velocity=0 time=0
note_on channel=2 note=69 velocity=0 time=0.165
note_on channel=2 note=65 velocity=0 time=0.005
note_on channel=1 note=69 velocity=64 time=0.08
note_on channel=2 note=65 velocity=64 time=0
note_on channel=2 note=69 velocity=64 time=0
note_on channel=9 note=38 velocity=64 time=0
note_on channel=9 note=38 velocity=0 time=0.09
note_on channel=1 note=65 velocity=0 time=0.025
note_on channel=1 note=74 velocity=0 time=0
note_on channel=1 note=62 velocity=0 time=0.065
note_on channel=2 note=69 velocity=0 time=0
note_on channel=1 note=69 velocity=0 time=0.005
note_on channel=0 note=38 velocity=0 time=0.01
note_on channel=2 note=65 velocity=0 time=0.045
note_on channel=0 note=33 velocity=64 time=0.06
note_on channel=1 note=69 velocity=64 time=0
note_on channel=1 note=76 velocity=64 time=0
note_on channel=1 note=65 velocity=64 time=0
note_on channel=1 note=64 velocity=64 time=0
note_on channel=2 note=64 velocity=64 time=0
note_on channel=2 note=67 velocity=64 time=0
note_on channel=9 note=46 velocity=64 time=0
note_on channel=9 note=46 velocity=0 time=0.055
note_on channel=1 note=76 velocity=0 time=0.135
note_on channel=0 note=33 velocity=0 time=0.01
note_on channel=1 note=64 velocity=0 time=0
note_on channel=1 note=65 velocity=0 time=0.005
note_on channel=2 note=67 velocity=0 time=0.02
note_on channel=1 note=69 velocity=0 time=0.005
note_on channel=2 note=64 velocity=0 time=0.02
note_on channel=0 note=33 velocity=64 time=0.05
note_on channel=1 note=64 velocity=64 time=0
note_on channel=1 note=76 velocity=64 time=0
note_on channel=1 note=69 velocity=64 time=0
note_on channel=1 note=65 velocity=64 time=0
note_on channel=2 note=67 velocity=64 time=0
note_on channel=2 note=70 velocity=64 time=0
note_on channel=9 note=46 velocity=64 time=0
note_on channel=9 note=46 velocity=0 time=0.045
note_on channel=2 note=67 velocity=0 time=0.20500000000000002
note_on channel=2 note=70 velocity=0 time=0.04
note_on channel=2 note=65 velocity=64 time=0.01
note_on channel=2 note=69 velocity=64 time=0
note_on channel=9 note=38 velocity=64 time=0
note_on channel=9 note=38 velocity=0 time=0.095
note_on channel=0 note=33 velocity=0 time=0.065
note_on channel=2 note=69 velocity=0 time=0.055
note_on channel=2 note=65 velocity=0 time=0.05
note_on channel=1 note=76 velocity=0 time=0.03
note_on channel=0 note=38 velocity=64 time=0.005
note_on channel=9 note=46 velocity=64 time=0
note_on channel=1 note=69 velocity=0 time=0.015
note_on channel=1 note=65 velocity=0 time=0.02
note_on channel=9 note=46 velocity=0 time=0.02
note_on channel=1 note=64 velocity=0 time=0.02
note_on channel=0 note=38 velocity=0 time=0.11
note_on channel=0 note=38 velocity=64 time=0.115
note_on channel=1 note=74 velocity=64 time=0
note_on channel=1 note=62 velocity=64 time=0
note_on channel=1 note=69 velocity=64 time=0
note_on channel=2 note=69 velocity=64 time=0
note_on channel=2 note=65 velocity=64 time=0
note_on channel=9 note=46 velocity=64 time=0
note_on channel=9 note=46 velocity=0 time=0.055
note_on channel=2 note=65 velocity=0 time=0.125
note_on channel=1 note=65 velocity=64 time=0.12
note_on channel=2 note=74 velocity=64 time=0
note_on channel=2 note=69 velocity=64 time=0
note_on channel=9 note=38 velocity=64 time=0
note_on channel=1 note=69 velocity=0 time=0.03
note_on channel=2 note=69 velocity=0 time=0
note_on channel=9 note=38 velocity=0 time=0.08
note_on channel=0 note=38 velocity=0 time=0.06
note_on channel=0 note=33 velocity=64 time=0.13
note_on channel=1 note=69 velocity=64 time=0
note_on channel=9 note=46 velocity=64 time=0
note_on channel=1 note=74 velocity=0 time=0.045
note_on channel=9 note=46 velocity=0 time=0
note_on channel=1 note=62 velocity=0 time=0.105
note_on channel=0 note=33 velocity=0 time=0.055
note_on channel=0 note=33 velocity=64 time=0.095
note_on channel=1 note=74 velocity=64 time=0
note_on channel=1 note=62 velocity=64 time=0
note_on channel=9 note=46 velocity=64 time=0
note_on channel=9 note=46 velocity=0 time=0.045
note_on channel=1 note=65 velocity=0 time=0.055
note_on channel=1 note=69 velocity=0 time=0.06
note_on channel=1 note=74 velocity=0 time=0.01
note_on channel=1 note=62 velocity=0 time=0.045
note_on channel=2 note=69 velocity=0 time=0.06
note_on channel=1 note=75 velocity=64 time=0.025
note_on channel=1 note=63 velocity=64 time=0
note_on channel=2 note=73 velocity=64 time=0
note_on channel=2 note=69 velocity=64 time=0
note_on channel=9 note=38 velocity=64 time=0
note_on channel=0 note=33 velocity=0 time=0.06
note_on channel=2 note=74 velocity=0 time=0
note_on channel=9 note=38 velocity=0 time=0.075
note_on channel=1 note=75 velocity=0 time=0.02
note_on channel=1 note=63 velocity=0 time=0.025
note_on channel=2 note=69 velocity=0 time=0.06
note_on channel=0 note=33 velocity=64 time=0.06
note_on channel=1 note=73 velocity=64 time=0
note_on channel=1 note=64 velocity=64 time=0
note_on channel=1 note=76 velocity=64 time=0
note_on channel=2 note=69 velocity=64 time=0
note_on channel=2 note=65 velocity=64 time=0
note_on channel=9 note=46 velocity=64 time=0
note_on channel=2 note=73 velocity=0 time=0.045
note_on channel=9 note=46 velocity=0 time=0.01
note_on channel=0 note=33 velocity=0 time=0.14
note_on channel=2 note=65 velocity=0 time=0.05
note_on channel=0 note=33 velocity=64 time=0.055
note_on channel=1 note=69 velocity=64 time=0
note_on channel=2 note=67 velocity=64 time=0
note_on channel=2 note=64 velocity=64 time=0
note_on channel=9 note=46 velocity=64 time=0
note_on channel=2 note=69 velocity=0 time=0.035
note_on channel=9 note=46 velocity=0 time=0.015
note_on channel=1 note=73 velocity=0 time=0.005
note_on channel=2 note=64 velocity=0 time=0.12
note_on channel=2 note=67 velocity=0 time=0.05
note_on channel=1 note=73 velocity=64 time=0.075
note_on channel=2 note=67 velocity=64 time=0
note_on channel=2 note=64 velocity=64 time=0
note_on channel=9 note=38 velocity=64 time=0
note_on channel=9 note=38 velocity=0 time=0.095
note_on channel=1 note=76 velocity=0 time=0.01
note_on channel=1 note=69 velocity=0 time=0.01
note_on channel=1 note=73 velocity=0 time=0.045
note_on channel=0 note=33 velocity=0 time=0.01
note_on channel=1 note=64 velocity=0 time=0.015
note_on channel=2 note=64 velocity=0 time=0.015
note_on channel=0 note=40 velocity=64 time=0.1
note_on channel=1 note=77 velocity=64 time=0
note_on channel=1 note=69 velocity=64 time=0
note_on channel=1 note=65 velocity=64 time=0
note_on channel=1 note=73 velocity=64 time=0
note_on channel=2 note=66 velocity=64 time=0
note_on channel=2 note=62 velocity=64 time=0
note_on channel=9 note=46 velocity=64 time=0
note_on channel=2 note=67 velocity=0 time=0.01
note_on channel=9 note=46 velocity=0 time=0.035
note_on channel=1 note=73 velocity=0 time=0.11
note_on channel=1 note=77 velocity=0 time=0.025
note_on channel=1 note=69 velocity=0 time=0
note_on channel=1 note=65 velocity=0 time=0
note_on channel=0 note=40 velocity=0 time=0.005
note_on channel=2 note=62 velocity=0 time=0.035
note_on channel=2 note=66 velocity=0 time=0.02
note_on channel=0 note=40 velocity=64 time=0.06
note_on channel=1 note=77 velocity=64 time=0
note_on channel=1 note=65 velocity=64 time=0
note_on channel=1 note=69 velocity=64 time=0
note_on channel=2 note=69 velocity=64 time=0
note_on channel=2 note=65 velocity=64 time=0
note_on channel=9 note=46 velocity=64 time=0
note_on channel=9 note=46 velocity=0 time=0.045
note_on channel=2 note=65 velocity=0 time=0.165
note_on channel=2 note=69 velocity=0 time=0.075
note_on channel=2 note=67 velocity=64 time=0.015
note_on channel=2 note=64 velocity=64 time=0
note_on channel=9 note=38 velocity=64 time=0
note_on channel=9 note=38 velocity=0 time=0.105
note_on channel=0 note=40 velocity=0 time=0.055
note_on channel=2 note=67 velocity=0 time=0.12
note_on channel=2 note=64 velocity=0 time=0.005
note_on channel=0 note=33 velocity=64 time=0.015
note_on channel=9 note=46 velocity=64 time=0
note_on channel=1 note=77 velocity=0 time=0.04
note_on channel=9 note=46 velocity=0 time=0
note_on channel=1 note=69 velocity=0 time=0.015
note_on channel=1 note=65 velocity=0 time=0.025
note_on channel=0 note=33 velocity=0 time=0.11
note_on channel=0 note=33 velocity=64 time=0.11
note_on channel=1 note=64 velocity=64 time=0
note_on channel=1 note=69 velocity=64 time=0
note_on channel=1 note=76 velocity=64 time=0
note_on channel=1 note=73 velocity=64 time=0
note_on channel=2 note=73 velocity=64 time=0
note_on channel=2 note=76 velocity=64 time=0
note_on channel=9 note=46 velocity=64 time=0
note_on channel=9 note=46 velocity=0 time=0.045
note_on channel=1 note=76 velocity=0 time=0.15
note_on channel=1 note=69 velocity=0 time=0.005
note_on channel=1 note=73 velocity=0 time=0.015
note_on channel=1 note=77 velocity=64 time=0.085
note_on channel=1 note=69 velocity=64 time=0
note_on channel=1 note=65 velocity=64 time=0
note_on channel=9 note=38 velocity=64 time=0
note_on channel=1 note=64 velocity=0 time=0.02
note_on channel=2 note=73 velocity=0 time=0.05
note_on channel=9 note=38 velocity=0 time=0.055
note_on channel=0 note=33 velocity=0 time=0.025
note_on channel=2 note=76 velocity=0 time=0.05
note_on channel=0 note=40 velocity=64 time=0.1
note_on channel=1 note=76 velocity=64 time=0
note_on channel=1 note=64 velocity=64 time=0
note_on channel=2 note=67 velocity=64 time=0
note_on channel=2 note=73 velocity=64 time=0
note_on channel=9 note=46 velocity=64 time=0
note_on channel=9 note=46 velocity=0 time=0.055
note_on channel=1 note=65 velocity=0 time=0.005
note_on channel=1 note=77 velocity=0 time=0.02
note_on channel=0 note=40 velocity=0 time=0.125
note_on channel=0 note=40 velocity=64 time=0.095
note_on channel=1 note=73 velocity=64 time=0
note_on channel=9 note=46 velocity=64 time=0
note_on channel=1 note=69 velocity=0 time=0.005
note_on channel=9 note=46 velocity=0 time=0.045
note_on channel=2 note=67 velocity=0 time=0.09
note_on channel=2 note=73 velocity=0 time=0.025
note_on channel=1 note=76 velocity=0 time=0.025
note_on channel=1 note=64 velocity=0 time=0.1
note_on channel=1 note=69 velocity=64 time=0.01
note_on channel=2 note=64 velocity=64 time=0
note_on channel=2 note=67 velocity=64 time=0
note_on channel=9 note=38 velocity=64 time=0
note_on channel=0 note=40 velocity=0 time=0.11
note_on channel=1 note=73 velocity=0 time=0.01
note_on channel=9 note=38 velocity=0 time=0
note_on channel=1 note=69 velocity=0 time=0.06
note_on channel=2 note=64 velocity=0 time=0.005
note_on channel=2 note=67 velocity=0 time=0.055
note_on channel=0 note=38 velocity=64 time=0.06
note_on channel=1 note=62 velocity=64 time=0
note_on channel=1 note=74 velocity=64 time=0
note_on channel=1 note=69 velocity=64 time=0
note_on channel=2 note=62 velocity=64 time=0
note_on channel=2 note=65 velocity=64 time=0
note_on channel=9 note=46 velocity=64 time=0
note_on channel=9 note=46 velocity=0 time=0.05
note_on channel=0 note=38 velocity=0 time=0.145
note_on channel=0 note=38 velocity=64 time=0.105
note_on channel=1 note=65 velocity=64 time=0
note_on channel=9 note=46 velocity=64 time=0
note_on channel=1 note=69 velocity=0 time=0.02
note_on channel=9 note=46 velocity=0 time=0.035
note_on channel=1 note=69 velocity=64 time=0.245
note_on channel=9 note=38 velocity=64 time=0
note_on channel=1 note=74 velocity=0 time=0.125
note_on channel=9 note=38 velocity=0 time=0.005
note_on channel=1 note=65 velocity=0 time=0.015
note_on channel=0 note=38 velocity=0 time=0.03
note_on channel=1 note=69 velocity=0 time=0.02
note_on channel=0 note=33 velocity=64 time=0.105
note_on channel=1 note=69 velocity=64 time=0
note_on channel=1 note=76 velocity=64 time=0
note_on channel=1 note=65 velocity=64 time=0
note_on channel=9 note=46 velocity=64 time=0
note_on channel=9 note=46 velocity=0 time=0.055
note_on channel=1 note=76 velocity=0 time=0.14
note_on channel=1 note=65 velocity=0 time=0.01
note_on channel=0 note=33 velocity=0 time=0.005
note_on channel=1 note=69 velocity=0 time=0.03
note_on channel=0 note=33 velocity=64 time=0.06
note_on channel=1 note=76 velocity=64 time=0
note_on channel=1 note=65 velocity=64 time=0
note_on channel=1 note=69 velocity=64 time=0
note_on channel=9 note=46 velocity=64 time=0
note_on channel=9 note=46 velocity=0 time=0.06
note_on channel=2 note=65 velocity=0 time=0.035
note_on channel=2 note=62 velocity=0 time=0.005
note_on channel=9 note=38 velocity=64 time=0.2
note_on channel=1 note=76 velocity=0 time=0.095
note_on channel=1 note=69 velocity=0 time=0.025
note_on channel=1 note=65 velocity=0 time=0.005
note_on channel=9 note=38 velocity=0 time=0
note_on channel=0 note=33 velocity=0 time=0.015
note_on channel=1 note=62 velocity=0 time=0.01
note_on channel=1 note=59 velocity=64 time=0
note_on channel=1 note=60 velocity=64 time=0
note_on channel=1 note=59 velocity=0 time=0.045
note_on channel=1 note=60 velocity=0 time=0.06
note_on channel=0 note=38 velocity=64 time=0.045
note_on channel=1 note=74 velocity=64 time=0
note_on channel=1 note=62 velocity=64 time=0
note_on channel=1 note=69 velocity=64 time=0
note_on channel=9 note=46 velocity=64 time=0
note_on channel=9 note=46 velocity=0 time=0.055
note_on channel=1 note=66 velocity=64 time=0.245
note_on channel=1 note=69 velocity=0 time=0.16
note_on channel=0 note=38 velocity=0 time=0.055
note_on channel=1 note=74 velocity=0 time=0.06
note_on channel=0 note=40 velocity=64 time=0.025
note_on channel=1 note=69 velocity=64 time=0
note_on channel=9 note=46 velocity=64 time=0
note_on channel=9 note=46 velocity=0 time=0.045
note_on channel=1 note=66 velocity=0 time=0.12
note_on channel=1 note=69 velocity=0 time=0.085
note_on channel=1 note=76 velocity=64 time=0.05
note_on channel=1 note=66 velocity=64 time=0
note_on channel=1 note=69 velocity=64 time=0
note_on channel=0 note=40 velocity=0 time=0.17500000000000002
note_on channel=1 note=76 velocity=0 time=0.005
note_on channel=1 note=69 velocity=0 time=0.02
note_on channel=1 note=66 velocity=0 time=0.01
note_on channel=0 note=42 velocity=64 time=0.09
note_on channel=1 note=66 velocity=64 time=0
note_on channel=1 note=69 velocity=64 time=0
note_on channel=1 note=76 velocity=64 time=0
note_on channel=9 note=46 velocity=64 time=0
note_on channel=9 note=46 velocity=0 time=0.06
note_on channel=1 note=74 velocity=64 time=0.24
note_on channel=2 note=62 velocity=64 time=0
note_on channel=2 note=58 velocity=64 time=0
note_on channel=1 note=76 velocity=0 time=0.025
note_on channel=1 note=66 velocity=0 time=0.07
note_on channel=1 note=69 velocity=0 time=0.045
note_on channel=1 note=62 velocity=0 time=0.01
note_on channel=0 note=42 velocity=0 time=0.045
note_on channel=2 note=62 velocity=0 time=0.025
note_on channel=1 note=74 velocity=0 time=0.01
note_on channel=2 note=58 velocity=0 time=0.04
note_on channel=0 note=43 velocity=64 time=0.03
note_on channel=1 note=70 velocity=64 time=0
note_on channel=1 note=62 velocity=64 time=0
note_on channel=1 note=74 velocity=64 time=0
note_on channel=2 note=70 velocity=64 time=0
note_on channel=2 note=67 velocity=64 time=0
note_on channel=9 note=46 velocity=64 time=0
note_on channel=9 note=46 velocity=0 time=0.06
note_on channel=0 note=43 velocity=0 time=0.155
note_on channel=2 note=67 velocity=0 time=0
note_on channel=2 note=70 velocity=0 time=0.045
note_on channel=0 note=43 velocity=64 time=0.04
note_on channel=1 note=67 velocity=64 time=0
note_on channel=2 note=70 velocity=64 time=0
note_on channel=2 note=67 velocity=64 time=0
note_on channel=9 note=46 velocity=64 time=0
note_on channel=9 note=46 velocity=0 time=0.05
note_on channel=1 note=70 velocity=0 time=0.035
note_on channel=2 note=70 velocity=0 time=0.14
note_on channel=2 note=67 velocity=0 time=0.01
note_on channel=1 note=70 velocity=64 time=0.065
note_on channel=2 note=70 velocity=64 time=0
note_on channel=2 note=67 velocity=64 time=0
note_on channel=9 note=38 velocity=64 time=0
note_on channel=9 note=38 velocity=0 time=0.095
note_on channel=1 note=67 velocity=0 time=0.04
note_on channel=1 note=62 velocity=0 time=0.035
note_on channel=1 note=70 velocity=0 time=0.015
note_on channel=1 note=74 velocity=0 time=0.01
note_on channel=0 note=43 velocity=0 time=0.025
note_on channel=2 note=67 velocity=0 time=0.005
note_on channel=2 note=70 velocity=0 time=0.045
note_on channel=0 note=38 velocity=64 time=0.03
note_on channel=1 note=76 velocity=64 time=0
note_on channel=1 note=67 velocity=64 time=0
note_on channel=1 note=64 velocity=64 time=0
note_on channel=1 note=70 velocity=64 time=0
note_on channel=2 note=69 velocity=64 time=0
note_on channel=2 note=66 velocity=64 time=0
note_on channel=9 note=46 velocity=64 time=0
note_on channel=9 note=46 velocity=0 time=0.055
note_on channel=1 note=70 velocity=0 time=0.135
note_on channel=1 note=64 velocity=0 time=0.005
note_on channel=1 note=76 velocity=0 time=0
note_on channel=0 note=38 velocity=0 time=0.005
note_on channel=1 note=67 velocity=0 time=0.01
note_on channel=2 note=66 velocity=0 time=0.01
note_on channel=0 note=38 velocity=64 time=0.08
note_on channel=1 note=64 velocity=64 time=0
note_on channel=1 note=76 velocity=64 time=0
note_on channel=1 note=67 velocity=64 time=0
note_on channel=1 note=70 velocity=64 time=0
note_on channel=2 note=72 velocity=64 time=0
note_on channel=2 note=69 velocity=64 time=0
note_on channel=9 note=46 velocity=64 time=0
note_on channel=2 note=69 velocity=0 time=0.01
note_on channel=9 note=46 velocity=0 time=0.04
note_on channel=2 note=69 velocity=0 time=0.195
note_on channel=2 note=70 velocity=64 time=0.055
note_on channel=2 note=67 velocity=64 time=0
note_on channel=9 note=38 velocity=64 time=0
note_on channel=2 note=72 velocity=0 time=0.07
note_on channel=9 note=38 velocity=0 time=0.03
note_on channel=0 note=38 velocity=0 time=0.045
note_on channel=2 note=70 velocity=0 time=0.125
note_on channel=2 note=67 velocity=0 time=0.005
note_on channel=0 note=43 velocity=64 time=0.025
note_on channel=9 note=46 velocity=64 time=0
note_on channel=9 note=46 velocity=0 time=0.055
note_on channel=1 note=70 velocity=0 time=0.105
note_on channel=1 note=76 velocity=0 time=0.04
note_on channel=0 note=43 velocity=0 time=0.01
note_on channel=1 note=64 velocity=0 time=0.02
note_on channel=1 note=67 velocity=0 time=0.02
note_on channel=0 note=43 velocity=64 time=0.05
note_on channel=1 note=62 velocity=64 time=0
note_on channel=1 note=70 velocity=64 time=0
note_on channel=1 note=74 velocity=64 time=0
note_on channel=2 note=70 velocity=64 time=0
note_on channel=2 note=67 velocity=64 time=0
note_on channel=9 note=46 velocity=64 time=0
note_on channel=9 note=46 velocity=0 time=0.05
note_on channel=1 note=74 velocity=0 time=0.125
note_on channel=2 note=67 velocity=0 time=0.01
note_on channel=1 note=70 velocity=0 time=0.025
note_on channel=2 note=70 velocity=0 time=0.005
note_on channel=1 note=62 velocity=0 time=0.065
note_on channel=1 note=67 velocity=64 time=0.02
note_on channel=1 note=76 velocity=64 time=0
note_on channel=1 note=64 velocity=64 time=0
note_on channel=2 note=76 velocity=64 time=0
note_on channel=2 note=70 velocity=64 time=0
note_on channel=9 note=38 velocity=64 time=0
note_on channel=9 note=38 velocity=0 time=0.105
note_on channel=0 note=43 velocity=0 time=0.06
note_on channel=0 note=38 velocity=64 time=0.135
note_on channel=1 note=74 velocity=64 time=0
note_on channel=9 note=46 velocity=64 time=0
note_on channel=9 note=46 velocity=0 time=0.05
note_on channel=1 note=76 velocity=0 time=0.035
note_on channel=0 note=38 velocity=0 time=0.115
note_on channel=0 note=38 velocity=64 time=0.1
note_on channel=1 note=70 velocity=64 time=0
note_on channel=9 note=46 velocity=64 time=0
note_on channel=1 note=67 velocity=0 time=0.03
note_on channel=9 note=46 velocity=0 time=0.03
note_on channel=2 note=70 velocity=0 time=0.075
note_on channel=1 note=74 velocity=0 time=0.085
note_on channel=1 note=64 velocity=0 time=0.005
note_on channel=1 note=67 velocity=64 time=0.075
note_on channel=2 note=74 velocity=64 time=0
note_on channel=2 note=70 velocity=64 time=0
note_on channel=9 note=38 velocity=64 time=0
note_on channel=1 note=70 velocity=0 time=0.055
note_on channel=2 note=76 velocity=0 time=0.01
note_on channel=0 note=38 velocity=0 time=0.025
note_on channel=9 note=38 velocity=0 time=0.03
note_on channel=1 note=60 velocity=64 time=0.03
note_on channel=1 note=67 velocity=0 time=0.07
note_on channel=2 note=70 velocity=0 time=0.025
note_on channel=1 note=60 velocity=0 time=0.01
note_on channel=0 note=38 velocity=64 time=0.045
note_on channel=1 note=62 velocity=64 time=0
note_on channel=1 note=74 velocity=64 time=0
note_on channel=1 note=69 velocity=64 time=0
note_on channel=2 note=69 velocity=64 time=0
note_on channel=2 note=65 velocity=64 time=0
note_on channel=9 note=46 velocity=64 time=0
note_on channel=2 note=74 velocity=0 time=0.01
note_on channel=9 note=46 velocity=0 time=0.04
note_on channel=2 note=69 velocity=0 time=0.15
note_on channel=0 note=38 velocity=0 time=0.01
note_on channel=2 note=65 velocity=0 time=0.025
note_on channel=0 note=38 velocity=64 time=0.065
note_on channel=1 note=65 velocity=64 time=0
note_on channel=2 note=69 velocity=64 time=0
note_on channel=2 note=65 velocity=64 time=0
note_on channel=9 note=46 velocity=64 time=0
note_on channel=1 note=69 velocity=0 time=0.025
note_on channel=9 note=46 velocity=0 time=0.025
note_on channel=2 note=65 velocity=0 time=0.15
note_on channel=2 note=69 velocity=0 time=0.005
note_on channel=1 note=69 velocity=64 time=0.095
note_on channel=2 note=69 velocity=64 time=0
note_on channel=2 note=65 velocity=64 time=0
note_on channel=9 note=38 velocity=64 time=0
note_on channel=9 note=38 velocity=0 time=0.12
note_on channel=1 note=65 velocity=0 time=0.02
note_on channel=1 note=74 velocity=0 time=0.03
note_on channel=1 note=69 velocity=0 time=0.01
note_on channel=0 note=38 velocity=0 time=0.005
note_on channel=1 note=62 velocity=0 time=0
note_on channel=2 note=65 velocity=0 time=0.05
note_on channel=2 note=69 velocity=0 time=0.02
note_on channel=0 note=33 velocity=64 time=0.045
note_on channel=1 note=76 velocity=64 time=0
note_on channel=1 note=64 velocity=64 time=0
note_on channel=1 note=69 velocity=64 time=0
note_on channel=1 note=65 velocity=64 time=0
note_on channel=2 note=67 velocity=64 time=0
note_on channel=2 note=64 velocity=64 time=0
note_on channel=9 note=46 velocity=64 time=0
note_on channel=9 note=46 velocity=0 time=0.05
note_on channel=0 note=33 velocity=0 time=0.12
note_on channel=1 note=76 velocity=0 time=0.005
note_on channel=1 note=65 velocity=0 time=0.005
note_on channel=1 note=64 velocity=0 time=0.01
note_on channel=1 note=69 velocity=0 time=0.005
note_on channel=2 note=64 velocity=0 time=0.06
note_on channel=0 note=33 velocity=64 time=0.045
note_on channel=1 note=64 velocity=64 time=0
note_on channel=1 note=76 velocity=64 time=0
note_on channel=1 note=69 velocity=64 time=0
note_on channel=1 note=65 velocity=64 time=0
note_on channel=2 note=69 velocity=64 time=0
note_on channel=2 note=70 velocity=64 time=0
note_on channel=2 note=67 velocity=64 time=0
note_on channel=9 note=46 velocity=64 time=0
note_on channel=2 note=67 velocity=0 time=0.045
note_on channel=9 note=46 velocity=0 time=0
note_on channel=2 note=69 velocity=0 time=0.05
note_on channel=2 note=67 velocity=0 time=0.145
note_on channel=2 note=69 velocity=64 time=0.06
note_on channel=2 note=65 velocity=64 time=0
note_on channel=9 note=38 velocity=64 time=0
note_on channel=2 note=70 velocity=0 time=0.035
note_on channel=0 note=33 velocity=0 time=0.085
note_on channel=9 note=38 velocity=0 time=0
note_on channel=1 note=65 velocity=0 time=0.055
note_on channel=1 note=69 velocity=0 time=0
note_on channel=1 note=76 velocity=0 time=0.015
note_on channel=2 note=69 velocity=0 time=0.005
note_on channel=2 note=65 velocity=0 time=0.065
note_on channel=1 note=64 velocity=0 time=0.025
note_on channel=0 note=38 velocity=64 time=0.015
note_on channel=9 note=46 velocity=64 time=0
note_on channel=9 note=46 velocity=0 time=0.045
note_on channel=0 note=38 velocity=0 time=0.145
note_on channel=0 note=38 velocity=64 time=0.11
note_on channel=1 note=74 velocity=64 time=0
note_on channel=1 note=65 velocity=64 time=0
note_on channel=1 note=69 velocity=64 time=0
note_on channel=1 note=62 velocity=64 time=0
note_on channel=2 note=69 velocity=64 time=0
note_on channel=2 note=65 velocity=64 time=0
note_on channel=9 note=46 velocity=64 time=0
note_on channel=9 note=46 velocity=0 time=0.05
note_on channel=1 note=74 velocity=0 time=0.15
note_on channel=2 note=69 velocity=0 time=0.025
note_on channel=1 note=65 velocity=0 time=0.005
note_on channel=2 note=65 velocity=0 time=0.005
note_on channel=1 note=76 velocity=64 time=0.065
note_on channel=1 note=64 velocity=64 time=0
note_on channel=1 note=65 velocity=64 time=0
note_on channel=2 note=74 velocity=64 time=0
note_on channel=2 note=69 velocity=64 time=0
note_on channel=9 note=38 velocity=64 time=0
note_on channel=1 note=62 velocity=0 time=0.015
note_on channel=1 note=65 velocity=0 time=0.065
note_on channel=9 note=38 velocity=0 time=0.035
note_on channel=0 note=38 velocity=0 time=0.05
note_on channel=0 note=33 velocity=64 time=0.135
note_on channel=1 note=65 velocity=64 time=0
note_on channel=9 note=46 velocity=64 time=0
note_on channel=9 note=46 velocity=0 time=0.04
note_on channel=1 note=76 velocity=0 time=0.005
note_on channel=1 note=69 velocity=0 time=0.035
note_on channel=1 note=64 velocity=0 time=0.04
note_on channel=0 note=33 velocity=0 time=0.07
note_on channel=0 note=33 velocity=64 time=0.11
note_on channel=1 note=69 velocity=64 time=0
note_on channel=1 note=62 velocity=64 time=0
note_on channel=1 note=74 velocity=64 time=0
note_on channel=9 note=46 velocity=64 time=0
note_on channel=9 note=46 velocity=0 time=0.055
note_on channel=2 note=69 velocity=0 time=0.1
note_on channel=1 note=65 velocity=0 time=0.02
note_on channel=1 note=69 velocity=0 time=0.005
note_on channel=1 note=74 velocity=0 time=0
note_on channel=1 note=62 velocity=0 time=0.05
note_on channel=1 note=63 velocity=64 time=0.07
note_on channel=1 note=75 velocity=64 time=0
note_on channel=2 note=74 velocity=0 time=0
note_on channel=2 note=73 velocity=64 time=0
note_on channel=2 note=69 velocity=64 time=0
note_on channel=9 note=38 velocity=64 time=0
note_on channel=0 note=33 velocity=0 time=0.095
note_on channel=1 note=75 velocity=0 time=0.055
note_on channel=9 note=38 velocity=0 time=0.01
note_on channel=1 note=63 velocity=0 time=0.06
note_on channel=0 note=33 velocity=64 time=0.08
note_on channel=1 note=64 velocity=64 time=0
note_on channel=1 note=73 velocity=64 time=0
note_on channel=1 note=76 velocity=64 time=0
note_on channel=2 note=69 velocity=64 time=0
note_on channel=2 note=64 velocity=64 time=0
note_on channel=9 note=46 velocity=64 time=0
note_on channel=9 note=46 velocity=0 time=0.05
note_on channel=2 note=73 velocity=0 time=0.025
note_on channel=2 note=69 velocity=0 time=0.045
note_on channel=2 note=64 velocity=0 time=0.035
note_on channel=0 note=33 velocity=0 time=0.025
note_on channel=2 note=69 velocity=0 time=0.115
note_on channel=0 note=33 velocity=64 time=0.005
note_on channel=1 note=69 velocity=64 time=0
note_on channel=2 note=67 velocity=64 time=0
note_on channel=2 note=64 velocity=64 time=0
note_on channel=9 note=46 velocity=64 time=0
note_on channel=9 note=46 velocity=0 time=0.045
note_on channel=1 note=73 velocity=0 time=0.03
note_on channel=2 note=64 velocity=0 time=0.11
note_on channel=2 note=67 velocity=0 time=0.04
note_on channel=1 note=73 velocity=64 time=0.075
note_on channel=2 note=67 velocity=64 time=0
note_on channel=2 note=64 velocity=64 time=0
note_on channel=9 note=38 velocity=64 time=0
note_on channel=9 note=38 velocity=0 time=0.12
note_on channel=1 note=69 velocity=0 time=0.005
note_on channel=1 note=76 velocity=0 time=0.01
note_on channel=0 note=33 velocity=0 time=0.005
note_on channel=1 note=73 velocity=0 time=0.04
note_on channel=1 note=64 velocity=0 time=0.025
note_on channel=2 note=64 velocity=0 time=0.02
note_on channel=0 note=40 velocity=64 time=0.075
note_on channel=1 note=69 velocity=64 time=0
note_on channel=1 note=77 velocity=64 time=0
note_on channel=1 note=65 velocity=64 time=0
note_on channel=1 note=73 velocity=64 time=0
note_on channel=2 note=66 velocity=64 time=0
note_on channel=2 note=62 velocity=64 time=0
note_on channel=9 note=46 velocity=64 time=0
note_on channel=2 note=67 velocity=0 time=0.03
note_on channel=1 note=73 velocity=0 time=0.01
note_on channel=9 note=46 velocity=0 time=0.015
note_on channel=0 note=40 velocity=0 time=0.11
note_on channel=1 note=77 velocity=0 time=0.025
note_on channel=1 note=65 velocity=0 time=0.005
note_on channel=2 note=66 velocity=0 time=0.035
note_on channel=1 note=69 velocity=0 time=0.01
note_on channel=2 note=62 velocity=0 time=0.015
note_on channel=0 note=40 velocity=64 time=0.045
note_on channel=1 note=77 velocity=64 time=0
note_on channel=1 note=69 velocity=64 time=0
note_on channel=1 note=65 velocity=64 time=0
note_on channel=2 note=69 velocity=64 time=0
note_on channel=2 note=65 velocity=64 time=0
note_on channel=9 note=46 velocity=64 time=0
note_on channel=9 note=46 velocity=0 time=0.045
note_on channel=2 note=65 velocity=0 time=0.2
note_on channel=2 note=69 velocity=0 time=0.02
note_on channel=2 note=67 velocity=64 time=0.035
note_on channel=2 note=64 velocity=64 time=0
note_on channel=9 note=38 velocity=64 time=0
note_on channel=9 note=38 velocity=0 time=0.105
note_on channel=0 note=40 velocity=0 time=0.045
note_on channel=2 note=67 velocity=0 time=0.05
note_on channel=2 note=64 velocity=0 time=0.06
note_on channel=0 note=33 velocity=64 time=0.04
note_on channel=9 note=46 velocity=64 time=0
note_on channel=1 note=77 velocity=0 time=0.015
note_on channel=9 note=46 velocity=0 time=0.035
note_on channel=1 note=65 velocity=0 time=0.015
note_on channel=1 note=69 velocity=0 time=0.005
note_on channel=0 note=33 velocity=0 time=0.115
note_on channel=0 note=33 velocity=64 time=0.115
note_on channel=1 note=64 velocity=64 time=0
note_on channel=1 note=69 velocity=64 time=0
note_on channel=1 note=76 velocity=64 time=0
note_on channel=1 note=73 velocity=64 time=0
note_on channel=2 note=76 velocity=64 time=0
note_on channel=2 note=73 velocity=64 time=0
note_on channel=9 note=46 velocity=64 time=0
note_on channel=9 note=46 velocity=0 time=0.055
note_on channel=1 note=76 velocity=0 time=0.145
note_on channel=1 note=69 velocity=0 time=0.005
note_on channel=1 note=73 velocity=0 time=0.005
note_on channel=1 note=69 velocity=64 time=0.09
note_on channel=1 note=77 velocity=64 time=0
note_on channel=1 note=65 velocity=64 time=0
note_on channel=9 note=38 velocity=64 time=0
note_on channel=1 note=64 velocity=0 time=0.08
note_on channel=9 note=38 velocity=0 time=0.015
note_on channel=0 note=33 velocity=0 time=0.04
note_on channel=2 note=73 velocity=0 time=0.01
note_on channel=2 note=73 velocity=64 time=0.005
note_on channel=2 note=76 velocity=0 time=0.085
note_on channel=0 note=40 velocity=64 time=0.065
note_on channel=1 note=64 velocity=64 time=0
note_on channel=1 note=76 velocity=64 time=0
note_on channel=2 note=67 velocity=64 time=0
note_on channel=9 note=46 velocity=64 time=0
note_on channel=9 note=46 velocity=0 time=0.055
note_on channel=1 note=65 velocity=0 time=0.07
note_on channel=1 note=77 velocity=0 time=0.02
note_on channel=0 note=40 velocity=0 time=0.03
note_on channel=1 note=69 velocity=0 time=0.01
note_on channel=0 note=40 velocity=64 time=0.115
note_on channel=1 note=73 velocity=64 time=0
note_on channel=9 note=46 velocity=64 time=0
note_on channel=9 note=46 velocity=0 time=0.055
note_on channel=2 note=67 velocity=0 time=0.06
note_on channel=1 note=76 velocity=0 time=0.1
note_on channel=2 note=73 velocity=0 time=0.025
note_on channel=1 note=64 velocity=0 time=0.03
note_on channel=1 note=69 velocity=64 time=0.03
note_on channel=2 note=67 velocity=64 time=0
note_on channel=2 note=64 velocity=64 time=0
note_on channel=9 note=38 velocity=64 time=0
note_on channel=1 note=73 velocity=0 time=0.1
note_on channel=9 note=38 velocity=0 time=0.01
note_on channel=0 note=40 velocity=0 time=0.035
note_on channel=1 note=59 velocity=64 time=0.005
note_on channel=1 note=60 velocity=64 time=0
note_on channel=1 note=69 velocity=0 time=0.02
note_on channel=2 note=64 velocity=0 time=0.025
note_on channel=1 note=59 velocity=0 time=0.01
note_on channel=1 note=60 velocity=0 time=0.045
note_on channel=2 note=67 velocity=0 time=0.015
note_on channel=0 note=38 velocity=64 time=0.035
note_on channel=1 note=62 velocity=64 time=0
note_on channel=1 note=74 velocity=64 time=0
note_on channel=1 note=65 velocity=64 time=0
note_on channel=2 note=65 velocity=64 time=0
note_on channel=2 note=62 velocity=64 time=0
note_on channel=9 note=46 velocity=64 time=0
note_on channel=9 note=46 velocity=0 time=0.06
note_on channel=0 note=38 velocity=0 time=0.14
note_on channel=0 note=38 velocity=64 time=0.1
note_on channel=9 note=46 velocity=64 time=0
note_on channel=9 note=46 velocity=0 time=0.06
note_on channel=9 note=38 velocity=64 time=0.24
note_on channel=9 note=38 velocity=0 time=0.115
note_on channel=0 note=38 velocity=0 time=0.04
note_on channel=1 note=65 velocity=0 time=0.005
note_on channel=1 note=62 velocity=0 time=0.005
note_on channel=1 note=74 velocity=0 time=0.095
note_on channel=0 note=33 velocity=64 time=0.04
note_on channel=1 note=69 velocity=64 time=0
note_on channel=1 note=74 velocity=64 time=0
note_on channel=9 note=46 velocity=64 time=0
note_on channel=9 note=46 velocity=0 time=0.06
note_on channel=1 note=74 velocity=0 time=0.01
note_on channel=2 note=62 velocity=0 time=0.045
note_on channel=0 note=33 velocity=0 time=0.09
note_on channel=0 note=33 velocity=64 time=0.095
note_on channel=1 note=65 velocity=64 time=0
note_on channel=9 note=46 velocity=64 time=0
note_on channel=1 note=69 velocity=0 time=0.02
note_on channel=9 note=46 velocity=0 time=0.04
note_on channel=2 note=65 velocity=0 time=0.055
note_on channel=1 note=69 velocity=64 time=0.185
note_on channel=9 note=38 velocity=64 time=0
note_on channel=0 note=33 velocity=0 time=0.1
note_on channel=9 note=38 velocity=0 time=0.07
note_on channel=0 note=38 velocity=64 time=0.13
note_on channel=1 note=74 velocity=64 time=0
note_on channel=9 note=46 velocity=64 time=0
note_on channel=9 note=46 velocity=0 time=0.055
note_on channel=1 note=65 velocity=0 time=0.02
note_on channel=1 note=69 velocity=0 time=0.025
note_on channel=1 note=74 velocity=0 time=0.06
note_on channel=0 note=38 velocity=0 time=0.045
note_on channel=0 note=38 velocity=64 time=0.395
note_on channel=1 note=74 velocity=64 time=0
note_on channel=1 note=62 velocity=64 time=0
note_on channel=1 note=65 velocity=64 time=0
note_on channel=1 note=69 velocity=64 time=0
note_on channel=9 note=46 velocity=64 time=0
note_on channel=9 note=46 velocity=0 time=0.07
note_on channel=1 note=62 velocity=0 time=0.08
note_on channel=1 note=74 velocity=0 time=0.01
note_on channel=1 note=69 velocity=0 time=0
note_on channel=1 note=65 velocity=0 time=0.02
note_on channel=0 note=38 velocity=0 time=0.005
note_on channel=3 note=62 velocity=94 time=0.715
note_on channel=3 note=62 velocity=0 time=0.295
note_on channel=0 note=34 velocity=64 time=0.005
note_on channel=1 note=65 velocity=64 time=0
note_on channel=1 note=62 velocity=64 time=0
note_on channel=1 note=70 velocity=64 time=0
note_on channel=1 note=74 velocity=64 time=0
note_on channel=3 note=70 velocity=94 time=0
note_on channel=9 note=46 velocity=64 time=0
note_on channel=9 note=46 velocity=0 time=0.065
note_on channel=3 note=70 velocity=0 time=1.055
note_on channel=3 note=70 velocity=94 time=0.08
note_on channel=1 note=65 velocity=0 time=0.08
note_on channel=1 note=70 velocity=0 time=0.005
note_on channel=1 note=74 velocity=0 time=0.035
note_on channel=1 note=62 velocity=0 time=0.295
note_on channel=0 note=34 velocity=0 time=0.125
note_on channel=3 note=70 velocity=0 time=0
note_on channel=0 note=33 velocity=64 time=0.06
note_on channel=1 note=73 velocity=64 time=0
note_on channel=1 note=76 velocity=64 time=0
note_on channel=1 note=64 velocity=64 time=0
note_on channel=3 note=69 velocity=94 time=0
note_on channel=9 note=46 velocity=64 time=0
note_on channel=9 note=46 velocity=0 time=0.065
note_on channel=0 note=33 velocity=0 time=0.16
note_on channel=0 note=33 velocity=64 time=0.075
note_on channel=1 note=69 velocity=64 time=0
note_on channel=9 note=46 velocity=64 time=0
note_on channel=9 note=46 velocity=0 time=0.065
note_on channel=1 note=73 velocity=0 time=0.04
note_on channel=1 note=73 velocity=64 time=0.195
note_on channel=9 note=38 velocity=64 time=0
note_on channel=9 note=38 velocity=0 time=0.1
note_on channel=1 note=76 velocity=0 time=0.045
note_on channel=1 note=69 velocity=0 time=0
note_on channel=0 note=33 velocity=0 time=0.03
note_on channel=1 note=73 velocity=0 time=0
note_on channel=1 note=64 velocity=0 time=0.02
note_on channel=0 note=40 velocity=64 time=0.105
note_on channel=1 note=69 velocity=64 time=0
note_on channel=1 note=77 velocity=64 time=0
note_on channel=1 note=65 velocity=64 time=0
note_on channel=9 note=46 velocity=64 time=0
note_on channel=9 note=46 velocity=0 time=0.06
note_on channel=1 note=65 velocity=0 time=0.135
note_on channel=0 note=40 velocity=0 time=0.015
note_on channel=1 note=77 velocity=0 time=0
note_on channel=1 note=69 velocity=0 time=0.035
note_on channel=0 note=40 velocity=64 time=0.055
note_on channel=1 note=65 velocity=64 time=0
note_on channel=1 note=77 velocity=64 time=0
note_on channel=1 note=69 velocity=64 time=0
note_on channel=9 note=46 velocity=64 time=0
note_on channel=9 note=46 velocity=0 time=0.055
note_on channel=9 note=38 velocity=64 time=0.245
note_on channel=9 note=38 velocity=0 time=0.09
note_on channel=0 note=40 velocity=0 time=0.025
note_on channel=1 note=77 velocity=0 time=0.14
note_on channel=0 note=33 velocity=64 time=0.045
note_on channel=9 note=46 velocity=64 time=0
note_on channel=1 note=65 velocity=0 time=0.04
note_on channel=9 note=46 velocity=0 time=0.02
note_on channel=3 note=69 velocity=0 time=0.01
note_on channel=1 note=69 velocity=0 time=0.02
note_on channel=0 note=33 velocity=0 time=0.125
note_on channel=0 note=33 velocity=64 time=0.085
note_on channel=1 note=76 velocity=64 time=0
note_on channel=1 note=64 velocity=64 time=0
note_on channel=1 note=69 velocity=64 time=0
note_on channel=1 note=73 velocity=64 time=0
note_on channel=3 note=57 velocity=94 time=0
note_on channel=9 note=46 velocity=64 time=0
note_on channel=9 note=46 velocity=0 time=0.055
note_on channel=1 note=73 velocity=0 time=0.15
note_on channel=1 note=76 velocity=0 time=0.005
note_on channel=1 note=69 velocity=0 time=0.015
note_on channel=1 note=69 velocity=64 time=0.075
note_on channel=1 note=77 velocity=64 time=0
note_on channel=1 note=65 velocity=64 time=0
note_on channel=3 note=61 velocity=94 time=0
note_on channel=9 note=38 velocity=64 time=0
note_on channel=1 note=64 velocity=0 time=0.005
note_on channel=9 note=38 velocity=0 time=0.095
note_on channel=3 note=57 velocity=0 time=0.045
note_on channel=0 note=33 velocity=0 time=0.035
note_on channel=3 note=61 velocity=0 time=0.095
note_on channel=0 note=40 velocity=64 time=0.025
note_on channel=3 note=64 velocity=94 time=0
note_on channel=9 note=46 velocity=64 time=0
note_on channel=9 note=46 velocity=0 time=0.055
note_on channel=1 note=69 velocity=0 time=0.08
note_on channel=1 note=77 velocity=0 time=0
note_on channel=0 note=40 velocity=0 time=0.07
note_on channel=0 note=40 velocity=64 time=0.095
note_on channel=1 note=76 velocity=64 time=0
note_on channel=1 note=64 velocity=64 time=0
note_on channel=1 note=69 velocity=64 time=0
note_on channel=1 note=73 velocity=64 time=0
note_on channel=3 note=67 velocity=94 time=0
note_on channel=9 note=46 velocity=64 time=0
note_on channel=3 note=64 velocity=0 time=0.005
note_on channel=1 note=65 velocity=0 time=0.015
note_on channel=9 note=46 velocity=0 time=0.035
note_on channel=3 note=69 velocity=94 time=0.245
note_on channel=9 note=38 velocity=64 time=0
note_on channel=1 note=64 velocity=0 time=0.035
note_on channel=3 note=67 velocity=0 time=0.01
note_on channel=1 note=73 velocity=0 time=0.005
note_on channel=1 note=76 velocity=0 time=0.035
note_on channel=9 note=38 velocity=0 time=0.01
note_on channel=0 note=40 velocity=0 time=0.03
note_on channel=1 note=69 velocity=0 time=0.015
note_on channel=1 note=59 velocity=64 time=0.01
note_on channel=1 note=60 velocity=64 time=0
note_on channel=1 note=59 velocity=0 time=0.045
note_on channel=3 note=69 velocity=0 time=0.05
note_on channel=1 note=60 velocity=0 time=0.02
note_on channel=0 note=38 velocity=64 time=0.035
note_on channel=1 note=74 velocity=64 time=0
note_on channel=1 note=62 velocity=64 time=0
note_on channel=1 note=69 velocity=64 time=0
note_on channel=3 note=70 velocity=94 time=0
note_on channel=9 note=46 velocity=64 time=0
note_on channel=9 note=46 velocity=0 time=0.055
note_on channel=0 note=38 velocity=0 time=0.15
note_on channel=0 note=38 velocity=64 time=0.095
note_on channel=1 note=69 velocity=0 time=0
note_on channel=1 note=65 velocity=64 time=0
note_on channel=9 note=46 velocity=64 time=0
note_on channel=9 note=46 velocity=0 time=0.055
note_on channel=1 note=69 velocity=64 time=0.245
note_on channel=3 note=70 velocity=0 time=0
note_on channel=3 note=69 velocity=94 time=0
note_on channel=9 note=38 velocity=64 time=0
note_on channel=9 note=38 velocity=0 time=0.095
note_on channel=0 note=38 velocity=0 time=0.03
note_on channel=1 note=74 velocity=0 time=0.015
note_on channel=1 note=65 velocity=0 time=0.02
note_on channel=1 note=69 velocity=0 time=0.03
note_on channel=1 note=62 velocity=0 time=0.01
note_on channel=0 note=33 velocity=64 time=0.1
note_on channel=1 note=69 velocity=64 time=0
note_on channel=1 note=76 velocity=64 time=0
note_on channel=1 note=65 velocity=64 time=0
note_on channel=1 note=64 velocity=64 time=0
note_on channel=9 note=46 velocity=64 time=0
note_on channel=9 note=46 velocity=0 time=0.06
note_on channel=1 note=76 velocity=0 time=0.11
note_on channel=1 note=64 velocity=0 time=0.01
note_on channel=1 note=65 velocity=0 time=0.005
note_on channel=0 note=33 velocity=0 time=0.025
note_on channel=1 note=69 velocity=0 time=0.005
note_on channel=0 note=33 velocity=64 time=0.085
note_on channel=1 note=76 velocity=64 time=0
note_on channel=1 note=64 velocity=64 time=0
note_on channel=1 note=69 velocity=64 time=0
note_on channel=1 note=65 velocity=64 time=0
note_on channel=9 note=46 velocity=64 time=0
note_on channel=9 note=46 velocity=0 time=0.06
note_on channel=9 note=38 velocity=64 time=0.24
note_on channel=0 note=33 velocity=0 time=0.045
note_on channel=9 note=38 velocity=0 time=0.05
note_on channel=3 note=69 velocity=0 time=0.185
note_on channel=0 note=38 velocity=64 time=0.02
note_on channel=9 note=46 velocity=64 time=0
note_on channel=9 note=46 velocity=0 time=0.055
note_on channel=1 note=69 velocity=0 time=0.075
note_on channel=1 note=76 velocity=0 time=0.01
note_on channel=1 note=65 velocity=0 time=0.005
note_on channel=1 note=64 velocity=0 time=0.025
note_on channel=0 note=38 velocity=0 time=0.025
note_on channel=0 note=38 velocity=64 time=0.105
note_on channel=1 note=74 velocity=64 time=0
note_on channel=1 note=62 velocity=64 time=0
note_on channel=1 note=69 velocity=64 time=0
note_on channel=3 note=69 velocity=94 time=0
note_on channel=9 note=46 velocity=64 time=0
note_on channel=9 note=46 velocity=0 time=0.045
note_on channel=3 note=69 velocity=0 time=0.19
note_on channel=1 note=65 velocity=64 time=0.065
note_on channel=3 note=74 velocity=94 time=0
note_on channel=9 note=38 velocity=64 time=0
note_on channel=1 note=69 velocity=0 time=0.035
note_on channel=9 note=38 velocity=0 time=0.065
note_on channel=0 note=38 velocity=0 time=0.09
note_on channel=0 note=33 velocity=64 time=0.11
note_on channel=1 note=69 velocity=64 time=0
note_on channel=9 note=46 velocity=64 time=0
note_on channel=1 note=74 velocity=0 time=0.06
note_on channel=9 note=46 velocity=0 time=0
note_on channel=1 note=62 velocity=0 time=0.025
note_on channel=0 note=33 velocity=0 time=0.11
note_on channel=0 note=33 velocity=64 time=0.105
note_on channel=1 note=74 velocity=64 time=0
note_on channel=1 note=62 velocity=64 time=0
note_on channel=9 note=46 velocity=64 time=0
note_on channel=9 note=46 velocity=0 time=0.055
note_on channel=1 note=65 velocity=0 time=0.06
note_on channel=1 note=69 velocity=0 time=0.025
note_on channel=1 note=74 velocity=0 time=0.045
note_on channel=1 note=62 velocity=0 time=0.03
note_on channel=3 note=74 velocity=0 time=0.02
note_on channel=1 note=63 velocity=64 time=0.065
note_on channel=1 note=75 velocity=64 time=0
note_on channel=3 note=73 velocity=94 time=0
note_on channel=9 note=38 velocity=64 time=0
note_on channel=0 note=33 velocity=0 time=0.085
note_on channel=9 note=38 velocity=0 time=0.025
note_on channel=1 note=75 velocity=0 time=0.055
note_on channel=1 note=63 velocity=0 time=0.045
note_on channel=3 note=73 velocity=0 time=0.05
note_on channel=0 note=33 velocity=64 time=0.04
note_on channel=1 note=64 velocity=64 time=0
note_on channel=1 note=73 velocity=64 time=0
note_on channel=1 note=76 velocity=64 time=0
note_on channel=3 note=69 velocity=94 time=0
note_on channel=9 note=46 velocity=64 time=0
note_on channel=9 note=46 velocity=0 time=0.055
note_on channel=0 note=33 velocity=0 time=0.15
note_on channel=0 note=33 velocity=64 time=0.095
note_on channel=1 note=69 velocity=64 time=0
note_on channel=9 note=46 velocity=64 time=0
note_on channel=1 note=73 velocity=0 time=0.045
note_on channel=9 note=46 velocity=0 time=0
note_on channel=3 note=69 velocity=0 time=0.20500000000000002
note_on channel=1 note=73 velocity=64 time=0.05
note_on channel=3 note=67 velocity=94 time=0
note_on channel=9 note=38 velocity=64 time=0
note_on channel=0 note=33 velocity=0 time=0.1
note_on channel=1 note=76 velocity=0 time=0.01
note_on channel=9 note=38 velocity=0 time=0
note_on channel=1 note=69 velocity=0 time=0.03
note_on channel=1 note=73 velocity=0 time=0.02
note_on channel=1 note=64 velocity=0 time=0.02
note_on channel=0 note=40 velocity=64 time=0.12
note_on channel=1 note=77 velocity=64 time=0
note_on channel=1 note=69 velocity=64 time=0
note_on channel=1 note=73 velocity=64 time=0
note_on channel=1 note=65 velocity=64 time=0
note_on channel=9 note=46 velocity=64 time=0
note_on channel=9 note=46 velocity=0 time=0.05
note_on channel=1 note=73 velocity=0 time=0.1
note_on channel=1 note=65 velocity=0 time=0.03
note_on channel=1 note=77 velocity=0 time=0
note_on channel=0 note=40 velocity=0 time=0.005
note_on channel=1 note=69 velocity=0 time=0.005
note_on channel=0 note=40 velocity=64 time=0.11
note_on channel=1 note=77 velocity=64 time=0
note_on channel=1 note=65 velocity=64 time=0
note_on channel=1 note=69 velocity=64 time=0
note_on channel=9 note=46 velocity=64 time=0
note_on channel=9 note=46 velocity=0 time=0.05
note_on channel=9 note=38 velocity=64 time=0.25
note_on channel=3 note=67 velocity=0 time=0.11
note_on channel=9 note=38 velocity=0 time=0.005
note_on channel=0 note=40 velocity=0 time=0.03
note_on channel=0 note=33 velocity=64 time=0.155
note_on channel=9 note=46 velocity=64 time=0
note_on channel=1 note=69 velocity=0 time=0.05
note_on channel=1 note=77 velocity=0 time=0.005
note_on channel=9 note=46 velocity=0 time=0
note_on channel=1 note=65 velocity=0 time=0.035
note_on channel=0 note=33 velocity=0 time=0.1
note_on channel=0 note=33 velocity=64 time=0.11
note_on channel=1 note=64 velocity=64 time=0
note_on channel=1 note=76 velocity=64 time=0
note_on channel=1 note=69 velocity=64 time=0
note_on channel=1 note=73 velocity=64 time=0
note_on channel=3 note=69 velocity=94 time=0
note_on channel=9 note=46 velocity=64 time=0
note_on channel=9 note=46 velocity=0 time=0.055
note_on channel=1 note=73 velocity=0 time=0.145
note_on channel=1 note=76 velocity=0 time=0
note_on channel=1 note=69 velocity=0 time=0.025
note_on channel=3 note=69 velocity=0 time=0.025
note_on channel=1 note=65 velocity=64 time=0.05
note_on channel=1 note=69 velocity=64 time=0
note_on channel=1 note=77 velocity=64 time=0
note_on channel=3 note=76 velocity=94 time=0
note_on channel=9 note=38 velocity=64 time=0
note_on channel=1 note=64 velocity=0 time=0.05
note_on channel=9 note=38 velocity=0 time=0.06
note_on channel=0 note=33 velocity=0 time=0.065
note_on channel=0 note=40 velocity=64 time=0.125
note_on channel=9 note=46 velocity=64 time=0
note_on channel=9 note=46 velocity=0 time=0.055
note_on channel=1 note=77 velocity=0 time=0.095
note_on channel=1 note=69 velocity=0 time=0.05
note_on channel=0 note=40 velocity=0 time=0.015
note_on channel=0 note=40 velocity=64 time=0.085
note_on channel=1 note=64 velocity=64 time=0
note_on channel=1 note=76 velocity=64 time=0
note_on channel=1 note=73 velocity=64 time=0
note_on channel=1 note=69 velocity=64 time=0
note_on channel=9 note=46 velocity=64 time=0
note_on channel=1 note=65 velocity=0 time=0.025
note_on channel=9 note=46 velocity=0 time=0.025
note_on channel=1 note=73 velocity=0 time=0.2
note_on channel=3 note=76 velocity=0 time=0.015
note_on channel=1 note=76 velocity=0 time=0.015
note_on channel=1 note=69 velocity=0 time=0.01
note_on channel=3 note=73 velocity=94 time=0.01
note_on channel=9 note=38 velocity=64 time=0
note_on channel=1 note=64 velocity=0 time=0.07
note_on channel=0 note=40 velocity=0 time=0.04
note_on channel=9 note=38 velocity=0 time=0.005
note_on channel=1 note=60 velocity=64 time=0.035
note_on channel=1 note=60 velocity=0 time=0.085
note_on channel=3 note=73 velocity=0 time=0.04
note_on channel=0 note=38 velocity=64 time=0.025
note_on channel=1 note=62 velocity=64 time=0
note_on channel=1 note=74 velocity=64 time=0
note_on channel=1 note=69 velocity=64 time=0
note_on channel=3 note=73 velocity=94 time=0
note_on channel=3 note=74 velocity=94 time=0
note_on channel=9 note=46 velocity=64 time=0
note_on channel=3 note=73 velocity=0 time=0.045
note_on channel=9 note=46 velocity=0 time=0.015
note_on channel=0 note=38 velocity=0 time=0.155
note_on channel=0 note=38 velocity=64 time=0.085
note_on channel=1 note=69 velocity=0 time=0
note_on channel=1 note=65 velocity=64 time=0
note_on channel=9 note=46 velocity=64 time=0
note_on channel=9 note=46 velocity=0 time=0.045
note_on channel=1 note=69 velocity=64 time=0.255
note_on channel=9 note=38 velocity=64 time=0
note_on channel=1 note=74 velocity=0 time=0.11
note_on channel=9 note=38 velocity=0 time=0
note_on channel=0 note=38 velocity=0 time=0.03
note_on channel=1 note=65 velocity=0 time=0.005
note_on channel=1 note=69 velocity=0 time=0.035
note_on channel=1 note=62 velocity=0 time=0.035
note_on channel=0 note=33 velocity=64 time=0.085
note_on channel=1 note=76 velocity=64 time=0
note_on channel=1 note=69 velocity=64 time=0
note_on channel=1 note=65 velocity=64 time=0
note_on channel=1 note=64 velocity=64 time=0
note_on channel=9 note=46 velocity=64 time=0
note_on channel=9 note=46 velocity=0 time=0.065
note_on channel=1 note=76 velocity=0 time=0.105
note_on channel=1 note=64 velocity=0 time=0.02
note_on channel=1 note=69 velocity=0 time=0.005
note_on channel=1 note=65 velocity=0 time=0.005
note_on channel=0 note=33 velocity=0 time=0.005
note_on channel=0 note=33 velocity=64 time=0.095
note_on channel=1 note=64 velocity=64 time=0
note_on channel=1 note=76 velocity=64 time=0
note_on channel=1 note=65 velocity=64 time=0
note_on channel=1 note=69 velocity=64 time=0
note_on channel=9 note=46 velocity=64 time=0
note_on channel=9 note=46 velocity=0 time=0.06
note_on channel=9 note=38 velocity=64 time=0.24
note_on channel=1 note=76 velocity=0 time=0.1
note_on channel=1 note=69 velocity=0 time=0.01
note_on channel=0 note=33 velocity=0 time=0.015
note_on channel=9 note=38 velocity=0 time=0.005
note_on channel=1 note=65 velocity=0 time=0.015
note_on channel=1 note=64 velocity=0 time=0.055
note_on channel=3 note=74 velocity=0 time=0.04
note_on channel=0 note=38 velocity=64 time=0.06
note_on channel=1 note=62 velocity=64 time=0
note_on channel=1 note=74 velocity=64 time=0
note_on channel=1 note=69 velocity=64 time=0
note_on channel=9 note=46 velocity=64 time=0
note_on channel=9 note=46 velocity=0 time=0.065
note_on channel=0 note=38 velocity=0 time=0.115
note_on channel=0 note=38 velocity=64 time=0.12
note_on channel=1 note=65 velocity=64 time=0
note_on channel=3 note=62 velocity=94 time=0
note_on channel=1 note=74 velocity=0 time=0.015
note_on channel=1 note=69 velocity=0 time=0.095
note_on channel=0 note=38 velocity=0 time=0.075
note_on channel=1 note=65 velocity=0 time=0
note_on channel=3 note=62 velocity=0 time=0.08
note_on channel=1 note=62 velocity=0 time=0.025
note_on channel=0 note=34 velocity=64 time=0.01
note_on channel=1 note=65 velocity=64 time=0
note_on channel=1 note=74 velocity=64 time=0
note_on channel=1 note=70 velocity=64 time=0
note_on channel=3 note=70 velocity=94 time=0
note_on channel=3 note=70 velocity=0 time=0.8
note_on channel=3 note=70 velocity=94 time=0.1
note_on channel=1 note=65 velocity=0 time=0.05
note_on channel=0 note=34 velocity=0 time=0.03
note_on channel=1 note=70 velocity=0 time=0.015
note_on channel=1 note=74 velocity=0 time=0.095
note_on channel=3 note=70 velocity=0 time=0.09
note_on channel=0 note=33 velocity=64 time=0.02
note_on channel=1 note=64 velocity=64 time=0
note_on channel=1 note=73 velocity=64 time=0
note_on channel=1 note=76 velocity=64 time=0
note_on channel=3 note=69 velocity=94 time=0
note_on channel=9 note=46 velocity=64 time=0
note_on channel=9 note=46 velocity=0 time=0.065
note_on channel=0 note=33 velocity=0 time=0.11
note_on channel=0 note=33 velocity=64 time=0.125
note_on channel=1 note=69 velocity=64 time=0
note_on channel=9 note=46 velocity=64 time=0
note_on channel=1 note=73 velocity=0 time=0.04
note_on channel=9 note=46 velocity=0 time=0.02
note_on channel=1 note=73 velocity=64 time=0.24
note_on channel=9 note=38 velocity=64 time=0
note_on channel=1 note=76 velocity=0 time=0.09
note_on channel=9 note=38 velocity=0 time=0.015
note_on channel=0 note=33 velocity=0 time=0.025
note_on channel=1 note=69 velocity=0 time=0.04
note_on channel=1 note=64 velocity=0 time=0.01
note_on channel=1 note=73 velocity=0 time=0.005
note_on channel=0 note=40 velocity=64 time=0.115
note_on channel=1 note=69 velocity=64 time=0
note_on channel=1 note=77 velocity=64 time=0
note_on channel=1 note=65 velocity=64 time=0
note_on channel=9 note=46 velocity=64 time=0
note_on channel=9 note=46 velocity=0 time=0.06
note_on channel=1 note=65 velocity=0 time=0.085
note_on channel=0 note=40 velocity=0 time=0.025
note_on channel=1 note=77 velocity=0 time=0.005
note_on channel=1 note=69 velocity=0 time=0.05
note_on channel=0 note=40 velocity=64 time=0.075
note_on channel=1 note=65 velocity=64 time=0
note_on channel=1 note=77 velocity=64 time=0
note_on channel=1 note=69 velocity=64 time=0
note_on channel=9 note=46 velocity=64 time=0
note_on channel=9 note=46 velocity=0 time=0.055
note_on channel=9 note=38 velocity=64 time=0.245
note_on channel=9 note=38 velocity=0 time=0.115
note_on channel=0 note=40 velocity=0 time=0.05
note_on channel=1 note=77 velocity=0 time=0.04
note_on channel=1 note=69 velocity=0 time=0.08
note_on channel=0 note=33 velocity=64 time=0.015
note_on channel=9 note=46 velocity=64 time=0
note_on channel=1 note=65 velocity=0 time=0.025
note_on channel=9 note=46 velocity=0 time=0.035
note_on channel=0 note=33 velocity=0 time=0.15
note_on channel=3 note=69 velocity=0 time=0.035
note_on channel=0 note=33 velocity=64 time=0.055
note_on channel=1 note=64 velocity=64 time=0
note_on channel=1 note=76 velocity=64 time=0
note_on channel=1 note=73 velocity=64 time=0
note_on channel=1 note=69 velocity=64 time=0
note_on channel=3 note=57 velocity=94 time=0
note_on channel=9 note=46 velocity=64 time=0
note_on channel=9 note=46 velocity=0 time=0.055
note_on channel=1 note=76 velocity=0 time=0.15
note_on channel=1 note=73 velocity=0 time=0.015
note_on channel=1 note=69 velocity=0 time=0.03
note_on channel=1 note=64 velocity=0 time=0.045
note_on channel=1 note=69 velocity=64 time=0.005
note_on channel=1 note=65 velocity=64 time=0
note_on channel=1 note=77 velocity=64 time=0
note_on channel=3 note=61 velocity=94 time=0
note_on channel=9 note=38 velocity=64 time=0
note_on channel=9 note=38 velocity=0 time=0.11
note_on channel=0 note=33 velocity=0 time=0.035
note_on channel=3 note=61 velocity=0 time=0.11
note_on channel=0 note=40 velocity=64 time=0.045
note_on channel=3 note=64 velocity=94 time=0
note_on channel=9 note=46 velocity=64 time=0
note_on channel=3 note=57 velocity=0 time=0.055
note_on channel=9 note=46 velocity=0 time=0.005
note_on channel=1 note=77 velocity=0 time=0.095
note_on channel=0 note=40 velocity=0 time=0.025
note_on channel=1 note=69 velocity=0 time=0.035
note_on channel=0 note=40 velocity=64 time=0.085
note_on channel=1 note=64 velocity=64 time=0
note_on channel=1 note=69 velocity=64 time=0
note_on channel=1 note=76 velocity=64 time=0
note_on channel=1 note=73 velocity=64 time=0
note_on channel=3 note=64 velocity=0 time=0
note_on channel=3 note=67 velocity=94 time=0
note_on channel=9 note=46 velocity=64 time=0
note_on channel=1 note=65 velocity=0 time=0.035
note_on channel=9 note=46 velocity=0 time=0.015
note_on channel=1 note=73 velocity=0 time=0.23500000000000001
note_on channel=1 note=76 velocity=0 time=0.005
note_on channel=3 note=69 velocity=94 time=0.01
note_on channel=9 note=38 velocity=64 time=0
note_on channel=3 note=67 velocity=0 time=0.015
note_on channel=1 note=69 velocity=0 time=0.02
note_on channel=1 note=64 velocity=0 time=0.005
note_on channel=9 note=38 velocity=0 time=0.07
note_on channel=0 note=40 velocity=0 time=0.01
note_on channel=1 note=59 velocity=64 time=0.03
note_on channel=1 note=60 velocity=64 time=0
note_on channel=1 note=59 velocity=0 time=0.1
note_on channel=1 note=60 velocity=0 time=0.015
note_on channel=3 note=69 velocity=0 time=0.005
note_on channel=0 note=38 velocity=64 time=0.03
note_on channel=1 note=74 velocity=64 time=0
note_on channel=1 note=69 velocity=64 time=0
note_on channel=1 note=62 velocity=64 time=0
note_on channel=3 note=70 velocity=94 time=0
note_on channel=9 note=46 velocity=64 time=0
note_on channel=9 note=46 velocity=0 time=0.045
note_on channel=0 note=38 velocity=0 time=0.165
note_on channel=0 note=38 velocity=64 time=0.09
note_on channel=1 note=65 velocity=64 time=0
note_on channel=9 note=46 velocity=64 time=0
note_on channel=1 note=69 velocity=0 time=0.01
note_on channel=9 note=46 velocity=0 time=0.04
note_on channel=3 note=70 velocity=0 time=0.245
note_on channel=1 note=69 velocity=64 time=0.005
note_on channel=3 note=69 velocity=94 time=0
note_on channel=9 note=38 velocity=64 time=0
note_on channel=9 note=38 velocity=0 time=0.095
note_on channel=0 note=38 velocity=0 time=0.025
note_on channel=1 note=74 velocity=0 time=0.01
note_on channel=1 note=65 velocity=0 time=0
note_on channel=1 note=69 velocity=0 time=0.06
note_on channel=1 note=62 velocity=0 time=0.01
note_on channel=0 note=33 velocity=64 time=0.1
note_on channel=1 note=65 velocity=64 time=0
note_on channel=1 note=76 velocity=64 time=0
note_on channel=1 note=64 velocity=64 time=0
note_on channel=1 note=69 velocity=64 time=0
note_on channel=9 note=46 velocity=64 time=0
note_on channel=9 note=46 velocity=0 time=0.055
note_on channel=1 note=76 velocity=0 time=0.125
note_on channel=0 note=33 velocity=0 time=0.02
note_on channel=1 note=64 velocity=0 time=0
note_on channel=1 note=69 velocity=0 time=0.005
note_on channel=1 note=65 velocity=0 time=0.005
note_on channel=0 note=33 velocity=64 time=0.09
note_on channel=1 note=64 velocity=64 time=0
note_on channel=1 note=76 velocity=64 time=0
note_on channel=1 note=65 velocity=64 time=0
note_on channel=1 note=69 velocity=64 time=0
note_on channel=9 note=46 velocity=64 time=0
note_on channel=9 note=46 velocity=0 time=0.05
note_on channel=9 note=38 velocity=64 time=0.25
note_on channel=9 note=38 velocity=0 time=0.09
note_on channel=0 note=33 velocity=0 time=0.06
note_on channel=3 note=69 velocity=0 time=0.025
note_on channel=0 note=38 velocity=64 time=0.125
note_on channel=9 note=46 velocity=64 time=0
note_on channel=9 note=46 velocity=0 time=0.055
note_on channel=1 note=76 velocity=0 time=0.1
note_on channel=1 note=69 velocity=0 time=0.015
note_on channel=0 note=38 velocity=0 time=0.03
note_on channel=1 note=65 velocity=0 time=0
note_on channel=1 note=64 velocity=0 time=0.02
note_on channel=0 note=38 velocity=64 time=0.08
note_on channel=1 note=62 velocity=64 time=0
note_on channel=1 note=74 velocity=64 time=0
note_on channel=1 note=69 velocity=64 time=0
note_on channel=3 note=69 velocity=94 time=0
note_on channel=9 note=46 velocity=64 time=0
note_on channel=9 note=46 velocity=0 time=0.05
note_on channel=1 note=65 velocity=64 time=0.25
note_on channel=3 note=74 velocity=94 time=0
note_on channel=9 note=38 velocity=64 time=0
note_on channel=1 note=69 velocity=0 time=0.025
note_on channel=3 note=69 velocity=0 time=0.01
note_on channel=9 note=38 velocity=0 time=0.065
note_on channel=0 note=38 velocity=0 time=0.085
note_on channel=0 note=33 velocity=64 time=0.115
note_on channel=1 note=69 velocity=64 time=0
note_on channel=9 note=46 velocity=64 time=0
note_on channel=1 note=74 velocity=0 time=0.035
note_on channel=9 note=46 velocity=0 time=0.025
note_on channel=1 note=62 velocity=0 time=0.005
note_on channel=0 note=33 velocity=0 time=0.155
note_on channel=1 note=65 velocity=0 time=0.025
note_on channel=0 note=33 velocity=64 time=0.055
note_on channel=1 note=65 velocity=64 time=0
note_on channel=1 note=62 velocity=64 time=0
note_on channel=1 note=74 velocity=64 time=0
note_on channel=9 note=46 velocity=64 time=0
note_on channel=9 note=46 velocity=0 time=0.05
note_on channel=1 note=69 velocity=0 time=0.06
note_on channel=1 note=65 velocity=0 time=0.005
note_on channel=1 note=74 velocity=0 time=0.06
note_on channel=1 note=62 velocity=0 time=0.045
note_on channel=1 note=75 velocity=64 time=0.08
note_on channel=1 note=63 velocity=64 time=0
note_on channel=3 note=73 velocity=94 time=0
note_on channel=9 note=38 velocity=64 time=0
note_on channel=3 note=74 velocity=0 time=0.02
note_on channel=0 note=33 velocity=0 time=0.055
note_on channel=9 note=38 velocity=0 time=0.035
note_on channel=1 note=63 velocity=0 time=0.075
note_on channel=1 note=75 velocity=0 time=0
note_on channel=0 note=33 velocity=64 time=0.115
note_on channel=1 note=73 velocity=64 time=0
note_on channel=1 note=76 velocity=64 time=0
note_on channel=1 note=64 velocity=64 time=0
note_on channel=3 note=69 velocity=94 time=0
note_on channel=9 note=46 velocity=64 time=0
note_on channel=3 note=73 velocity=0 time=0.01
note_on channel=9 note=46 velocity=0 time=0.035
note_on channel=0 note=33 velocity=0 time=0.17
note_on channel=0 note=33 velocity=64 time=0.085
note_on channel=1 note=69 velocity=64 time=0
note_on channel=9 note=46 velocity=64 time=0
note_on channel=9 note=46 velocity=0 time=0.05
note_on channel=1 note=73 velocity=0 time=0.01
note_on channel=1 note=73 velocity=64 time=0.24
note_on channel=3 note=67 velocity=94 time=0
note_on channel=9 note=38 velocity=64 time=0
note_on channel=3 note=69 velocity=0 time=0.03
note_on channel=9 note=38 velocity=0 time=0.07
note_on channel=1 note=76 velocity=0 time=0.025
note_on channel=0 note=33 velocity=0 time=0.015
note_on channel=1 note=69 velocity=0 time=0.015
note_on channel=1 note=73 velocity=0 time=0.015
note_on channel=1 note=64 velocity=0 time=0.03
note_on channel=0 note=40 velocity=64 time=0.1
note_on channel=1 note=77 velocity=64 time=0
note_on channel=1 note=69 velocity=64 time=0
note_on channel=1 note=65 velocity=64 time=0
note_on channel=9 note=46 velocity=64 time=0
note_on channel=9 note=46 velocity=0 time=0.05
note_on channel=1 note=65 velocity=0 time=0.12
note_on channel=1 note=77 velocity=0 time=0.02
note_on channel=0 note=40 velocity=0 time=0.005
note_on channel=1 note=69 velocity=0 time=0.055
note_on channel=0 note=40 velocity=64 time=0.05
note_on channel=1 note=65 velocity=64 time=0
note_on channel=1 note=77 velocity=64 time=0
note_on channel=1 note=69 velocity=64 time=0
note_on channel=9 note=46 velocity=64 time=0
note_on channel=9 note=46 velocity=0 time=0.05
note_on channel=9 note=38 velocity=64 time=0.25
note_on channel=9 note=38 velocity=0 time=0.1
note_on channel=0 note=40 velocity=0 time=0.02
note_on channel=3 note=67 velocity=0 time=0.07
note_on channel=0 note=33 velocity=64 time=0.11
note_on channel=9 note=46 velocity=64 time=0
note_on channel=9 note=46 velocity=0 time=0.06
note_on channel=0 note=33 velocity=0 time=0.13
note_on channel=1 note=77 velocity=0 time=0
note_on channel=1 note=69 velocity=0 time=0.035
note_on channel=1 note=65 velocity=0 time=0
note_on channel=0 note=33 velocity=64 time=0.075
note_on channel=1 note=64 velocity=64 time=0
note_on channel=1 note=76 velocity=64 time=0
note_on channel=1 note=73 velocity=64 time=0
note_on channel=1 note=69 velocity=64 time=0
note_on channel=3 note=69 velocity=94 time=0
note_on channel=9 note=46 velocity=64 time=0
note_on channel=9 note=46 velocity=0 time=0.055
note_on channel=1 note=76 velocity=0 time=0.135
note_on channel=1 note=69 velocity=0 time=0.005
note_on channel=1 note=73 velocity=0 time=0.005
note_on channel=1 note=64 velocity=0 time=0.075
note_on channel=3 note=69 velocity=0 time=0.02
note_on channel=1 note=69 velocity=64 time=0.005
note_on channel=1 note=77 velocity=64 time=0
note_on channel=1 note=65 velocity=64 time=0
note_on channel=3 note=76 velocity=94 time=0
note_on channel=9 note=38 velocity=64 time=0
note_on channel=9 note=38 velocity=0 time=0.115
note_on channel=0 note=33 velocity=0 time=0.025
note_on channel=0 note=40 velocity=64 time=0.16
note_on channel=1 note=76 velocity=64 time=0
note_on channel=1 note=64 velocity=64 time=0
note_on channel=9 note=46 velocity=64 time=0
note_on channel=9 note=46 velocity=0 time=0.055
note_on channel=1 note=77 velocity=0 time=0.005
note_on channel=1 note=65 velocity=0 time=0.03
note_on channel=0 note=40 velocity=0 time=0.12
note_on channel=0 note=40 velocity=64 time=0.09
note_on channel=1 note=73 velocity=64 time=0
note_on channel=9 note=46 velocity=64 time=0
note_on channel=1 note=69 velocity=0 time=0.045
note_on channel=9 note=46 velocity=0 time=0
note_on channel=1 note=76 velocity=0 time=0.225
note_on channel=1 note=69 velocity=64 time=0.03
note_on channel=3 note=76 velocity=0 time=0
note_on channel=3 note=73 velocity=94 time=0
note_on channel=9 note=38 velocity=64 time=0
note_on channel=1 note=64 velocity=0 time=0.015
note_on channel=1 note=73 velocity=0 time=0.065
note_on channel=0 note=40 velocity=0 time=0.005
note_on channel=9 note=38 velocity=0 time=0.03
note_on channel=1 note=69 velocity=0 time=0.02
note_on channel=1 note=60 velocity=64 time=0.015
note_on channel=1 note=60 velocity=0 time=0.085
note_on channel=3 note=73 velocity=0 time=0.02
note_on channel=0 note=38 velocity=64 time=0.045
note_on channel=1 note=62 velocity=64 time=0
note_on channel=1 note=74 velocity=64 time=0
note_on channel=3 note=74 velocity=94 time=0
note_on channel=9 note=46 velocity=64 time=0
note_on channel=9 note=46 velocity=0 time=0.05
note_on channel=0 note=38 velocity=0 time=0.17
note_on channel=0 note=38 velocity=64 time=0.08
note_on channel=1 note=69 velocity=64 time=0
note_on channel=9 note=46 velocity=64 time=0
note_on channel=9 note=46 velocity=0 time=0.055
note_on channel=1 note=74 velocity=0 time=0.21
note_on channel=1 note=69 velocity=0 time=0.01
note_on channel=1 note=65 velocity=64 time=0.025
note_on channel=9 note=38 velocity=64 time=0
note_on channel=0 note=38 velocity=0 time=0.115
note_on channel=9 note=38 velocity=0 time=0.015
note_on channel=1 note=65 velocity=0 time=0.1
note_on channel=0 note=33 velocity=64 time=0.07
note_on channel=1 note=65 velocity=64 time=0
note_on channel=1 note=76 velocity=64 time=0
note_on channel=9 note=46 velocity=64 time=0
note_on channel=9 note=46 velocity=0 time=0.065
note_on channel=0 note=33 velocity=0 time=0.145
note_on channel=0 note=33 velocity=64 time=0.09
note_on channel=1 note=74 velocity=64 time=0
note_on channel=9 note=46 velocity=64 time=0
note_on channel=1 note=76 velocity=0 time=0.045
note_on channel=9 note=46 velocity=0 time=0.005
note_on channel=1 note=65 velocity=0 time=0.1
note_on channel=1 note=69 velocity=64 time=0.15
note_on channel=9 note=38 velocity=64 time=0
note_on channel=3 note=74 velocity=0 time=0.02
note_on channel=0 note=33 velocity=0 time=0.07
note_on channel=1 note=62 velocity=0 time=0.02
note_on channel=1 note=69 velocity=0 time=0.015
note_on channel=1 note=59 velocity=64 time=0.025
note_on channel=1 note=60 velocity=64 time=0
note_on channel=9 note=38 velocity=0 time=0.005
note_on channel=1 note=74 velocity=0 time=0.02
note_on channel=1 note=59 velocity=0 time=0.1
note_on channel=1 note=60 velocity=0 time=0.005
note_on channel=0 note=38 velocity=64 time=0.02
note_on channel=1 note=62 velocity=64 time=0
note_on channel=1 note=74 velocity=64 time=0
note_on channel=1 note=69 velocity=64 time=0
note_on channel=9 note=46 velocity=64 time=0
note_on channel=9 note=46 velocity=0 time=0.04
note_on channel=1 note=66 velocity=64 time=0.26
note_on channel=1 note=69 velocity=0 time=0.03
note_on channel=1 note=74 velocity=0 time=0.16
note_on channel=1 note=66 velocity=0 time=0.01
note_on channel=0 note=38 velocity=0 time=0.015
note_on channel=0 note=40 velocity=64 time=0.085
note_on channel=1 note=66 velocity=64 time=0
note_on channel=1 note=69 velocity=64 time=0
note_on channel=1 note=76 velocity=64 time=0
note_on channel=9 note=46 velocity=64 time=0
note_on channel=9 note=46 velocity=0 time=0.045
note_on channel=1 note=76 velocity=0 time=0.39
note_on channel=0 note=40 velocity=0 time=0.06
note_on channel=1 note=69 velocity=0 time=0
note_on channel=1 note=66 velocity=0 time=0.025
note_on channel=0 note=42 velocity=64 time=0.08
note_on channel=1 note=66 velocity=64 time=0
note_on channel=1 note=74 velocity=64 time=0
note_on channel=1 note=69 velocity=64 time=0
note_on channel=9 note=46 velocity=64 time=0
note_on channel=9 note=46 velocity=0 time=0.06
note_on channel=2 note=62 velocity=64 time=0.24
note_on channel=2 note=58 velocity=64 time=0
note_on channel=1 note=66 velocity=0 time=0.025
note_on channel=2 note=58 velocity=0 time=0.13
note_on channel=1 note=69 velocity=0 time=0.005
note_on channel=0 note=42 velocity=0 time=0.02
note_on channel=1 note=74 velocity=0 time=0.01
note_on channel=1 note=62 velocity=0 time=0.005
note_on channel=2 note=62 velocity=0 time=0.04
note_on channel=0 note=43 velocity=64 time=0.065
note_on channel=1 note=62 velocity=64 time=0
note_on channel=1 note=70 velocity=64 time=0
note_on channel=1 note=74 velocity=64 time=0
note_on channel=2 note=70 velocity=64 time=0
note_on channel=2 note=67 velocity=64 time=0
note_on channel=9 note=46 velocity=64 time=0
note_on channel=9 note=46 velocity=0 time=0.05
note_on channel=2 note=67 velocity=0 time=0.15
note_on channel=2 note=70 velocity=0 time=0.04
note_on channel=0 note=43 velocity=0 time=0.015
note_on channel=0 note=43 velocity=64 time=0.045
note_on channel=1 note=67 velocity=64 time=0
note_on channel=2 note=70 velocity=64 time=0
note_on channel=2 note=67 velocity=64 time=0
note_on channel=9 note=46 velocity=64 time=0
note_on channel=9 note=46 velocity=0 time=0.05
note_on channel=1 note=70 velocity=0 time=0.01
note_on channel=2 note=67 velocity=0 time=0.14
note_on channel=2 note=70 velocity=0 time=0.025
note_on channel=1 note=70 velocity=64 time=0.075
note_on channel=2 note=70 velocity=64 time=0
note_on channel=2 note=67 velocity=64 time=0
note_on channel=9 note=38 velocity=64 time=0
note_on channel=9 note=38 velocity=0 time=0.085
note_on channel=0 note=43 velocity=0 time=0.07
note_on channel=1 note=67 velocity=0 time=0.005
note_on channel=1 note=70 velocity=0 time=0.02
note_on channel=1 note=74 velocity=0 time=0.005
note_on channel=2 note=67 velocity=0 time=0.03
note_on channel=1 note=62 velocity=0 time=0.005
note_on channel=2 note=70 velocity=0 time=0.035
note_on channel=0 note=38 velocity=64 time=0.045
note_on channel=1 note=67 velocity=64 time=0
note_on channel=1 note=76 velocity=64 time=0
note_on channel=1 note=64 velocity=64 time=0
note_on channel=2 note=69 velocity=64 time=0
note_on channel=2 note=66 velocity=64 time=0
note_on channel=9 note=46 velocity=64 time=0
note_on channel=9 note=46 velocity=0 time=0.04
note_on channel=1 note=64 velocity=0 time=0.13
note_on channel=1 note=76 velocity=0 time=0
note_on channel=2 note=66 velocity=0 time=0.025
note_on channel=0 note=38 velocity=0 time=0.01
note_on channel=1 note=67 velocity=0 time=0.005
note_on channel=2 note=69 velocity=0 time=0.04
note_on channel=0 note=38 velocity=64 time=0.05
note_on channel=1 note=64 velocity=64 time=0
note_on channel=1 note=76 velocity=64 time=0
note_on channel=1 note=67 velocity=64 time=0
note_on channel=2 note=72 velocity=64 time=0
note_on channel=2 note=69 velocity=64 time=0
note_on channel=9 note=46 velocity=64 time=0
note_on channel=9 note=46 velocity=0 time=0.05
note_on channel=2 note=69 velocity=0 time=0.15
note_on channel=2 note=70 velocity=64 time=0.1
note_on channel=2 note=67 velocity=64 time=0
note_on channel=9 note=38 velocity=64 time=0
note_on channel=2 note=72 velocity=0 time=0.045
note_on channel=9 note=38 velocity=0 time=0.035
note_on channel=0 note=38 velocity=0 time=0.035
note_on channel=2 note=70 velocity=0 time=0.055
note_on channel=2 note=67 velocity=0 time=0.12
note_on channel=0 note=43 velocity=64 time=0.01
note_on channel=9 note=46 velocity=64 time=0
note_on channel=9 note=46 velocity=0 time=0.05
note_on channel=1 note=76 velocity=0 time=0.02
note_on channel=1 note=67 velocity=0 time=0.01
note_on channel=1 note=64 velocity=0 time=0.05
note_on channel=0 note=43 velocity=0 time=0.075
note_on channel=0 note=43 velocity=64 time=0.095
note_on channel=1 note=62 velocity=64 time=0
note_on channel=1 note=67 velocity=64 time=0
note_on channel=1 note=70 velocity=64 time=0
note_on channel=1 note=74 velocity=64 time=0
note_on channel=2 note=70 velocity=64 time=0
note_on channel=2 note=67 velocity=64 time=0
note_on channel=9 note=46 velocity=64 time=0
note_on channel=9 note=46 velocity=0 time=0.045
note_on channel=1 note=70 velocity=0 time=0.16
note_on channel=2 note=70 velocity=0 time=0.005
note_on channel=2 note=67 velocity=0 time=0.005
note_on channel=1 note=74 velocity=0 time=0.005
note_on channel=1 note=67 velocity=0 time=0
note_on channel=1 note=62 velocity=0 time=0.055
note_on channel=1 note=64 velocity=64 time=0.025
note_on channel=1 note=67 velocity=64 time=0
note_on channel=1 note=76 velocity=64 time=0
note_on channel=2 note=70 velocity=64 time=0
note_on channel=2 note=76 velocity=64 time=0
note_on channel=9 note=38 velocity=64 time=0
note_on channel=9 note=38 velocity=0 time=0.095
note_on channel=0 note=43 velocity=0 time=0.115
note_on channel=0 note=38 velocity=64 time=0.09
note_on channel=9 note=46 velocity=64 time=0
note_on channel=9 note=46 velocity=0 time=0.045
note_on channel=1 note=76 velocity=0 time=0.145
note_on channel=0 note=38 velocity=0 time=0.015
note_on channel=1 note=64 velocity=0 time=0.01
note_on channel=1 note=67 velocity=0 time=0.01
note_on channel=0 note=38 velocity=64 time=0.075
note_on channel=1 note=62 velocity=64 time=0
note_on channel=1 note=70 velocity=64 time=0
note_on channel=1 note=74 velocity=64 time=0
note_on channel=1 note=67 velocity=64 time=0
note_on channel=9 note=46 velocity=64 time=0
note_on channel=9 note=46 velocity=0 time=0.055
note_on channel=2 note=70 velocity=0 time=0.125
note_on channel=1 note=67 velocity=0 time=0.025
note_on channel=1 note=70 velocity=0 time=0.005
note_on channel=1 note=74 velocity=0 time=0.03
note_on channel=2 note=76 velocity=0 time=0.02
note_on channel=1 note=64 velocity=64 time=0.04
note_on channel=1 note=67 velocity=64 time=0
note_on channel=1 note=76 velocity=64 time=0
note_on channel=1 note=70 velocity=64 time=0
note_on channel=2 note=70 velocity=64 time=0
note_on channel=2 note=74 velocity=64 time=0
note_on channel=9 note=38 velocity=64 time=0
note_on channel=1 note=62 velocity=0 time=0.01
note_on channel=0 note=38 velocity=0 time=0.07
note_on channel=9 note=38 velocity=0 time=0.015
note_on channel=1 note=70 velocity=0 time=0.015
note_on channel=1 note=76 velocity=0 time=0.08
note_on channel=1 note=67 velocity=0 time=0.03
note_on channel=1 note=64 velocity=0 time=0.005
note_on channel=2 note=70 velocity=0 time=0.025
note_on channel=2 note=74 velocity=0 time=0.045
note_on channel=0 note=38 velocity=64 time=0.005
note_on channel=1 note=74 velocity=64 time=0
note_on channel=1 note=62 velocity=64 time=0
note_on channel=1 note=69 velocity=64 time=0
note_on channel=2 note=65 velocity=64 time=0
note_on channel=2 note=69 velocity=64 time=0
note_on channel=9 note=46 velocity=64 time=0
note_on channel=9 note=46 velocity=0 time=0.045
note_on channel=2 note=69 velocity=0 time=0.16
note_on channel=2 note=65 velocity=0 time=0.01
note_on channel=0 note=38 velocity=0 time=0.015
note_on channel=0 note=38 velocity=64 time=0.07
note_on channel=1 note=65 velocity=64 time=0
note_on channel=2 note=65 velocity=64 time=0
note_on channel=2 note=69 velocity=64 time=0
note_on channel=9 note=46 velocity=64 time=0
note_on channel=1 note=69 velocity=0 time=0.01
note_on channel=9 note=46 velocity=0 time=0.035
note_on channel=2 note=69 velocity=0 time=0.17
note_on channel=2 note=65 velocity=0 time=0.005
note_on channel=1 note=69 velocity=64 time=0.08
note_on channel=2 note=65 velocity=64 time=0
note_on channel=2 note=69 velocity=64 time=0
note_on channel=9 note=38 velocity=64 time=0
note_on channel=9 note=38 velocity=0 time=0.095
note_on channel=1 note=74 velocity=0 time=0.05
note_on channel=1 note=65 velocity=0 time=0.005
note_on channel=1 note=69 velocity=0 time=0.02
note_on channel=0 note=38 velocity=0 time=0.01
note_on channel=2 note=69 velocity=0 time=0
note_on channel=1 note=62 velocity=0 time=0.015
note_on channel=2 note=65 velocity=0 time=0.045
note_on channel=0 note=33 velocity=64 time=0.06
note_on channel=1 note=64 velocity=64 time=0
note_on channel=1 note=69 velocity=64 time=0
note_on channel=1 note=76 velocity=64 time=0
note_on channel=1 note=65 velocity=64 time=0
note_on channel=2 note=64 velocity=64 time=0
note_on channel=2 note=67 velocity=64 time=0
note_on channel=9 note=46 velocity=64 time=0
note_on channel=9 note=46 velocity=0 time=0.05
note_on channel=1 note=76 velocity=0 time=0.1
note_on channel=1 note=69 velocity=0 time=0.035
note_on channel=1 note=65 velocity=0 time=0.005
note_on channel=1 note=64 velocity=0 time=0.005
note_on channel=0 note=33 velocity=0 time=0.005
note_on channel=2 note=67 velocity=0 time=0.025
note_on channel=2 note=64 velocity=0 time=0.025
note_on channel=0 note=33 velocity=64 time=0.05
note_on channel=1 note=64 velocity=64 time=0
note_on channel=1 note=76 velocity=64 time=0
note_on channel=1 note=65 velocity=64 time=0
note_on channel=1 note=69 velocity=64 time=0
note_on channel=2 note=67 velocity=64 time=0
note_on channel=2 note=70 velocity=64 time=0
note_on channel=9 note=46 velocity=64 time=0
note_on channel=9 note=46 velocity=0 time=0.055
note_on channel=1 note=69 velocity=0 time=0.045
note_on channel=1 note=65 velocity=0 time=0.11
note_on channel=2 note=67 velocity=0 time=0.04
note_on channel=2 note=70 velocity=0 time=0.04
note_on channel=2 note=65 velocity=64 time=0.01
note_on channel=2 note=69 velocity=64 time=0
note_on channel=9 note=38 velocity=64 time=0
note_on channel=1 note=76 velocity=0 time=0.1
note_on channel=9 note=38 velocity=0 time=0
note_on channel=0 note=33 velocity=0 time=0.055
note_on channel=1 note=64 velocity=0 time=0.045
note_on channel=2 note=69 velocity=0 time=0.015
note_on channel=2 note=65 velocity=0 time=0.05
note_on channel=0 note=38 velocity=64 time=0.035
note_on channel=1 note=74 velocity=64 time=0
note_on channel=1 note=69 velocity=64 time=0
note_on channel=1 note=62 velocity=64 time=0
note_on channel=9 note=46 velocity=64 time=0
note_on channel=9 note=46 velocity=0 time=0.055
note_on channel=0 note=38 velocity=0 time=0.13
note_on channel=1 note=69 velocity=0 time=0.105
note_on channel=0 note=38 velocity=64 time=0.01
note_on channel=1 note=65 velocity=64 time=0
note_on channel=2 note=69 velocity=64 time=0
note_on channel=2 note=65 velocity=64 time=0
note_on channel=9 note=46 velocity=64 time=0
note_on channel=9 note=46 velocity=0 time=0.05
note_on channel=2 note=65 velocity=0 time=0.13
note_on channel=1 note=69 velocity=64 time=0.12
note_on channel=2 note=74 velocity=64 time=0
note_on channel=2 note=69 velocity=64 time=0
note_on channel=9 note=38 velocity=64 time=0
note_on channel=2 note=69 velocity=0 time=0.03
note_on channel=1 note=74 velocity=0 time=0.06
note_on channel=9 note=38 velocity=0 time=0
note_on channel=1 note=65 velocity=0 time=0.07
note_on channel=0 note=38 velocity=0 time=0.03
note_on channel=1 note=69 velocity=0 time=0.045
note_on channel=0 note=33 velocity=64 time=0.065
note_on channel=1 note=76 velocity=64 time=0
note_on channel=1 note=69 velocity=64 time=0
note_on channel=1 note=65 velocity=64 time=0
note_on channel=9 note=46 velocity=64 time=0
note_on channel=9 note=46 velocity=0 time=0.045
note_on channel=1 note=65 velocity=0 time=0.06
note_on channel=1 note=69 velocity=0 time=0.055
note_on channel=1 note=62 velocity=0 time=0.01
note_on channel=0 note=33 velocity=0 time=0.025
note_on channel=1 note=76 velocity=0 time=0.01
note_on channel=0 note=33 velocity=64 time=0.095
note_on channel=1 note=62 velocity=64 time=0
note_on channel=1 note=74 velocity=64 time=0
note_on channel=1 note=69 velocity=64 time=0
note_on channel=9 note=46 velocity=64 time=0
note_on channel=9 note=46 velocity=0 time=0.05
note_on channel=1 note=69 velocity=0 time=0.02
note_on channel=1 note=74 velocity=0 time=0.12
note_on channel=1 note=62 velocity=0 time=0.045
note_on channel=2 note=69 velocity=0 time=0.04
note_on channel=1 note=63 velocity=64 time=0.025
note_on channel=1 note=75 velocity=64 time=0
note_on channel=2 note=73 velocity=64 time=0
note_on channel=2 note=69 velocity=64 time=0
note_on channel=9 note=38 velocity=64 time=0
note_on channel=2 note=74 velocity=0 time=0.06
note_on channel=0 note=33 velocity=0 time=0.03
note_on channel=9 note=38 velocity=0 time=0.01
note_on channel=1 note=75 velocity=0 time=0.07
note_on channel=1 note=63 velocity=0 time=0.055
note_on channel=2 note=69 velocity=0 time=0.015
note_on channel=0 note=33 velocity=64 time=0.06
note_on channel=1 note=73 velocity=64 time=0
note_on channel=1 note=76 velocity=64 time=0
note_on channel=1 note=64 velocity=64 time=0
note_on channel=2 note=69 velocity=64 time=0
note_on channel=2 note=65 velocity=64 time=0
note_on channel=9 note=46 velocity=64 time=0
note_on channel=2 note=73 velocity=0 time=0.045
note_on channel=9 note=46 velocity=0 time=0.01
note_on channel=0 note=33 velocity=0 time=0.135
note_on channel=2 note=65 velocity=0 time=0.055
note_on channel=0 note=33 velocity=64 time=0.055
note_on channel=1 note=69 velocity=64 time=0
note_on channel=2 note=67 velocity=64 time=0
note_on channel=2 note=64 velocity=64 time=0
note_on channel=9 note=46 velocity=64 time=0
note_on channel=2 note=69 velocity=0 time=0.035
note_on channel=9 note=46 velocity=0 time=0.01
note_on channel=1 note=73 velocity=0 time=0.03
note_on channel=2 note=64 velocity=0 time=0.1
note_on channel=2 note=67 velocity=0 time=0.05
note_on channel=1 note=73 velocity=64 time=0.075
note_on channel=2 note=67 velocity=64 time=0
note_on channel=2 note=64 velocity=64 time=0
note_on channel=9 note=38 velocity=64 time=0
note_on channel=9 note=38 velocity=0 time=0.095
note_on channel=1 note=76 velocity=0 time=0.035
note_on channel=0 note=33 velocity=0 time=0.005
note_on channel=1 note=69 velocity=0 time=0.015
note_on channel=1 note=73 velocity=0 time=0.03
note_on channel=1 note=64 velocity=0 time=0.02
note_on channel=2 note=64 velocity=0 time=0
note_on channel=0 note=40 velocity=64 time=0.1
note_on channel=1 note=69 velocity=64 time=0
note_on channel=1 note=77 velocity=64 time=0
note_on channel=1 note=65 velocity=64 time=0
note_on channel=2 note=66 velocity=64 time=0
note_on channel=2 note=62 velocity=64 time=0
note_on channel=9 note=46 velocity=64 time=0
note_on channel=2 note=67 velocity=0 time=0.01
note_on channel=9 note=46 velocity=0 time=0.035
note_on channel=1 note=65 velocity=0 time=0.13
note_on channel=0 note=40 velocity=0 time=0.01
note_on channel=1 note=77 velocity=0 time=0
note_on channel=2 note=62 velocity=0 time=0.035
note_on channel=1 note=69 velocity=0 time=0.01
note_on channel=2 note=66 velocity=0 time=0.01
note_on channel=0 note=40 velocity=64 time=0.06
note_on channel=1 note=65 velocity=64 time=0
note_on channel=1 note=77 velocity=64 time=0
note_on channel=1 note=69 velocity=64 time=0
note_on channel=2 note=69 velocity=64 time=0
note_on channel=2 note=65 velocity=64 time=0
note_on channel=9 note=46 velocity=64 time=0
note_on channel=9 note=46 velocity=0 time=0.05
note_on channel=2 note=65 velocity=0 time=0.16
note_on channel=2 note=69 velocity=0 time=0.075
note_on channel=2 note=67 velocity=64 time=0.015
note_on channel=2 note=64 velocity=64 time=0
note_on channel=9 note=38 velocity=64 time=0
note_on channel=9 note=38 velocity=0 time=0.09
note_on channel=0 note=40 velocity=0 time=0.05
note_on channel=2 note=67 velocity=0 time=0.14
note_on channel=2 note=64 velocity=0 time=0.005
note_on channel=0 note=33 velocity=64 time=0.015
note_on channel=9 note=46 velocity=64 time=0
note_on channel=1 note=77 velocity=0 time=0.025
note_on channel=9 note=46 velocity=0 time=0.015
note_on channel=1 note=69 velocity=0 time=0.015
note_on channel=1 note=65 velocity=0 time=0.035
note_on channel=0 note=33 velocity=0 time=0.095
note_on channel=0 note=33 velocity=64 time=0.115
note_on channel=1 note=64 velocity=64 time=0
note_on channel=1 note=76 velocity=64 time=0
note_on channel=1 note=69 velocity=64 time=0
note_on channel=1 note=73 velocity=64 time=0
note_on channel=2 note=73 velocity=64 time=0
note_on channel=2 note=76 velocity=64 time=0
note_on channel=9 note=46 velocity=64 time=0
note_on channel=9 note=46 velocity=0 time=0.045
note_on channel=1 note=73 velocity=0 time=0.15
note_on channel=1 note=76 velocity=0 time=0
note_on channel=1 note=69 velocity=0 time=0.035
note_on channel=1 note=69 velocity=64 time=0.07
note_on channel=1 note=77 velocity=64 time=0
note_on channel=1 note=65 velocity=64 time=0
note_on channel=9 note=38 velocity=64 time=0
note_on channel=1 note=64 velocity=0 time=0.02
note_on channel=2 note=73 velocity=0 time=0.05
note_on channel=9 note=38 velocity=0 time=0.025
note_on channel=0 note=33 velocity=0 time=0.065
note_on channel=2 note=76 velocity=0 time=0.04
note_on channel=0 note=40 velocity=64 time=0.1
note_on channel=0 note=33 velocity=64 time=0
note_on channel=2 note=67 velocity=64 time=0
note_on channel=2 note=73 velocity=64 time=0
note_on channel=9 note=46 velocity=64 time=0
note_on channel=0 note=33 velocity=0 time=0.055
note_on channel=9 note=46 velocity=0 time=0
note_on channel=1 note=77 velocity=0 time=0.1
note_on channel=0 note=40 velocity=0 time=0.03
note_on channel=1 note=69 velocity=0 time=0
note_on channel=0 note=40 velocity=64 time=0.115
note_on channel=1 note=64 velocity=64 time=0
note_on channel=1 note=76 velocity=64 time=0
note_on channel=1 note=69 velocity=64 time=0
note_on channel=1 note=73 velocity=64 time=0
note_on channel=9 note=46 velocity=64 time=0
note_on channel=1 note=65 velocity=0 time=0.015
note_on channel=9 note=46 velocity=0 time=0.035
note_on channel=2 note=67 velocity=0 time=0.09
note_on channel=2 note=73 velocity=0 time=0.025
note_on channel=1 note=73 velocity=0 time=0.065
note_on channel=1 note=76 velocity=0 time=0.02
note_on channel=1 note=69 velocity=0 time=0.01
note_on channel=2 note=64 velocity=64 time=0.04
note_on channel=2 note=67 velocity=64 time=0
note_on channel=9 note=38 velocity=64 time=0
note_on channel=1 note=64 velocity=0 time=0.02
note_on channel=9 note=38 velocity=0 time=0.095
note_on channel=0 note=40 velocity=0 time=0.015
note_on channel=1 note=59 velocity=64 time=0.02
note_on channel=1 note=60 velocity=64 time=0
note_on channel=2 note=64 velocity=0 time=0.035
note_on channel=1 note=59 velocity=0 time=0.045
note_on channel=2 note=67 velocity=0 time=0.01
note_on channel=1 note=60 velocity=0 time=0.005
note_on channel=0 note=38 velocity=64 time=0.055
note_on channel=1 note=62 velocity=64 time=0
note_on channel=1 note=74 velocity=64 time=0
note_on channel=1 note=69 velocity=64 time=0
note_on channel=2 note=62 velocity=64 time=0
note_on channel=2 note=65 velocity=64 time=0
note_on channel=9 note=46 velocity=64 time=0
note_on channel=9 note=46 velocity=0 time=0.05
note_on channel=0 note=38 velocity=0 time=0.16
note_on channel=1 note=69 velocity=0 time=0.08
note_on channel=0 note=38 velocity=64 time=0.01
note_on channel=1 note=65 velocity=64 time=0
note_on channel=9 note=46 velocity=64 time=0
note_on channel=9 note=46 velocity=0 time=0.05
note_on channel=1 note=74 velocity=0 time=0.12
note_on channel=1 note=65 velocity=0 time=0.09
note_on channel=1 note=65 velocity=64 time=0.04
note_on channel=1 note=69 velocity=64 time=0
note_on channel=9 note=38 velocity=64 time=0
note_on channel=9 note=38 velocity=0 time=0.105
note_on channel=0 note=38 velocity=0 time=0.06
note_on channel=1 note=65 velocity=0 time=0.015
note_on channel=1 note=69 velocity=0 time=0.03
note_on channel=0 note=33 velocity=64 time=0.09
note_on channel=1 note=76 velocity=64 time=0
note_on channel=1 note=65 velocity=64 time=0
note_on channel=9 note=46 velocity=64 time=0
note_on channel=9 note=46 velocity=0 time=0.05
note_on channel=0 note=33 velocity=0 time=0.145
note_on channel=0 note=33 velocity=64 time=0.105
note_on channel=1 note=74 velocity=64 time=0
note_on channel=9 note=46 velocity=64 time=0
note_on channel=1 note=76 velocity=0 time=0.05
note_on channel=9 note=46 velocity=0 time=0.005
note_on channel=1 note=65 velocity=0 time=0.04
note_on channel=2 note=65 velocity=0 time=0
note_on channel=2 note=62 velocity=0 time=0.005
note_on channel=1 note=62 velocity=0 time=0.09
note_on channel=1 note=69 velocity=64 time=0.11
note_on channel=1 note=59 velocity=64 time=0
note_on channel=9 note=38 velocity=64 time=0
note_on channel=1 note=74 velocity=0 time=0.11
note_on channel=1 note=69 velocity=0 time=0.02
note_on channel=9 note=38 velocity=0 time=0.005
note_on channel=1 note=60 velocity=64 time=0.015
note_on channel=0 note=33 velocity=0 time=0.005
note_on channel=1 note=59 velocity=0 time=0
note_on channel=1 note=60 velocity=0 time=0.08
note_on channel=0 note=38 velocity=64 time=0.065
note_on channel=1 note=62 velocity=64 time=0
note_on channel=1 note=74 velocity=64 time=0
note_on channel=1 note=69 velocity=64 time=0
note_on channel=1 note=66 velocity=64 time=0
note_on channel=9 note=46 velocity=64 time=0
note_on channel=9 note=46 velocity=0 time=0.055
note_on channel=0 note=38 velocity=0 time=0.445
note_on channel=1 note=66 velocity=0 time=0.015
note_on channel=1 note=74 velocity=0 time=0.035
note_on channel=1 note=69 velocity=0 time=0.01
note_on channel=0 note=40 velocity=64 time=0.04
note_on channel=1 note=76 velocity=64 time=0
note_on channel=1 note=69 velocity=64 time=0
note_on channel=1 note=66 velocity=64 time=0
note_on channel=9 note=46 velocity=64 time=0
note_on channel=9 note=46 velocity=0 time=0.055
note_on channel=1 note=69 velocity=0 time=0.185
note_on channel=0 note=40 velocity=0 time=0.245
note_on channel=1 note=76 velocity=0 time=0.015
note_on channel=1 note=66 velocity=0 time=0.02
note_on channel=0 note=42 velocity=64 time=0.08
note_on channel=1 note=74 velocity=64 time=0
note_on channel=1 note=69 velocity=64 time=0
note_on channel=9 note=46 velocity=64 time=0
note_on channel=9 note=46 velocity=0 time=0.05
note_on channel=1 note=66 velocity=64 time=0.25
note_on channel=2 note=62 velocity=64 time=0
note_on channel=2 note=58 velocity=64 time=0
note_on channel=1 note=69 velocity=0 time=0.09
note_on channel=1 note=62 velocity=0 time=0.025
note_on channel=1 note=66 velocity=0 time=0.06
note_on channel=1 note=74 velocity=0 time=0.04
note_on channel=0 note=42 velocity=0 time=0.005
note_on channel=2 note=62 velocity=0 time=0
note_on channel=2 note=58 velocity=0 time=0.05
note_on channel=0 note=43 velocity=64 time=0.03
note_on channel=1 note=62 velocity=64 time=0
note_on channel=1 note=70 velocity=64 time=0
note_on channel=1 note=74 velocity=64 time=0
note_on channel=2 note=70 velocity=64 time=0
note_on channel=2 note=67 velocity=64 time=0
note_on channel=9 note=46 velocity=64 time=0
note_on channel=9 note=46 velocity=0 time=0.055
note_on channel=0 note=43 velocity=0 time=0.15
note_on channel=2 note=67 velocity=0 time=0.01
note_on channel=2 note=70 velocity=0 time=0.045
note_on channel=0 note=43 velocity=64 time=0.04
note_on channel=1 note=67 velocity=64 time=0
note_on channel=2 note=70 velocity=64 time=0
note_on channel=2 note=67 velocity=64 time=0
note_on channel=9 note=46 velocity=64 time=0
note_on channel=9 note=46 velocity=0 time=0.045
note_on channel=1 note=70 velocity=0 time=0.055
note_on channel=1 note=74 velocity=0 time=0.1
note_on channel=2 note=70 velocity=0 time=0.025
note_on channel=2 note=67 velocity=0 time=0.01
note_on channel=1 note=70 velocity=64 time=0.065
note_on channel=2 note=70 velocity=64 time=0
note_on channel=2 note=67 velocity=64 time=0
note_on channel=9 note=38 velocity=64 time=0
note_on channel=9 note=38 velocity=0 time=0.09
note_on channel=1 note=67 velocity=0 time=0.04
note_on channel=0 note=43 velocity=0 time=0.05
note_on channel=1 note=70 velocity=0 time=0.005
note_on channel=2 note=67 velocity=0 time=0.04
note_on channel=1 note=62 velocity=0 time=0.02
note_on channel=2 note=70 velocity=0 time=0.025
note_on channel=0 note=38 velocity=64 time=0.03
note_on channel=1 note=67 velocity=64 time=0
note_on channel=1 note=76 velocity=64 time=0
note_on channel=1 note=64 velocity=64 time=0
note_on channel=1 note=70 velocity=64 time=0
note_on channel=2 note=69 velocity=64 time=0
note_on channel=2 note=66 velocity=64 time=0
note_on channel=9 note=46 velocity=64 time=0
note_on channel=9 note=46 velocity=0 time=0.05
note_on channel=1 note=70 velocity=0 time=0.045
note_on channel=0 note=38 velocity=0 time=0.07
note_on channel=1 note=64 velocity=0 time=0
note_on channel=1 note=76 velocity=0 time=0.01
note_on channel=1 note=67 velocity=0 time=0.025
note_on channel=2 note=66 velocity=0 time=0.02
note_on channel=0 note=38 velocity=64 time=0.08
note_on channel=1 note=64 velocity=64 time=0
note_on channel=1 note=76 velocity=64 time=0
note_on channel=1 note=67 velocity=64 time=0
note_on channel=2 note=72 velocity=64 time=0
note_on channel=2 note=69 velocity=64 time=0
note_on channel=9 note=46 velocity=64 time=0
note_on channel=2 note=69 velocity=0 time=0.01
note_on channel=9 note=46 velocity=0 time=0.04
note_on channel=2 note=69 velocity=0 time=0.195
note_on channel=2 note=70 velocity=64 time=0.055
note_on channel=2 note=67 velocity=64 time=0
note_on channel=9 note=38 velocity=64 time=0
note_on channel=2 note=72 velocity=0 time=0.07
note_on channel=9 note=38 velocity=0 time=0.025
note_on channel=0 note=38 velocity=0 time=0.05
note_on channel=2 note=70 velocity=0 time=0.125
note_on channel=2 note=67 velocity=0 time=0.005
note_on channel=0 note=43 velocity=64 time=0.025
note_on channel=9 note=46 velocity=64 time=0
note_on channel=9 note=46 velocity=0 time=0.05
note_on channel=1 note=76 velocity=0 time=0.01
note_on channel=1 note=67 velocity=0 time=0.09
note_on channel=1 note=64 velocity=0 time=0.025
note_on channel=0 note=43 velocity=0 time=0.025
note_on channel=0 note=43 velocity=64 time=0.1
note_on channel=1 note=62 velocity=64 time=0
note_on channel=1 note=70 velocity=64 time=0
note_on channel=1 note=74 velocity=64 time=0
note_on channel=2 note=70 velocity=64 time=0
note_on channel=2 note=67 velocity=64 time=0
note_on channel=9 note=46 velocity=64 time=0
note_on channel=9 note=46 velocity=0 time=0.055
note_on channel=2 note=67 velocity=0 time=0.13
note_on channel=2 note=70 velocity=0 time=0.03
note_on channel=1 note=74 velocity=0 time=0.01
note_on channel=1 note=70 velocity=0 time=0.005
note_on channel=1 note=67 velocity=64 time=0.07
note_on channel=1 note=76 velocity=64 time=0
note_on channel=1 note=64 velocity=64 time=0
note_on channel=2 note=76 velocity=64 time=0
note_on channel=2 note=70 velocity=64 time=0
note_on channel=9 note=38 velocity=64 time=0
note_on channel=1 note=62 velocity=0 time=0.025
note_on channel=9 note=38 velocity=0 time=0.07
note_on channel=0 note=43 velocity=0 time=0.07
note_on channel=0 note=38 velocity=64 time=0.135
note_on channel=9 note=46 velocity=64 time=0
note_on channel=9 note=46 velocity=0 time=0.05
note_on channel=1 note=76 velocity=0 time=0.12
note_on channel=0 note=38 velocity=0 time=0.01
note_on channel=1 note=64 velocity=0 time=0.03
note_on channel=1 note=67 velocity=0 time=0.01
note_on channel=0 note=38 velocity=64 time=0.08
note_on channel=1 note=62 velocity=64 time=0
note_on channel=1 note=70 velocity=64 time=0
note_on channel=1 note=74 velocity=64 time=0
note_on channel=9 note=46 velocity=64 time=0
note_on channel=9 note=46 velocity=0 time=0.045
note_on channel=2 note=70 velocity=0 time=0.09
note_on channel=2 note=74 velocity=64 time=0.165
note_on channel=2 note=70 velocity=64 time=0
note_on channel=9 note=38 velocity=64 time=0
note_on channel=1 note=70 velocity=0 time=0.025
note_on channel=2 note=76 velocity=0 time=0.04
note_on channel=1 note=62 velocity=0 time=0.02
note_on channel=9 note=38 velocity=0 time=0.01
note_on channel=1 note=74 velocity=0 time=0.04
note_on channel=0 note=38 velocity=0 time=0.015
note_on channel=1 note=59 velocity=64 time=0
note_on channel=1 note=60 velocity=64 time=0
note_on channel=1 note=59 velocity=0 time=0.05
note_on channel=1 note=60 velocity=0 time=0.04
note_on channel=2 note=70 velocity=0 time=0.005
note_on channel=0 note=38 velocity=64 time=0.055
note_on channel=1 note=74 velocity=64 time=0
note_on channel=1 note=69 velocity=64 time=0
note_on channel=1 note=62 velocity=64 time=0
note_on channel=2 note=69 velocity=64 time=0
note_on channel=2 note=65 velocity=64 time=0
note_on channel=9 note=46 velocity=64 time=0
note_on channel=2 note=74 velocity=0 time=0.01
note_on channel=9 note=46 velocity=0 time=0.04
note_on channel=2 note=69 velocity=0 time=0.15
note_on channel=0 note=38 velocity=0 time=0.015
note_on channel=2 note=65 velocity=0 time=0.02
note_on channel=0 note=38 velocity=64 time=0.065
note_on channel=1 note=65 velocity=64 time=0
note_on channel=2 note=69 velocity=64 time=0
note_on channel=2 note=65 velocity=64 time=0
note_on channel=9 note=46 velocity=64 time=0
note_on channel=1 note=69 velocity=0 time=0.01
note_on channel=9 note=46 velocity=0 time=0.04
note_on channel=2 note=65 velocity=0 time=0.15
note_on channel=2 note=69 velocity=0 time=0.005
note_on channel=1 note=69 velocity=64 time=0.095
note_on channel=2 note=69 velocity=64 time=0
note_on channel=2 note=65 velocity=64 time=0
note_on channel=9 note=38 velocity=64 time=0
note_on channel=9 note=38 velocity=0 time=0.11
note_on channel=1 note=65 velocity=0 time=0.05
note_on channel=0 note=38 velocity=0 time=0.005
note_on channel=1 note=69 velocity=0 time=0.03
note_on channel=1 note=62 velocity=0 time=0.025
note_on channel=2 note=65 velocity=0 time=0.015
note_on channel=1 note=74 velocity=0 time=0.005
note_on channel=2 note=69 velocity=0 time=0.015
note_on channel=0 note=33 velocity=64 time=0.045
note_on channel=1 note=76 velocity=64 time=0
note_on channel=1 note=64 velocity=64 time=0
note_on channel=1 note=65 velocity=64 time=0
note_on channel=1 note=69 velocity=64 time=0
note_on channel=2 note=67 velocity=64 time=0
note_on channel=2 note=64 velocity=64 time=0
note_on channel=9 note=46 velocity=64 time=0
note_on channel=9 note=46 velocity=0 time=0.05
note_on channel=1 note=76 velocity=0 time=0.125
note_on channel=1 note=69 velocity=0 time=0.015
note_on channel=1 note=65 velocity=0 time=0
note_on channel=0 note=33 velocity=0 time=0.005
note_on channel=1 note=64 velocity=0 time=0.005
note_on channel=2 note=64 velocity=0 time=0.055
note_on channel=0 note=33 velocity=64 time=0.045
note_on channel=1 note=64 velocity=64 time=0
note_on channel=1 note=76 velocity=64 time=0
note_on channel=1 note=69 velocity=64 time=0
note_on channel=1 note=65 velocity=64 time=0
note_on channel=2 note=69 velocity=64 time=0
note_on channel=2 note=70 velocity=64 time=0
note_on channel=2 note=67 velocity=64 time=0
note_on channel=9 note=46 velocity=64 time=0
note_on channel=2 note=67 velocity=0 time=0.045
note_on channel=9 note=46 velocity=0 time=0.005
note_on channel=2 note=69 velocity=0 time=0.045
note_on channel=2 note=67 velocity=0 time=0.145
note_on channel=2 note=69 velocity=64 time=0.06
note_on channel=2 note=65 velocity=64 time=0
note_on channel=9 note=38 velocity=64 time=0
note_on channel=2 note=70 velocity=0 time=0.035
note_on channel=9 note=38 velocity=0 time=0.075
note_on channel=0 note=33 velocity=0 time=0.01
note_on channel=2 note=69 velocity=0 time=0.075
note_on channel=2 note=65 velocity=0 time=0.065
note_on channel=0 note=38 velocity=64 time=0.04
note_on channel=9 note=46 velocity=64 time=0
note_on channel=9 note=46 velocity=0 time=0.05
note_on channel=1 note=76 velocity=0 time=0.015
note_on channel=1 note=69 velocity=0 time=0.01
note_on channel=1 note=65 velocity=0 time=0.025
note_on channel=1 note=64 velocity=0 time=0.04
note_on channel=0 note=38 velocity=0 time=0.025
note_on channel=0 note=38 velocity=64 time=0.135
note_on channel=1 note=62 velocity=64 time=0
note_on channel=1 note=74 velocity=64 time=0
note_on channel=1 note=69 velocity=64 time=0
note_on channel=2 note=69 velocity=64 time=0
note_on channel=2 note=65 velocity=64 time=0
note_on channel=9 note=46 velocity=64 time=0
note_on channel=9 note=46 velocity=0 time=0.05
note_on channel=2 note=69 velocity=0 time=0.17500000000000002
note_on channel=2 note=65 velocity=0 time=0.01
note_on channel=1 note=65 velocity=64 time=0.065
note_on channel=2 note=74 velocity=64 time=0
note_on channel=2 note=69 velocity=64 time=0
note_on channel=9 note=38 velocity=64 time=0
note_on channel=1 note=69 velocity=0 time=0.03
note_on channel=9 note=38 velocity=0 time=0.07
note_on channel=0 note=38 velocity=0 time=0.07
note_on channel=0 note=33 velocity=64 time=0.13
note_on channel=1 note=69 velocity=64 time=0
note_on channel=9 note=46 velocity=64 time=0
note_on channel=9 note=46 velocity=0 time=0.06
note_on channel=1 note=74 velocity=0 time=0.025
note_on channel=0 note=33 velocity=0 time=0.095
note_on channel=1 note=62 velocity=0 time=0.005
note_on channel=1 note=65 velocity=0 time=0.01
note_on channel=1 note=69 velocity=0 time=0.01
note_on channel=0 note=33 velocity=64 time=0.095
note_on channel=1 note=69 velocity=64 time=0
note_on channel=1 note=74 velocity=64 time=0
note_on channel=1 note=62 velocity=64 time=0
note_on channel=9 note=46 velocity=64 time=0
note_on channel=9 note=46 velocity=0 time=0.05
note_on channel=1 note=69 velocity=0 time=0.07
note_on channel=2 note=69 velocity=0 time=0.035
note_on channel=1 note=74 velocity=0 time=0.02
note_on channel=1 note=62 velocity=0 time=0.04
note_on channel=1 note=75 velocity=64 time=0.085
note_on channel=1 note=63 velocity=64 time=0
note_on channel=2 note=74 velocity=0 time=0
note_on channel=2 note=73 velocity=64 time=0
note_on channel=2 note=69 velocity=64 time=0
note_on channel=9 note=38 velocity=64 time=0
note_on channel=9 note=38 velocity=0 time=0.12
note_on channel=0 note=33 velocity=0 time=0.005
note_on channel=1 note=63 velocity=0 time=0.035
note_on channel=1 note=75 velocity=0 time=0.005
note_on channel=0 note=33 velocity=64 time=0.135
note_on channel=1 note=64 velocity=64 time=0
note_on channel=1 note=73 velocity=64 time=0
note_on channel=1 note=76 velocity=64 time=0
note_on channel=2 note=69 velocity=64 time=0
note_on channel=2 note=64 velocity=64 time=0
note_on channel=9 note=46 velocity=64 time=0
note_on channel=9 note=46 velocity=0 time=0.045
note_on channel=2 note=73 velocity=0 time=0.03
note_on channel=2 note=69 velocity=0 time=0.045
note_on channel=2 note=64 velocity=0 time=0.035
note_on channel=0 note=33 velocity=0 time=0.03
note_on channel=2 note=69 velocity=0 time=0.11
note_on channel=0 note=33 velocity=64 time=0.005
note_on channel=1 note=69 velocity=64 time=0
note_on channel=2 note=67 velocity=64 time=0
note_on channel=2 note=64 velocity=64 time=0
note_on channel=9 note=46 velocity=64 time=0
note_on channel=1 note=73 velocity=0 time=0.035
note_on channel=9 note=46 velocity=0 time=0.015
note_on channel=2 note=64 velocity=0 time=0.135
note_on channel=2 note=67 velocity=0 time=0.04
note_on channel=1 note=73 velocity=64 time=0.075
note_on channel=2 note=67 velocity=64 time=0
note_on channel=2 note=64 velocity=64 time=0
note_on channel=9 note=38 velocity=64 time=0
note_on channel=9 note=38 velocity=0 time=0.105
note_on channel=0 note=33 velocity=0 time=0.005
note_on channel=1 note=76 velocity=0 time=0.02
note_on channel=1 note=69 velocity=0 time=0.03
note_on channel=1 note=73 velocity=0 time=0.015
note_on channel=1 note=64 velocity=0 time=0.015
note_on channel=2 note=64 velocity=0 time=0.035
note_on channel=0 note=40 velocity=64 time=0.075
note_on channel=1 note=69 velocity=64 time=0
note_on channel=1 note=77 velocity=64 time=0
note_on channel=1 note=65 velocity=64 time=0
note_on channel=2 note=66 velocity=64 time=0
note_on channel=2 note=62 velocity=64 time=0
note_on channel=9 note=46 velocity=64 time=0
note_on channel=2 note=67 velocity=0 time=0.03
note_on channel=9 note=46 velocity=0 time=0.02
note_on channel=1 note=65 velocity=0 time=0.11
note_on channel=0 note=40 velocity=0 time=0.015
note_on channel=1 note=77 velocity=0 time=0.01
note_on channel=1 note=69 velocity=0 time=0.045
note_on channel=2 note=66 velocity=0 time=0
note_on channel=2 note=62 velocity=0 time=0.025
note_on channel=0 note=40 velocity=64 time=0.045
note_on channel=1 note=65 velocity=64 time=0
note_on channel=1 note=77 velocity=64 time=0
note_on channel=1 note=69 velocity=64 time=0
note_on channel=2 note=69 velocity=64 time=0
note_on channel=2 note=65 velocity=64 time=0
note_on channel=9 note=46 velocity=64 time=0
note_on channel=9 note=46 velocity=0 time=0.045
note_on channel=2 note=65 velocity=0 time=0.2
note_on channel=2 note=69 velocity=0 time=0.02
note_on channel=2 note=67 velocity=64 time=0.035
note_on channel=2 note=64 velocity=64 time=0
note_on channel=9 note=38 velocity=64 time=0
note_on channel=9 note=38 velocity=0 time=0.13
note_on channel=0 note=40 velocity=0 time=0.065
note_on channel=2 note=67 velocity=0 time=0.005
note_on channel=2 note=64 velocity=0 time=0.06
note_on channel=0 note=33 velocity=64 time=0.04
note_on channel=9 note=46 velocity=64 time=0
note_on channel=1 note=77 velocity=0 time=0.03
note_on channel=1 note=69 velocity=0 time=0.015
note_on channel=9 note=46 velocity=0 time=0.005
note_on channel=1 note=65 velocity=0 time=0.035
note_on channel=0 note=33 velocity=0 time=0.105
note_on channel=0 note=33 velocity=64 time=0.11
note_on channel=1 note=64 velocity=64 time=0
note_on channel=1 note=69 velocity=64 time=0
note_on channel=1 note=73 velocity=64 time=0
note_on channel=1 note=76 velocity=64 time=0
note_on channel=2 note=76 velocity=64 time=0
note_on channel=2 note=73 velocity=64 time=0
note_on channel=9 note=46 velocity=64 time=0
note_on channel=9 note=46 velocity=0 time=0.05
note_on channel=1 note=76 velocity=0 time=0.125
note_on channel=1 note=73 velocity=0 time=0.01
note_on channel=1 note=69 velocity=0 time=0
note_on channel=1 note=64 velocity=0 time=0.1
note_on channel=1 note=65 velocity=64 time=0.015
note_on channel=1 note=77 velocity=64 time=0
note_on channel=1 note=69 velocity=64 time=0
note_on channel=9 note=38 velocity=64 time=0
note_on channel=0 note=33 velocity=0 time=0.13
note_on channel=9 note=38 velocity=0 time=0.01
note_on channel=2 note=73 velocity=0 time=0.005
note_on channel=2 note=73 velocity=64 time=0.005
note_on channel=2 note=76 velocity=0 time=0.085
note_on channel=0 note=40 velocity=64 time=0.065
note_on channel=2 note=67 velocity=64 time=0
note_on channel=9 note=46 velocity=64 time=0
note_on channel=9 note=46 velocity=0 time=0.055
note_on channel=1 note=77 velocity=0 time=0.075
note_on channel=1 note=69 velocity=0 time=0.03
note_on channel=0 note=40 velocity=0 time=0.025
note_on channel=1 note=65 velocity=0 time=0.02
note_on channel=0 note=40 velocity=64 time=0.095
note_on channel=1 note=64 velocity=64 time=0
note_on channel=1 note=76 velocity=64 time=0
note_on channel=1 note=69 velocity=64 time=0
note_on channel=1 note=73 velocity=64 time=0
note_on channel=9 note=46 velocity=64 time=0
note_on channel=9 note=46 velocity=0 time=0.05
note_on channel=2 note=67 velocity=0 time=0.065
note_on channel=2 note=73 velocity=0 time=0.125
note_on channel=1 note=73 velocity=0 time=0.025
note_on channel=1 note=69 velocity=0 time=0.005
note_on channel=1 note=76 velocity=0 time=0.01
note_on channel=2 note=67 velocity=64 time=0.02
note_on channel=2 note=64 velocity=64 time=0
note_on channel=9 note=38 velocity=64 time=0
note_on channel=1 note=64 velocity=0 time=0.075
note_on channel=0 note=40 velocity=0 time=0.04
note_on channel=9 note=38 velocity=0 time=0.01
note_on channel=2 note=64 velocity=0 time=0.07
note_on channel=2 note=67 velocity=0 time=0.07
note_on channel=0 note=38 velocity=64 time=0.035
note_on channel=1 note=60 velocity=64 time=0
note_on channel=1 note=62 velocity=64 time=0
note_on channel=1 note=65 velocity=64 time=0
note_on channel=1 note=74 velocity=64 time=0
note_on channel=2 note=65 velocity=64 time=0
note_on channel=2 note=62 velocity=64 time=0
note_on channel=9 note=46 velocity=64 time=0
note_on channel=9 note=46 velocity=0 time=0.05
note_on channel=1 note=60 velocity=0 time=0.01
note_on channel=0 note=38 velocity=0 time=0.14
note_on channel=1 note=74 velocity=0 time=0
note_on channel=1 note=65 velocity=0 time=0.005
note_on channel=0 note=38 velocity=64 time=0.095
note_on channel=1 note=74 velocity=64 time=0
note_on channel=1 note=65 velocity=64 time=0
note_on channel=9 note=46 velocity=64 time=0
note_on channel=9 note=46 velocity=0 time=0.055
note_on channel=1 note=62 velocity=0 time=0.135
note_on channel=1 note=62 velocity=64 time=0.11
note_on channel=9 note=38 velocity=64 time=0
note_on channel=9 note=38 velocity=0 time=0.135
note_on channel=0 note=38 velocity=0 time=0.005
note_on channel=1 note=65 velocity=0 time=0.065
note_on channel=0 note=33 velocity=64 time=0.095
note_on channel=1 note=69 velocity=64 time=0
note_on channel=9 note=46 velocity=64 time=0
note_on channel=9 note=46 velocity=0 time=0.05
note_on channel=1 note=62 velocity=0 time=0.04
note_on channel=2 note=62 velocity=0 time=0.025
note_on channel=1 note=74 velocity=0 time=0.025
note_on channel=0 note=33 velocity=0 time=0.045
note_on channel=0 note=33 velocity=64 time=0.115
note_on channel=1 note=65 velocity=64 time=0
note_on channel=9 note=46 velocity=64 time=0
note_on channel=9 note=46 velocity=0 time=0.055
note_on channel=1 note=69 velocity=0 time=0.005
note_on channel=2 note=65 velocity=0 time=0.055
note_on channel=1 note=69 velocity=64 time=0.185
note_on channel=9 note=38 velocity=64 time=0
note_on channel=9 note=38 velocity=0 time=0.14
note_on channel=0 note=33 velocity=0 time=0.03
note_on channel=0 note=38 velocity=64 time=0.13
note_on channel=1 note=74 velocity=64 time=0
note_on channel=1 note=62 velocity=64 time=0
note_on channel=9 note=46 velocity=64 time=0
note_on channel=9 note=46 velocity=0 time=0.055
note_on channel=1 note=69 velocity=0 time=0.04
note_on channel=1 note=65 velocity=0 time=0.02
note_on channel=0 note=38 velocity=0 time=0.06
note_on channel=1 note=62 velocity=0 time=0.01
note_on channel=1 note=74 velocity=0 time=0.005
note_on channel=0 note=40 velocity=64 time=0.11
note_on channel=1 note=64 velocity=64 time=0
note_on channel=1 note=76 velocity=64 time=0
note_on channel=0 note=40 velocity=0 time=0.19
note_on channel=1 note=76 velocity=0 time=0.01
note_on channel=1 note=64 velocity=0 time=0.005
note_on channel=0 note=41 velocity=64 time=0.095
note_on channel=1 note=77 velocity=64 time=0
note_on channel=1 note=65 velocity=64 time=0
note_on channel=9 note=46 velocity=64 time=0
note_on channel=9 note=46 velocity=0 time=0.055
note_on channel=0 note=41 velocity=0 time=0.125
note_on channel=1 note=77 velocity=0 time=0
note_on channel=1 note=65 velocity=0 time=0.01
note_on channel=0 note=40 velocity=64 time=0.11
note_on channel=1 note=64 velocity=64 time=0
note_on channel=1 note=76 velocity=64 time=0
note_on channel=0 note=40 velocity=0 time=0.18
note_on channel=1 note=76 velocity=0 time=0
note_on channel=1 note=64 velocity=0 time=0.005
note_on channel=0 note=38 velocity=64 time=0.115
note_on channel=1 note=74 velocity=64 time=0
note_on channel=1 note=62 velocity=64 time=0
note_on channel=1 note=74 velocity=0 time=0.165
note_on channel=0 note=38 velocity=0 time=0.025
note_on channel=0 note=36 velocity=64 time=0.11
note_on channel=1 note=72 velocity=64 time=0
note_on channel=1 note=72 velocity=0 time=0.16
note_on channel=0 note=36 velocity=0 time=0.02
note_on channel=1 note=62 velocity=0 time=0.07
note_on channel=0 note=34 velocity=64 time=0.05
note_on channel=1 note=70 velocity=64 time=0
note_on channel=3 note=77 velocity=94 time=0
note_on channel=9 note=46 velocity=64 time=0
note_on channel=9 note=46 velocity=0 time=0.06
note_on channel=0 note=34 velocity=0 time=0.125
note_on channel=0 note=34 velocity=64 time=0.115
note_on channel=1 note=75 velocity=64 time=0
note_on channel=1 note=74 velocity=64 time=0
note_on channel=9 note=46 velocity=64 time=0
note_on channel=9 note=46 velocity=0 time=0.06
note_on channel=1 note=75 velocity=0 time=0.01
note_on channel=1 note=70 velocity=0 time=0.17
note_on channel=1 note=70 velocity=64 time=0.06
note_on channel=9 note=38 velocity=64 time=0
note_on channel=1 note=74 velocity=0 time=0.08
note_on channel=9 note=38 velocity=0 time=0.03
note_on channel=0 note=34 velocity=0 time=0.04
note_on channel=0 note=41 velocity=64 time=0.15
note_on channel=1 note=65 velocity=64 time=0
note_on channel=9 note=46 velocity=64 time=0
note_on channel=9 note=46 velocity=0 time=0.05
note_on channel=0 note=41 velocity=0 time=0.11
note_on channel=1 note=70 velocity=0 time=0
note_on channel=1 note=65 velocity=0 time=0.07
note_on channel=0 note=41 velocity=64 time=0.07
note_on channel=1 note=53 velocity=64 time=0
note_on channel=1 note=74 velocity=64 time=0
note_on channel=1 note=70 velocity=64 time=0
note_on channel=1 note=65 velocity=64 time=0
note_on channel=9 note=46 velocity=64 time=0
note_on channel=9 note=46 velocity=0 time=0.055
note_on channel=3 note=77 velocity=0 time=0.09
note_on channel=9 note=38 velocity=64 time=0.155
note_on channel=0 note=41 velocity=0 time=0.125
note_on channel=9 note=38 velocity=0 time=0
note_on channel=1 note=53 velocity=0 time=0.03
note_on channel=1 note=70 velocity=0 time=0.13
note_on channel=0 note=34 velocity=64 time=0.015
note_on channel=3 note=76 velocity=94 time=0
note_on channel=9 note=46 velocity=64 time=0
note_on channel=1 note=74 velocity=0 time=0.01
note_on channel=1 note=65 velocity=0 time=0.025
note_on channel=9 note=46 velocity=0 time=0.02
note_on channel=0 note=34 velocity=0 time=0.145
note_on channel=3 note=76 velocity=0 time=0.045
note_on channel=0 note=34 velocity=64 time=0.055
note_on channel=1 note=53 velocity=64 time=0
note_on channel=3 note=77 velocity=94 time=0
note_on channel=9 note=46 velocity=64 time=0
note_on channel=9 note=46 velocity=0 time=0.05
note_on channel=1 note=58 velocity=64 time=0.1
note_on channel=1 note=53 velocity=0 time=0.03
note_on channel=3 note=77 velocity=0 time=0.06
note_on channel=1 note=62 velocity=64 time=0.06
note_on channel=3 note=79 velocity=94 time=0
note_on channel=9 note=38 velocity=64 time=0
note_on channel=1 note=58 velocity=0 time=0.035
note_on channel=9 note=38 velocity=0 time=0.08
note_on channel=0 note=34 velocity=0 time=0.045
note_on channel=0 note=41 velocity=64 time=0.14
note_on channel=1 note=65 velocity=64 time=0
note_on channel=9 note=46 velocity=64 time=0
note_on channel=9 note=46 velocity=0 time=0.055
note_on channel=0 note=41 velocity=0 time=0.1
note_on channel=0 note=41 velocity=64 time=0.145
note_on channel=1 note=70 velocity=64 time=0
note_on channel=9 note=46 velocity=64 time=0
note_on channel=9 note=46 velocity=0 time=0.055
note_on channel=3 note=79 velocity=0 time=0.165
note_on channel=1 note=74 velocity=64 time=0.08
note_on channel=3 note=77 velocity=94 time=0
note_on channel=9 note=38 velocity=64 time=0
note_on channel=1 note=70 velocity=0 time=0.09
note_on channel=1 note=65 velocity=0 time=0
note_on channel=0 note=41 velocity=0 time=0.01
note_on channel=9 note=38 velocity=0 time=0.025
note_on channel=1 note=59 velocity=64 time=0.025
note_on channel=1 note=60 velocity=64 time=0
note_on channel=1 note=64 velocity=64 time=0
note_on channel=1 note=74 velocity=0 time=0.015
note_on channel=3 note=77 velocity=0 time=0.07
note_on channel=1 note=60 velocity=0 time=0.04
note_on channel=0 note=40 velocity=64 time=0.025
note_on channel=1 note=71 velocity=64 time=0
note_on channel=1 note=76 velocity=64 time=0
note_on channel=3 note=76 velocity=94 time=0
note_on channel=9 note=46 velocity=64 time=0
note_on channel=1 note=62 velocity=0 time=0.01
note_on channel=1 note=59 velocity=0 time=0.01
note_on channel=9 note=46 velocity=0 time=0.03
note_on channel=0 note=40 velocity=0 time=0.125
note_on channel=0 note=40 velocity=64 time=0.125
note_on channel=1 note=68 velocity=64 time=0
note_on channel=9 note=46 velocity=64 time=0
note_on channel=9 note=46 velocity=0 time=0.045
note_on channel=1 note=71 velocity=0 time=0.045
note_on channel=1 note=71 velocity=64 time=0.21
note_on channel=9 note=38 velocity=64 time=0
note_on channel=1 note=64 velocity=0 time=0.115
note_on channel=9 note=38 velocity=0 time=0.01
note_on channel=1 note=68 velocity=0 time=0.025
note_on channel=1 note=76 velocity=0 time=0.035
note_on channel=0 note=40 velocity=0 time=0.025
note_on channel=1 note=71 velocity=0 time=0.03
note_on channel=0 note=35 velocity=64 time=0.06
note_on channel=1 note=68 velocity=64 time=0
note_on channel=1 note=77 velocity=64 time=0
note_on channel=1 note=65 velocity=64 time=0
note_on channel=9 note=46 velocity=64 time=0
note_on channel=9 note=46 velocity=0 time=0.055
note_on channel=0 note=35 velocity=0 time=0.13
note_on channel=0 note=35 velocity=64 time=0.115
note_on channel=1 note=76 velocity=64 time=0
note_on channel=9 note=46 velocity=64 time=0
note_on channel=1 note=77 velocity=0 time=0.015
note_on channel=9 note=46 velocity=0 time=0.035
note_on channel=3 note=76 velocity=0 time=0.095
note_on channel=1 note=65 velocity=0 time=0.05
note_on channel=1 note=71 velocity=64 time=0.105
note_on channel=3 note=74 velocity=94 time=0
note_on channel=9 note=38 velocity=64 time=0
note_on channel=1 note=68 velocity=0 time=0.08
note_on channel=9 note=38 velocity=0 time=0.05
note_on channel=1 note=76 velocity=0 time=0.01
note_on channel=0 note=35 velocity=0 time=0.005
note_on channel=1 note=71 velocity=0 time=0
note_on channel=1 note=60 velocity=64 time=0.005
note_on channel=1 note=62 velocity=64 time=0
note_on channel=3 note=74 velocity=0 time=0.12
note_on channel=1 note=62 velocity=0 time=0.01
note_on channel=0 note=33 velocity=64 time=0.02
note_on channel=1 note=64 velocity=64 time=0
note_on channel=1 note=73 velocity=64 time=0
note_on channel=1 note=76 velocity=64 time=0
note_on channel=1 note=75 velocity=64 time=0
note_on channel=3 note=73 velocity=94 time=0
note_on channel=9 note=46 velocity=64 time=0
note_on channel=1 note=60 velocity=0 time=0.015
note_on channel=9 note=46 velocity=0 time=0.045
note_on channel=1 note=75 velocity=0 time=0.01
note_on channel=0 note=33 velocity=0 time=0.125
note_on channel=0 note=33 velocity=64 time=0.105
note_on channel=1 note=69 velocity=64 time=0
note_on channel=9 note=46 velocity=64 time=0
note_on channel=9 note=46 velocity=0 time=0.055
note_on channel=1 note=73 velocity=0 time=0.015
note_on channel=1 note=73 velocity=64 time=0.23
note_on channel=9 note=38 velocity=64 time=0
note_on channel=1 note=76 velocity=0 time=0.01
note_on channel=0 note=33 velocity=0 time=0.1
note_on channel=9 note=38 velocity=0 time=0.005
note_on channel=1 note=69 velocity=0 time=0.045
note_on channel=1 note=73 velocity=0 time=0.005
note_on channel=1 note=64 velocity=0 time=0.045
note_on channel=0 note=40 velocity=64 time=0.09
note_on channel=1 note=78 velocity=64 time=0
note_on channel=1 note=66 velocity=64 time=0
note_on channel=1 note=69 velocity=64 time=0
note_on channel=1 note=73 velocity=64 time=0
note_on channel=9 note=46 velocity=64 time=0
note_on channel=9 note=46 velocity=0 time=0.05
note_on channel=1 note=73 velocity=0 time=0.11
note_on channel=0 note=40 velocity=0 time=0.03
note_on channel=1 note=69 velocity=0 time=0
note_on channel=1 note=78 velocity=0 time=0
note_on channel=1 note=66 velocity=0 time=0.015
note_on channel=0 note=40 velocity=64 time=0.095
note_on channel=1 note=69 velocity=64 time=0
note_on channel=1 note=66 velocity=64 time=0
note_on channel=1 note=78 velocity=64 time=0
note_on channel=1 note=73 velocity=64 time=0
note_on channel=9 note=46 velocity=64 time=0
note_on channel=9 note=46 velocity=0 time=0.06
note_on channel=3 note=73 velocity=0 time=0.025
note_on channel=1 note=78 velocity=0 time=0.16
note_on channel=1 note=73 velocity=0 time=0.005
note_on channel=1 note=69 velocity=0 time=0.03
note_on channel=1 note=59 velocity=64 time=0.02
note_on channel=1 note=61 velocity=64 time=0
note_on channel=9 note=38 velocity=64 time=0
note_on channel=0 note=40 velocity=0 time=0.01
note_on channel=1 note=66 velocity=0 time=0.07
note_on channel=1 note=61 velocity=0 time=0.01
note_on channel=1 note=59 velocity=0 time=0.02
note_on channel=9 note=38 velocity=0 time=0.02
note_on channel=1 note=60 velocity=64 time=0.02
note_on channel=1 note=62 velocity=64 time=0
note_on channel=1 note=62 velocity=0 time=0.065
note_on channel=1 note=60 velocity=0 time=0.04
note_on channel=0 note=40 velocity=64 time=0.045
note_on channel=1 note=64 velocity=64 time=0
note_on channel=1 note=71 velocity=64 time=0
note_on channel=1 note=76 velocity=64 time=0
note_on channel=3 note=74 velocity=94 time=0
note_on channel=9 note=46 velocity=64 time=0
note_on channel=9 note=46 velocity=0 time=0.045
note_on channel=0 note=40 velocity=0 time=0.165
note_on channel=1 note=71 velocity=0 time=0.07
note_on channel=0 note=40 velocity=64 time=0.02
note_on channel=1 note=68 velocity=64 time=0
note_on channel=9 note=46 velocity=64 time=0
note_on channel=9 note=46 velocity=0 time=0.05
note_on channel=1 note=71 velocity=64 time=0.1
note_on channel=1 note=76 velocity=0 time=0.02
note_on channel=3 note=74 velocity=0 time=0.045
note_on channel=1 note=64 velocity=0 time=0.005
note_on channel=1 note=68 velocity=0 time=0.005
note_on channel=1 note=71 velocity=0 time=0.005
note_on channel=1 note=68 velocity=64 time=0.07
note_on channel=1 note=78 velocity=64 time=0
note_on channel=1 note=66 velocity=64 time=0
note_on channel=1 note=71 velocity=64 time=0
note_on channel=3 note=74 velocity=94 time=0
note_on channel=9 note=38 velocity=64 time=0
note_on channel=9 note=38 velocity=0 time=0.125
note_on channel=0 note=40 velocity=0 time=0.035
note_on channel=0 note=35 velocity=64 time=0.14
note_on channel=9 note=46 velocity=64 time=0
note_on channel=9 note=46 velocity=0 time=0.05
note_on channel=0 note=35 velocity=0 time=0.155
note_on channel=0 note=35 velocity=64 time=0.095
note_on channel=9 note=46 velocity=64 time=0
note_on channel=9 note=46 velocity=0 time=0.05
note_on channel=1 note=78 velocity=0 time=0.06
note_on channel=1 note=71 velocity=0 time=0.08
note_on channel=1 note=66 velocity=0 time=0.01
note_on channel=1 note=68 velocity=0 time=0.01
note_on channel=1 note=64 velocity=64 time=0.09
note_on channel=1 note=71 velocity=64 time=0
note_on channel=1 note=76 velocity=64 time=0
note_on channel=1 note=68 velocity=64 time=0
note_on channel=9 note=38 velocity=64 time=0
note_on channel=0 note=35 velocity=0 time=0.125
note_on channel=1 note=68 velocity=0 time=0.01
note_on channel=9 note=38 velocity=0 time=0
note_on channel=1 note=76 velocity=0 time=0.045
note_on channel=3 note=74 velocity=0 time=0.025
note_on channel=1 note=71 velocity=0 time=0.02
note_on channel=1 note=64 velocity=0 time=0.01
note_on channel=0 note=40 velocity=64 time=0.065
note_on channel=1 note=78 velocity=64 time=0
note_on channel=1 note=68 velocity=64 time=0
note_on channel=1 note=66 velocity=64 time=0
note_on channel=9 note=46 velocity=64 time=0
note_on channel=9 note=46 velocity=0 time=0.045
note_on channel=0 note=40 velocity=0 time=0.15
note_on channel=1 note=78 velocity=0 time=0.07
note_on channel=0 note=40 velocity=64 time=0.035
note_on channel=1 note=76 velocity=64 time=0
note_on channel=3 note=64 velocity=94 time=0
note_on channel=9 note=46 velocity=64 time=0
note_on channel=9 note=46 velocity=0 time=0.05
note_on channel=1 note=71 velocity=64 time=0.25
note_on channel=3 note=64 velocity=0 time=0
note_on channel=3 note=68 velocity=94 time=0
note_on channel=9 note=38 velocity=64 time=0
note_on channel=1 note=68 velocity=0 time=0.05
note_on channel=9 note=38 velocity=0 time=0.085
note_on channel=0 note=40 velocity=0 time=0.04
note_on channel=0 note=35 velocity=64 time=0.125
note_on channel=1 note=68 velocity=64 time=0
note_on channel=3 note=71 velocity=94 time=0
note_on channel=9 note=46 velocity=64 time=0
note_on channel=3 note=68 velocity=0 time=0.03
note_on channel=1 note=71 velocity=0 time=0.01
note_on channel=9 note=46 velocity=0 time=0.015
note_on channel=0 note=35 velocity=0 time=0.13
note_on channel=3 note=71 velocity=0 time=0.075
note_on channel=0 note=35 velocity=64 time=0.04
note_on channel=1 note=71 velocity=64 time=0
note_on channel=3 note=76 velocity=94 time=0
note_on channel=9 note=46 velocity=64 time=0
note_on channel=1 note=76 velocity=0 time=0.01
note_on channel=9 note=46 velocity=0 time=0.045
note_on channel=1 note=66 velocity=0 time=0.225
note_on channel=1 note=76 velocity=64 time=0.02
note_on channel=3 note=74 velocity=94 time=0
note_on channel=9 note=38 velocity=64 time=0
note_on channel=1 note=68 velocity=0 time=0.025
note_on channel=3 note=76 velocity=0 time=0.01
note_on channel=1 note=71 velocity=0 time=0.03
note_on channel=0 note=35 velocity=0 time=0.04
note_on channel=9 note=38 velocity=0 time=0.03
note_on channel=1 note=60 velocity=64 time=0.015
note_on channel=1 note=62 velocity=64 time=0
note_on channel=3 note=74 velocity=0 time=0.13
note_on channel=1 note=62 velocity=0 time=0.005
note_on channel=1 note=60 velocity=0 time=0.01
note_on channel=0 note=33 velocity=64 time=0.005
note_on channel=1 note=64 velocity=64 time=0
note_on channel=1 note=73 velocity=64 time=0
note_on channel=3 note=73 velocity=94 time=0
note_on channel=9 note=46 velocity=64 time=0
note_on channel=9 note=46 velocity=0 time=0.055
note_on channel=1 note=76 velocity=0 time=0.09
note_on channel=0 note=33 velocity=0 time=0.065
note_on channel=0 note=33 velocity=64 time=0.09
note_on channel=1 note=69 velocity=64 time=0
note_on channel=1 note=76 velocity=64 time=0
note_on channel=9 note=46 velocity=64 time=0
note_on channel=9 note=46 velocity=0 time=0.055
note_on channel=1 note=73 velocity=0 time=0.06
note_on channel=1 note=73 velocity=64 time=0.185
note_on channel=9 note=38 velocity=64 time=0
note_on channel=1 note=76 velocity=0 time=0.045
note_on channel=9 note=38 velocity=0 time=0.07
note_on channel=1 note=73 velocity=0 time=0.085
note_on channel=0 note=33 velocity=0 time=0.005
note_on channel=1 note=69 velocity=0 time=0.03
note_on channel=1 note=64 velocity=0 time=0.015
note_on channel=0 note=40 velocity=64 time=0.05
note_on channel=1 note=69 velocity=64 time=0
note_on channel=1 note=78 velocity=64 time=0
note_on channel=1 note=66 velocity=64 time=0
note_on channel=9 note=46 velocity=64 time=0
note_on channel=9 note=46 velocity=0 time=0.05
note_on channel=3 note=73 velocity=0 time=0.12
note_on channel=0 note=40 velocity=0 time=0.015
note_on channel=1 note=78 velocity=0 time=0.01
note_on channel=0 note=40 velocity=64 time=0.105
note_on channel=1 note=76 velocity=64 time=0
note_on channel=3 note=74 velocity=94 time=0
note_on channel=9 note=46 velocity=64 time=0
note_on channel=9 note=46 velocity=0 time=0.06
note_on channel=1 note=73 velocity=64 time=0.24
note_on channel=9 note=38 velocity=64 time=0
note_on channel=1 note=76 velocity=0 time=0.08
note_on channel=1 note=66 velocity=0 time=0.005
note_on channel=0 note=40 velocity=0 time=0.05
note_on channel=9 note=38 velocity=0 time=0.005
note_on channel=1 note=69 velocity=0 time=0.01
note_on channel=1 note=61 velocity=64 time=0
note_on channel=1 note=60 velocity=64 time=0
note_on channel=1 note=62 velocity=64 time=0
note_on channel=1 note=61 velocity=0 time=0.04
note_on channel=1 note=73 velocity=0 time=0.04
note_on channel=1 note=60 velocity=0 time=0.03
note_on channel=1 note=62 velocity=0 time=0
note_on channel=3 note=74 velocity=0 time=0.03
note_on channel=0 note=33 velocity=64 time=0.01
note_on channel=1 note=73 velocity=64 time=0
note_on channel=1 note=69 velocity=64 time=0
note_on channel=1 note=76 velocity=64 time=0
note_on channel=1 note=64 velocity=64 time=0
note_on channel=3 note=76 velocity=94 time=0
note_on channel=9 note=46 velocity=64 time=0
note_on channel=9 note=46 velocity=0 time=0.055
note_on channel=1 note=76 velocity=0 time=0.115
note_on channel=1 note=64 velocity=0 time=0.02
note_on channel=1 note=73 velocity=0 time=0.005
note_on channel=1 note=69 velocity=0 time=0.005
note_on channel=0 note=33 velocity=0 time=0.32
note_on channel=3 note=76 velocity=0 time=0.095
note_on channel=1 note=62 velocity=64 time=1.035
note_on channel=1 note=62 velocity=0 time=0.065
note_on channel=0 note=33 velocity=64 time=0.085
note_on channel=1 note=64 velocity=64 time=0
note_on channel=1 note=76 velocity=64 time=0
note_on channel=1 note=73 velocity=64 time=0
note_on channel=3 note=64 velocity=94 time=0
note_on channel=9 note=46 velocity=64 time=0
note_on channel=9 note=46 velocity=0 time=0.06
note_on channel=0 note=33 velocity=0 time=0.15
note_on channel=1 note=73 velocity=0 time=0.075
note_on channel=0 note=33 velocity=64 time=0.015
note_on channel=1 note=69 velocity=64 time=0
note_on channel=3 note=65 velocity=94 time=0
note_on channel=9 note=46 velocity=64 time=0
note_on channel=9 note=46 velocity=0 time=0.05
note_on channel=3 note=64 velocity=0 time=0.005
note_on channel=1 note=76 velocity=0 time=0.075
note_on channel=1 note=73 velocity=64 time=0.02
note_on channel=1 note=69 velocity=0 time=0.005
note_on channel=1 note=64 velocity=0 time=0.025
note_on channel=1 note=73 velocity=0 time=0.02
note_on channel=3 note=65 velocity=0 time=0.075
note_on channel=1 note=65 velocity=64 time=0.025
note_on channel=1 note=69 velocity=64 time=0
note_on channel=1 note=73 velocity=64 time=0
note_on channel=1 note=77 velocity=64 time=0
note_on channel=3 note=67 velocity=94 time=0
note_on channel=9 note=38 velocity=64 time=0
note_on channel=1 note=73 velocity=0 time=0.065
note_on channel=9 note=38 velocity=0 time=0.05
note_on channel=0 note=33 velocity=0 time=0.015
note_on channel=0 note=40 velocity=64 time=0.17
note_on channel=9 note=46 velocity=64 time=0
note_on channel=9 note=46 velocity=0 time=0.055
note_on channel=0 note=40 velocity=0 time=0.135
note_on channel=0 note=40 velocity=64 time=0.11
note_on channel=9 note=46 velocity=64 time=0
note_on channel=9 note=46 velocity=0 time=0.045
note_on channel=1 note=77 velocity=0 time=0.20500000000000002
note_on channel=1 note=65 velocity=0 time=0.03
note_on channel=1 note=69 velocity=0 time=0.005
note_on channel=1 note=73 velocity=64 time=0.015
note_on channel=1 note=64 velocity=64 time=0
note_on channel=1 note=76 velocity=64 time=0
note_on channel=1 note=69 velocity=64 time=0
note_on channel=3 note=66 velocity=94 time=0
note_on channel=9 note=38 velocity=64 time=0
note_on channel=3 note=67 velocity=0 time=0.02
note_on channel=9 note=38 velocity=0 time=0.09
note_on channel=0 note=40 velocity=0 time=0.01
note_on channel=1 note=69 velocity=0 time=0.1
note_on channel=1 note=76 velocity=0 time=0.01
note_on channel=1 note=73 velocity=0 time=0
note_on channel=1 note=64 velocity=0 time=0.04
note_on channel=3 note=66 velocity=0 time=0.01
note_on channel=0 note=33 velocity=64 time=0.02
note_on channel=1 note=69 velocity=64 time=0
note_on channel=1 note=65 velocity=64 time=0
note_on channel=1 note=77 velocity=64 time=0
note_on channel=3 note=69 velocity=94 time=0
note_on channel=9 note=46 velocity=64 time=0
note_on channel=9 note=46 velocity=0 time=0.055
note_on channel=0 note=33 velocity=0 time=0.14
note_on channel=0 note=33 velocity=64 time=0.105
note_on channel=1 note=73 velocity=64 time=0
note_on channel=1 note=64 velocity=64 time=0
note_on channel=1 note=69 velocity=64 time=0
note_on channel=1 note=76 velocity=64 time=0
note_on channel=1 note=76 velocity=64 time=0
note_on channel=1 note=64 velocity=64 time=0
note_on channel=3 note=67 velocity=94 time=0
note_on channel=9 note=46 velocity=64 time=0
note_on channel=1 note=77 velocity=0 time=0.025
note_on channel=9 note=46 velocity=0 time=0.02
note_on channel=1 note=65 velocity=0 time=0.03
note_on channel=3 note=69 velocity=0 time=0
note_on channel=1 note=76 velocity=0 time=0.145
note_on channel=1 note=73 velocity=0 time=0.03
note_on channel=1 note=64 velocity=0 time=0.05
note_on channel=1 note=65 velocity=64 time=0
note_on channel=1 note=77 velocity=64 time=0
note_on channel=1 note=73 velocity=64 time=0
note_on channel=3 note=64 velocity=94 time=0
note_on channel=9 note=38 velocity=64 time=0
note_on channel=1 note=69 velocity=0 time=0.05
note_on channel=3 note=67 velocity=0 time=0.02
note_on channel=9 note=38 velocity=0 time=0.035
note_on channel=0 note=33 velocity=0 time=0.005
note_on channel=1 note=64 velocity=0 time=0.16
note_on channel=0 note=40 velocity=64 time=0.03
note_on channel=1 note=69 velocity=64 time=0
note_on channel=9 note=46 velocity=64 time=0
note_on channel=1 note=73 velocity=0 time=0.035
note_on channel=9 note=46 velocity=0 time=0.02
note_on channel=1 note=76 velocity=0 time=0.015
note_on channel=1 note=60 velocity=64 time=0.08
note_on channel=1 note=62 velocity=64 time=0
note_on channel=1 note=77 velocity=0 time=0.035
note_on channel=0 note=40 velocity=0 time=0.02
note_on channel=1 note=69 velocity=0 time=0.01
note_on channel=1 note=60 velocity=0 time=0.045
note_on channel=1 note=65 velocity=0 time=0.025
note_on channel=1 note=62 velocity=0 time=0
note_on channel=0 note=40 velocity=64 time=0.015
note_on channel=1 note=64 velocity=64 time=0
note_on channel=1 note=76 velocity=64 time=0
note_on channel=1 note=73 velocity=64 time=0
note_on channel=1 note=64 velocity=64 time=0
note_on channel=1 note=69 velocity=64 time=0
note_on channel=1 note=76 velocity=64 time=0
note_on channel=1 note=73 velocity=64 time=0
note_on channel=9 note=46 velocity=64 time=0
note_on channel=3 note=64 velocity=0 time=0.025
note_on channel=9 note=46 velocity=0 time=0.02
note_on channel=1 note=73 velocity=0 time=0.115
note_on channel=1 note=76 velocity=0 time=0.01
note_on channel=1 note=73 velocity=0 time=0.085
note_on channel=1 note=69 velocity=0 time=0.005
note_on channel=1 note=76 velocity=0 time=0.005
note_on channel=1 note=64 velocity=0 time=0.01
note_on channel=1 note=64 velocity=0 time=0
note_on channel=1 note=75 velocity=64 time=0.025
note_on channel=1 note=73 velocity=64 time=0
note_on channel=1 note=63 velocity=64 time=0
note_on channel=3 note=64 velocity=94 time=0
note_on channel=9 note=38 velocity=64 time=0
note_on channel=9 note=38 velocity=0 time=0.105
note_on channel=1 note=73 velocity=0 time=0.005
note_on channel=0 note=40 velocity=0 time=0.02
note_on channel=1 note=69 velocity=64 time=0.02
note_on channel=1 note=61 velocity=64 time=0
note_on channel=1 note=69 velocity=0 time=0.01
note_on channel=1 note=69 velocity=0 time=0.01
note_on channel=1 note=61 velocity=0 time=0
note_on channel=1 note=75 velocity=0 time=0
note_on channel=1 note=63 velocity=0 time=0.035
note_on channel=0 note=38 velocity=64 time=0.095
note_on channel=1 note=74 velocity=64 time=0
note_on channel=1 note=62 velocity=64 time=0
note_on channel=1 note=69 velocity=64 time=0
note_on channel=3 note=65 velocity=94 time=0
note_on channel=9 note=46 velocity=64 time=0
note_on channel=9 note=46 velocity=0 time=0.05
note_on channel=3 note=64 velocity=0 time=0.065
note_on channel=0 note=38 velocity=0 time=0.085
note_on channel=0 note=38 velocity=64 time=0.1
note_on channel=1 note=65 velocity=64 time=0
note_on channel=3 note=67 velocity=94 time=0
note_on channel=9 note=46 velocity=64 time=0
note_on channel=1 note=69 velocity=0 time=0.05
note_on channel=9 note=46 velocity=0 time=0
note_on channel=3 note=65 velocity=0 time=0.20500000000000002
note_on channel=1 note=69 velocity=64 time=0.045
note_on channel=3 note=69 velocity=94 time=0
note_on channel=9 note=38 velocity=64 time=0
note_on channel=3 note=67 velocity=0 time=0.09
note_on channel=9 note=38 velocity=0 time=0.03
note_on channel=1 note=74 velocity=0 time=0.04
note_on channel=1 note=65 velocity=0 time=0.015
note_on channel=0 note=38 velocity=0 time=0.005
note_on channel=1 note=69 velocity=0 time=0.015
note_on channel=1 note=62 velocity=0 time=0.015
note_on channel=0 note=33 velocity=64 time=0.09
note_on channel=1 note=69 velocity=64 time=0
note_on channel=1 note=65 velocity=64 time=0
note_on channel=1 note=76 velocity=64 time=0
note_on channel=1 note=64 velocity=64 time=0
note_on channel=9 note=46 velocity=64 time=0
note_on channel=9 note=46 velocity=0 time=0.05
note_on channel=1 note=76 velocity=0 time=0.13
note_on channel=1 note=64 velocity=0 time=0.015
note_on channel=0 note=33 velocity=0 time=0.005
note_on channel=1 note=65 velocity=0 time=0.005
note_on channel=1 note=69 velocity=0 time=0.015
note_on channel=0 note=33 velocity=64 time=0.08
note_on channel=1 note=64 velocity=64 time=0
note_on channel=1 note=76 velocity=64 time=0
note_on channel=1 note=65 velocity=64 time=0
note_on channel=1 note=69 velocity=64 time=0
note_on channel=9 note=46 velocity=64 time=0
note_on channel=9 note=46 velocity=0 time=0.05
note_on channel=3 note=73 velocity=94 time=0.25
note_on channel=9 note=38 velocity=64 time=0
note_on channel=3 note=69 velocity=0 time=0.06
note_on channel=0 note=33 velocity=0 time=0.025
note_on channel=9 note=38 velocity=0 time=0.04
note_on channel=0 note=38 velocity=64 time=0.17500000000000002
note_on channel=3 note=69 velocity=94 time=0
note_on channel=9 note=46 velocity=64 time=0
note_on channel=3 note=73 velocity=0 time=0.035
note_on channel=9 note=46 velocity=0 time=0.02
note_on channel=1 note=76 velocity=0 time=0.025
note_on channel=1 note=69 velocity=0 time=0.025
note_on channel=1 note=65 velocity=0 time=0.015
note_on channel=1 note=64 velocity=0 time=0.015
note_on channel=0 note=38 velocity=0 time=0.065
note_on channel=0 note=38 velocity=64 time=0.1
note_on channel=1 note=62 velocity=64 time=0
note_on channel=1 note=74 velocity=64 time=0
note_on channel=1 note=69 velocity=64 time=0
note_on channel=1 note=65 velocity=64 time=0
note_on channel=3 note=67 velocity=94 time=0
note_on channel=9 note=46 velocity=64 time=0
note_on channel=3 note=69 velocity=0 time=0.035
note_on channel=9 note=46 velocity=0 time=0.02
note_on channel=1 note=74 velocity=0 time=0.135
note_on channel=1 note=65 velocity=0 time=0.025
note_on channel=1 note=69 velocity=0 time=0.02
note_on channel=1 note=62 velocity=0 time=0.04
note_on channel=1 note=65 velocity=64 time=0.025
note_on channel=1 note=64 velocity=64 time=0
note_on channel=1 note=76 velocity=64 time=0
note_on channel=3 note=65 velocity=94 time=0
note_on channel=9 note=38 velocity=64 time=0
note_on channel=3 note=67 velocity=0 time=0.055
note_on channel=9 note=38 velocity=0 time=0.055
note_on channel=0 note=38 velocity=0 time=0.07
note_on channel=0 note=33 velocity=64 time=0.12
note_on channel=1 note=74 velocity=64 time=0
note_on channel=9 note=46 velocity=64 time=0
note_on channel=9 note=46 velocity=0 time=0.055
note_on channel=1 note=76 velocity=0 time=0.06
note_on channel=0 note=33 velocity=0 time=0.065
note_on channel=1 note=64 velocity=0 time=0.02
note_on channel=0 note=33 velocity=64 time=0.1
note_on channel=1 note=69 velocity=64 time=0
note_on channel=9 note=46 velocity=64 time=0
note_on channel=1 note=65 velocity=0 time=0.05
note_on channel=9 note=46 velocity=0 time=0.005
note_on channel=0 note=33 velocity=0 time=0.16
note_on channel=0 note=38 velocity=64 time=0.085
note_on channel=1 note=65 velocity=64 time=0
note_on channel=3 note=67 velocity=94 time=0
note_on channel=9 note=38 velocity=64 time=0
note_on channel=3 note=65 velocity=0 time=0.035
note_on channel=1 note=69 velocity=0 time=0.03
note_on channel=9 note=38 velocity=0 time=0.065
note_on channel=1 note=65 velocity=0 time=0.005
note_on channel=1 note=59 velocity=64 time=0.015
note_on channel=1 note=60 velocity=64 time=0
note_on channel=0 note=38 velocity=0 time=0.015
note_on channel=1 note=74 velocity=0 time=0.01
note_on channel=3 note=67 velocity=0 time=0.065
note_on channel=1 note=59 velocity=0 time=0.025
note_on channel=1 note=60 velocity=0 time=0.02
note_on channel=0 note=43 velocity=64 time=0.015
note_on channel=1 note=62 velocity=64 time=0
note_on channel=1 note=74 velocity=64 time=0
note_on channel=1 note=70 velocity=64 time=0
note_on channel=3 note=67 velocity=94 time=0
note_on channel=9 note=46 velocity=64 time=0
note_on channel=9 note=46 velocity=0 time=0.055
note_on channel=0 note=43 velocity=0 time=0.14
note_on channel=0 note=43 velocity=64 time=0.105
note_on channel=1 note=67 velocity=64 time=0
note_on channel=3 note=69 velocity=94 time=0
note_on channel=9 note=46 velocity=64 time=0
note_on channel=9 note=46 velocity=0 time=0.045
note_on channel=1 note=70 velocity=0 time=0.035
note_on channel=3 note=67 velocity=0 time=0.045
note_on channel=1 note=70 velocity=64 time=0.17500000000000002
note_on channel=3 note=70 velocity=94 time=0
note_on channel=9 note=38 velocity=64 time=0
note_on channel=3 note=69 velocity=0 time=0.055
note_on channel=9 note=38 velocity=0 time=0.065
note_on channel=1 note=67 velocity=0 time=0.07
note_on channel=1 note=74 velocity=0 time=0.01
note_on channel=1 note=70 velocity=0 time=0.015
note_on channel=0 note=43 velocity=0 time=0.005
note_on channel=0 note=38 velocity=64 time=0.08
note_on channel=1 note=67 velocity=64 time=0
note_on channel=1 note=76 velocity=64 time=0
note_on channel=9 note=46 velocity=64 time=0
note_on channel=9 note=46 velocity=0 time=0.055
note_on channel=0 note=38 velocity=0 time=0.13
note_on channel=0 note=38 velocity=64 time=0.115
note_on channel=1 note=74 velocity=64 time=0
note_on channel=1 note=70 velocity=64 time=0
note_on channel=9 note=46 velocity=64 time=0
note_on channel=1 note=76 velocity=0 time=0.025
note_on channel=9 note=46 velocity=0 time=0.025
note_on channel=1 note=67 velocity=0 time=0.015
note_on channel=3 note=70 velocity=0 time=0.115
note_on channel=1 note=67 velocity=64 time=0.12
note_on channel=1 note=57 velocity=64 time=0
note_on channel=3 note=70 velocity=94 time=0
note_on channel=9 note=38 velocity=64 time=0
note_on channel=1 note=70 velocity=0 time=0.075
note_on channel=1 note=74 velocity=0 time=0.05
note_on channel=9 note=38 velocity=0 time=0.01
note_on channel=1 note=57 velocity=0 time=0.005
note_on channel=1 note=67 velocity=0 time=0
note_on channel=1 note=59 velocity=64 time=0.01
note_on channel=0 note=38 velocity=0 time=0.01
note_on channel=1 note=62 velocity=0 time=0.005
note_on channel=1 note=59 velocity=0 time=0.115
note_on channel=0 note=36 velocity=64 time=0.02
note_on channel=1 note=60 velocity=64 time=0
note_on channel=1 note=72 velocity=64 time=0
note_on channel=1 note=67 velocity=64 time=0
note_on channel=3 note=69 velocity=94 time=0
note_on channel=9 note=46 velocity=64 time=0
note_on channel=3 note=70 velocity=0 time=0.015
note_on channel=9 note=46 velocity=0 time=0.04
note_on channel=0 note=36 velocity=0 time=0.16
note_on channel=0 note=36 velocity=64 time=0.085
note_on channel=1 note=64 velocity=64 time=0
note_on channel=3 note=70 velocity=94 time=0
note_on channel=9 note=46 velocity=64 time=0
note_on channel=3 note=69 velocity=0 time=0.035
note_on channel=9 note=46 velocity=0 time=0.01
note_on channel=1 note=67 velocity=0 time=0.005
note_on channel=3 note=70 velocity=0 time=0.18
note_on channel=1 note=72 velocity=0 time=0.025
note_on channel=1 note=67 velocity=64 time=0.045
note_on channel=3 note=76 velocity=94 time=0
note_on channel=9 note=38 velocity=64 time=0
note_on channel=9 note=38 velocity=0 time=0.13
note_on channel=0 note=36 velocity=0 time=0.015
note_on channel=1 note=64 velocity=0 time=0.08
note_on channel=1 note=67 velocity=0 time=0.03
note_on channel=0 note=43 velocity=64 time=0.045
note_on channel=1 note=74 velocity=64 time=0
note_on channel=1 note=64 velocity=64 time=0
note_on channel=1 note=67 velocity=64 time=0
note_on channel=9 note=46 velocity=64 time=0
note_on channel=1 note=67 velocity=0 time=0.025
note_on channel=9 note=46 velocity=0 time=0.025
note_on channel=0 note=43 velocity=0 time=0.15
note_on channel=0 note=43 velocity=64 time=0.1
note_on channel=1 note=72 velocity=64 time=0
note_on channel=3 note=74 velocity=94 time=0
note_on channel=9 note=46 velocity=64 time=0
note_on channel=3 note=76 velocity=0 time=0.035
note_on channel=1 note=74 velocity=0 time=0.005
note_on channel=9 note=46 velocity=0 time=0.015
note_on channel=1 note=64 velocity=0 time=0.075
note_on channel=1 note=67 velocity=64 time=0.17
note_on channel=9 note=38 velocity=64 time=0
note_on channel=9 note=38 velocity=0 time=0.125
note_on channel=0 note=43 velocity=0 time=0.055
note_on channel=1 note=67 velocity=0 time=0
note_on channel=1 note=72 velocity=0 time=0.02
note_on channel=1 note=60 velocity=0 time=0.025
note_on channel=3 note=74 velocity=0 time=0
note_on channel=0 note=41 velocity=64 time=0.075
note_on channel=1 note=60 velocity=64 time=0
note_on channel=1 note=72 velocity=64 time=0
note_on channel=1 note=69 velocity=64 time=0
note_on channel=3 note=69 velocity=94 time=0
note_on channel=9 note=46 velocity=64 time=0
note_on channel=9 note=46 velocity=0 time=0.055
note_on channel=0 note=41 velocity=0 time=0.16
note_on channel=1 note=69 velocity=0 time=0.08
note_on channel=0 note=41 velocity=64 time=0.005
note_on channel=1 note=65 velocity=64 time=0
note_on channel=3 note=68 velocity=94 time=0
note_on channel=9 note=46 velocity=64 time=0
note_on channel=3 note=69 velocity=0 time=0.025
note_on channel=9 note=46 velocity=0 time=0.025
note_on channel=3 note=68 velocity=0 time=0.2
note_on channel=1 note=69 velocity=64 time=0.05
note_on channel=3 note=69 velocity=94 time=0
note_on channel=9 note=38 velocity=64 time=0
note_on channel=1 note=72 velocity=0 time=0.05
note_on channel=9 note=38 velocity=0 time=0.075
note_on channel=0 note=41 velocity=0 time=0.085
note_on channel=0 note=36 velocity=64 time=0.09
note_on channel=1 note=72 velocity=64 time=0
note_on channel=3 note=77 velocity=94 time=0
note_on channel=9 note=46 velocity=64 time=0
note_on channel=9 note=46 velocity=0 time=0.055
note_on channel=3 note=69 velocity=0 time=0.025
note_on channel=0 note=36 velocity=0 time=0.125
note_on channel=1 note=72 velocity=0 time=0.025
note_on channel=0 note=36 velocity=64 time=0.07
note_on channel=1 note=74 velocity=64 time=0
note_on channel=1 note=62 velocity=64 time=0
note_on channel=3 note=74 velocity=94 time=0
note_on channel=9 note=46 velocity=64 time=0
note_on channel=9 note=46 velocity=0 time=0.045
note_on channel=3 note=77 velocity=0 time=0.04
note_on channel=1 note=60 velocity=0 time=0.005
note_on channel=1 note=69 velocity=0 time=0.035
note_on channel=1 note=65 velocity=0 time=0.01
note_on channel=1 note=74 velocity=0 time=0.13
note_on channel=1 note=75 velocity=64 time=0.035
note_on channel=1 note=63 velocity=64 time=0
note_on channel=3 note=69 velocity=94 time=0
note_on channel=9 note=38 velocity=64 time=0
note_on channel=3 note=74 velocity=0 time=0.02
note_on channel=1 note=62 velocity=0 time=0.005
note_on channel=0 note=36 velocity=0 time=0.005
note_on channel=9 note=38 velocity=0 time=0.085
note_on channel=1 note=75 velocity=0 time=0.12
note_on channel=0 note=33 velocity=64 time=0.065
note_on channel=1 note=64 velocity=64 time=0
note_on channel=1 note=73 velocity=64 time=0
note_on channel=1 note=76 velocity=64 time=0
note_on channel=3 note=67 velocity=94 time=0
note_on channel=9 note=46 velocity=64 time=0
note_on channel=3 note=69 velocity=0 time=0.05
note_on channel=9 note=46 velocity=0 time=0
note_on channel=1 note=63 velocity=0 time=0.005
note_on channel=0 note=33 velocity=0 time=0.135
note_on channel=3 note=67 velocity=0 time=0.105
note_on channel=0 note=33 velocity=64 time=0.005
note_on channel=1 note=69 velocity=64 time=0
note_on channel=3 note=65 velocity=94 time=0
note_on channel=9 note=46 velocity=64 time=0
note_on channel=9 note=46 velocity=0 time=0.05
note_on channel=1 note=73 velocity=0 time=0.02
note_on channel=1 note=73 velocity=64 time=0.23
note_on channel=3 note=64 velocity=94 time=0
note_on channel=9 note=38 velocity=64 time=0
note_on channel=3 note=65 velocity=0 time=0.05
note_on channel=0 note=33 velocity=0 time=0.075
note_on channel=9 note=38 velocity=0 time=0.005
note_on channel=1 note=76 velocity=0 time=0.02
note_on channel=1 note=73 velocity=0 time=0.035
note_on channel=1 note=69 velocity=0 time=0.01
note_on channel=1 note=64 velocity=0 time=0.03
note_on channel=0 note=40 velocity=64 time=0.075
note_on channel=1 note=77 velocity=64 time=0
note_on channel=1 note=69 velocity=64 time=0
note_on channel=1 note=65 velocity=64 time=0
note_on channel=9 note=46 velocity=64 time=0
note_on channel=9 note=46 velocity=0 time=0.045
note_on channel=0 note=40 velocity=0 time=0.135
note_on channel=0 note=40 velocity=64 time=0.12
note_on channel=1 note=76 velocity=64 time=0
note_on channel=1 note=64 velocity=64 time=0
note_on channel=1 note=73 velocity=64 time=0
note_on channel=9 note=46 velocity=64 time=0
note_on channel=1 note=77 velocity=0 time=0.03
note_on channel=9 note=46 velocity=0 time=0.03
note_on channel=1 note=69 velocity=0 time=0.015
note_on channel=1 note=65 velocity=0 time=0.045
note_on channel=1 note=69 velocity=64 time=0.18
note_on channel=3 note=61 velocity=94 time=0
note_on channel=9 note=38 velocity=64 time=0
note_on channel=3 note=64 velocity=0 time=0.005
note_on channel=1 note=73 velocity=0 time=0.085
note_on channel=1 note=76 velocity=0 time=0.03
note_on channel=9 note=38 velocity=0 time=0
note_on channel=0 note=40 velocity=0 time=0.015
note_on channel=1 note=64 velocity=0 time=0.035
note_on channel=1 note=69 velocity=0 time=0.015
note_on channel=3 note=61 velocity=0 time=0.075
note_on channel=0 note=38 velocity=64 time=0.04
note_on channel=1 note=74 velocity=64 time=0
note_on channel=1 note=62 velocity=64 time=0
note_on channel=3 note=62 velocity=94 time=0
note_on channel=9 note=46 velocity=64 time=0
note_on channel=9 note=46 velocity=0 time=0.045
note_on channel=0 note=38 velocity=0 time=0.145
note_on channel=0 note=38 velocity=64 time=0.11
note_on channel=1 note=69 velocity=64 time=0
note_on channel=9 note=46 velocity=64 time=0
note_on channel=9 note=46 velocity=0 time=0.06
note_on channel=1 note=65 velocity=64 time=0.24
note_on channel=9 note=38 velocity=64 time=0
note_on channel=1 note=69 velocity=0 time=0.075
note_on channel=9 note=38 velocity=0 time=0.055
note_on channel=1 note=74 velocity=0 time=0.015
note_on channel=0 note=38 velocity=0 time=0.025
note_on channel=1 note=65 velocity=0 time=0.06
note_on channel=1 note=62 velocity=0 time=0.02
note_on channel=0 note=33 velocity=64 time=0.05
note_on channel=1 note=64 velocity=64 time=0
note_on channel=1 note=76 velocity=64 time=0
note_on channel=1 note=65 velocity=64 time=0
note_on channel=9 note=46 velocity=64 time=0
note_on channel=9 note=46 velocity=0 time=0.05
note_on channel=0 note=33 velocity=0 time=0.125
note_on channel=0 note=33 velocity=64 time=0.125
note_on channel=1 note=74 velocity=64 time=0
note_on channel=9 note=46 velocity=64 time=0
note_on channel=9 note=46 velocity=0 time=0.06
note_on channel=1 note=76 velocity=0 time=0.005
note_on channel=1 note=65 velocity=0 time=0.08
note_on channel=1 note=64 velocity=0 time=0.095
note_on channel=1 note=69 velocity=64 time=0.06
note_on channel=9 note=38 velocity=64 time=0
note_on channel=3 note=62 velocity=0 time=0.065
note_on channel=0 note=33 velocity=0 time=0.065
note_on channel=1 note=59 velocity=64 time=0.02
note_on channel=1 note=60 velocity=64 time=0
note_on channel=9 note=38 velocity=0 time=0.01
note_on channel=1 note=69 velocity=0 time=0.005
note_on channel=1 note=74 velocity=0 time=0
note_on channel=1 note=60 velocity=0 time=0.1
note_on channel=1 note=59 velocity=0 time=0.005
note_on channel=0 note=38 velocity=64 time=0.03
note_on channel=1 note=62 velocity=64 time=0
note_on channel=1 note=74 velocity=64 time=0
note_on channel=1 note=69 velocity=64 time=0
note_on channel=1 note=65 velocity=64 time=0
note_on channel=9 note=46 velocity=64 time=0
note_on channel=9 note=46 velocity=0 time=0.045
note_on channel=1 note=65 velocity=0 time=0.38
note_on channel=0 note=38 velocity=0 time=0.075
note_on channel=1 note=69 velocity=0 time=0.01
note_on channel=1 note=74 velocity=0 time=0.02
note_on channel=0 note=40 velocity=64 time=0.07
note_on channel=1 note=76 velocity=64 time=0
note_on channel=1 note=69 velocity=64 time=0
note_on channel=1 note=74 velocity=64 time=0
note_on channel=1 note=66 velocity=64 time=0
note_on channel=9 note=46 velocity=64 time=0
note_on channel=9 note=46 velocity=0 time=0.045
note_on channel=1 note=74 velocity=0 time=0.015
note_on channel=0 note=40 velocity=0 time=0.405
note_on channel=1 note=66 velocity=0 time=0.035
note_on channel=1 note=76 velocity=0 time=0.01
note_on channel=1 note=69 velocity=0 time=0.025
note_on channel=0 note=42 velocity=64 time=0.065
note_on channel=1 note=74 velocity=64 time=0
note_on channel=1 note=69 velocity=64 time=0
note_on channel=1 note=66 velocity=64 time=0
note_on channel=9 note=46 velocity=64 time=0
note_on channel=9 note=46 velocity=0 time=0.05
note_on channel=1 note=62 velocity=0 time=0.045
note_on channel=2 note=58 velocity=64 time=0.20500000000000002
note_on channel=2 note=62 velocity=64 time=0
note_on channel=1 note=74 velocity=0 time=0.005
note_on channel=1 note=69 velocity=0 time=0
note_on channel=1 note=66 velocity=0 time=0
note_on channel=0 note=42 velocity=0 time=0.055
note_on channel=2 note=58 velocity=0 time=0.095
note_on channel=2 note=62 velocity=0 time=0.08
note_on channel=0 note=43 velocity=64 time=0.065
note_on channel=1 note=74 velocity=64 time=0
note_on channel=1 note=70 velocity=64 time=0
note_on channel=1 note=62 velocity=64 time=0
note_on channel=2 note=67 velocity=64 time=0
note_on channel=2 note=70 velocity=64 time=0
note_on channel=9 note=46 velocity=64 time=0
note_on channel=9 note=46 velocity=0 time=0.05
note_on channel=2 note=67 velocity=0 time=0.15
note_on channel=0 note=43 velocity=0 time=0.005
note_on channel=2 note=70 velocity=0 time=0.035
note_on channel=1 note=70 velocity=0 time=0.055
note_on channel=0 note=43 velocity=64 time=0.005
note_on channel=1 note=67 velocity=64 time=0
note_on channel=2 note=67 velocity=64 time=0
note_on channel=2 note=70 velocity=64 time=0
note_on channel=9 note=46 velocity=64 time=0
note_on channel=9 note=46 velocity=0 time=0.03
note_on channel=2 note=67 velocity=0 time=0.17
note_on channel=2 note=70 velocity=0 time=0.025
note_on channel=1 note=70 velocity=64 time=0.075
note_on channel=2 note=67 velocity=64 time=0
note_on channel=2 note=70 velocity=64 time=0
note_on channel=9 note=38 velocity=64 time=0
note_on channel=9 note=38 velocity=0 time=0.1
note_on channel=1 note=74 velocity=0 time=0.03
note_on channel=1 note=62 velocity=0 time=0.02
note_on channel=1 note=67 velocity=0 time=0.025
note_on channel=1 note=70 velocity=0 time=0.015
note_on channel=2 note=67 velocity=0 time=0.025
note_on channel=0 note=43 velocity=0 time=0.005
note_on channel=2 note=70 velocity=0 time=0.035
note_on channel=0 note=38 velocity=64 time=0.045
note_on channel=1 note=76 velocity=64 time=0
note_on channel=1 note=70 velocity=64 time=0
note_on channel=1 note=64 velocity=64 time=0
note_on channel=1 note=67 velocity=64 time=0
note_on channel=2 note=66 velocity=64 time=0
note_on channel=2 note=69 velocity=64 time=0
note_on channel=9 note=46 velocity=64 time=0
note_on channel=9 note=46 velocity=0 time=0.05
note_on channel=1 note=67 velocity=0 time=0.14
note_on channel=1 note=76 velocity=0 time=0.005
note_on channel=1 note=70 velocity=0 time=0
note_on channel=1 note=64 velocity=0 time=0
note_on channel=2 note=66 velocity=0 time=0
note_on channel=0 note=38 velocity=0 time=0.02
note_on channel=2 note=69 velocity=0 time=0.035
note_on channel=0 note=38 velocity=64 time=0.05
note_on channel=1 note=64 velocity=64 time=0
note_on channel=1 note=76 velocity=64 time=0
note_on channel=1 note=67 velocity=64 time=0
note_on channel=1 note=70 velocity=64 time=0
note_on channel=2 note=69 velocity=64 time=0
note_on channel=2 note=72 velocity=64 time=0
note_on channel=9 note=46 velocity=64 time=0
note_on channel=9 note=46 velocity=0 time=0.04
note_on channel=2 note=69 velocity=0 time=0.16
note_on channel=2 note=67 velocity=64 time=0.1
note_on channel=2 note=70 velocity=64 time=0
note_on channel=9 note=38 velocity=64 time=0
note_on channel=2 note=72 velocity=0 time=0.045
note_on channel=1 note=70 velocity=0 time=0.02
note_on channel=1 note=76 velocity=0 time=0.03
note_on channel=9 note=38 velocity=0 time=0.005
note_on channel=1 note=67 velocity=0 time=0.015
note_on channel=0 note=38 velocity=0 time=0.015
note_on channel=1 note=64 velocity=0 time=0.025
note_on channel=2 note=70 velocity=0 time=0.015
note_on channel=2 note=67 velocity=0 time=0.12
note_on channel=0 note=43 velocity=64 time=0.01
note_on channel=9 note=46 velocity=64 time=0
note_on channel=9 note=46 velocity=0 time=0.05
note_on channel=0 note=43 velocity=0 time=0.17
note_on channel=0 note=43 velocity=64 time=0.08
note_on channel=1 note=67 velocity=64 time=0
note_on channel=1 note=70 velocity=64 time=0
note_on channel=1 note=74 velocity=64 time=0
note_on channel=1 note=62 velocity=64 time=0
note_on channel=2 note=70 velocity=64 time=0
note_on channel=2 note=67 velocity=64 time=0
note_on channel=9 note=46 velocity=64 time=0
note_on channel=9 note=46 velocity=0 time=0.05
note_on channel=1 note=74 velocity=0 time=0.145
note_on channel=2 note=70 velocity=0 time=0.015
note_on channel=2 note=67 velocity=0 time=0.005
note_on channel=1 note=67 velocity=0 time=0.01
note_on channel=1 note=70 velocity=0 time=0.02
note_on channel=1 note=67 velocity=64 time=0.055
note_on channel=1 note=76 velocity=64 time=0
note_on channel=1 note=64 velocity=64 time=0
note_on channel=2 note=70 velocity=64 time=0
note_on channel=2 note=76 velocity=64 time=0
note_on channel=9 note=38 velocity=64 time=0
note_on channel=1 note=62 velocity=0 time=0.045
note_on channel=9 note=38 velocity=0 time=0.055
note_on channel=0 note=43 velocity=0 time=0.09
note_on channel=0 note=38 velocity=64 time=0.11
note_on channel=1 note=74 velocity=64 time=0
note_on channel=9 note=46 velocity=64 time=0
note_on channel=9 note=46 velocity=0 time=0.045
note_on channel=1 note=76 velocity=0 time=0.02
note_on channel=1 note=64 velocity=0 time=0.03
note_on channel=0 note=38 velocity=0 time=0.115
note_on channel=1 note=67 velocity=0 time=0.075
note_on channel=0 note=38 velocity=64 time=0.015
note_on channel=1 note=70 velocity=64 time=0
note_on channel=9 note=46 velocity=64 time=0
note_on channel=9 note=46 velocity=0 time=0.055
note_on channel=2 note=70 velocity=0 time=0.125
note_on channel=2 note=76 velocity=0 time=0.08
note_on channel=1 note=74 velocity=0 time=0.02
note_on channel=1 note=67 velocity=64 time=0.02
note_on channel=1 note=74 velocity=64 time=0
note_on channel=2 note=70 velocity=64 time=0
note_on channel=2 note=74 velocity=64 time=0
note_on channel=9 note=38 velocity=64 time=0
note_on channel=1 note=74 velocity=0 time=0.05
note_on channel=0 note=38 velocity=0 time=0.015
note_on channel=1 note=70 velocity=0 time=0.03
note_on channel=9 note=38 velocity=0 time=0.015
note_on channel=1 note=67 velocity=0 time=0.075
note_on channel=2 note=70 velocity=0 time=0.065
note_on channel=2 note=74 velocity=0 time=0.045
note_on channel=0 note=38 velocity=64 time=0.005
note_on channel=1 note=62 velocity=64 time=0
note_on channel=1 note=74 velocity=64 time=0
note_on channel=1 note=69 velocity=64 time=0
note_on channel=2 note=65 velocity=64 time=0
note_on channel=2 note=69 velocity=64 time=0
note_on channel=9 note=46 velocity=64 time=0
note_on channel=9 note=46 velocity=0 time=0.05
note_on channel=2 note=69 velocity=0 time=0.155
note_on channel=2 note=65 velocity=0 time=0.01
note_on channel=0 note=38 velocity=0 time=0.01
note_on channel=0 note=38 velocity=64 time=0.075
note_on channel=1 note=65 velocity=64 time=0
note_on channel=2 note=65 velocity=64 time=0
note_on channel=2 note=69 velocity=64 time=0
note_on channel=9 note=46 velocity=64 time=0
note_on channel=9 note=46 velocity=0 time=0.045
note_on channel=1 note=69 velocity=0 time=0.005
note_on channel=2 note=69 velocity=0 time=0.165
note_on channel=2 note=65 velocity=0 time=0.005
note_on channel=1 note=69 velocity=64 time=0.08
note_on channel=2 note=65 velocity=64 time=0
note_on channel=2 note=69 velocity=64 time=0
note_on channel=9 note=38 velocity=64 time=0
note_on channel=9 note=38 velocity=0 time=0.11
note_on channel=1 note=65 velocity=0 time=0.005
note_on channel=1 note=74 velocity=0 time=0
note_on channel=1 note=62 velocity=0 time=0.065
note_on channel=2 note=69 velocity=0 time=0
note_on channel=1 note=69 velocity=0 time=0.005
note_on channel=0 note=38 velocity=0 time=0.01
note_on channel=2 note=65 velocity=0 time=0.045
note_on channel=0 note=33 velocity=64 time=0.06
note_on channel=1 note=69 velocity=64 time=0
note_on channel=1 note=76 velocity=64 time=0
note_on channel=1 note=65 velocity=64 time=0
note_on channel=1 note=64 velocity=64 time=0
note_on channel=2 note=64 velocity=64 time=0
note_on channel=2 note=67 velocity=64 time=0
note_on channel=9 note=46 velocity=64 time=0
note_on channel=9 note=46 velocity=0 time=0.05
note_on channel=1 note=76 velocity=0 time=0.14
note_on channel=0 note=33 velocity=0 time=0.01
note_on channel=1 note=64 velocity=0 time=0
note_on channel=1 note=65 velocity=0 time=0.005
note_on channel=2 note=67 velocity=0 time=0.02
note_on channel=1 note=69 velocity=0 time=0.005
note_on channel=2 note=64 velocity=0 time=0.02
note_on channel=0 note=33 velocity=64 time=0.05
note_on channel=1 note=64 velocity=64 time=0
note_on channel=1 note=76 velocity=64 time=0
note_on channel=1 note=69 velocity=64 time=0
note_on channel=1 note=65 velocity=64 time=0
note_on channel=2 note=67 velocity=64 time=0
note_on channel=2 note=70 velocity=64 time=0
note_on channel=9 note=46 velocity=64 time=0
note_on channel=9 note=46 velocity=0 time=0.05
note_on channel=2 note=67 velocity=0 time=0.2
note_on channel=2 note=70 velocity=0 time=0.04
note_on channel=2 note=65 velocity=64 time=0.01
note_on channel=2 note=69 velocity=64 time=0
note_on channel=9 note=38 velocity=64 time=0
note_on channel=9 note=38 velocity=0 time=0.115
note_on channel=0 note=33 velocity=0 time=0.045
note_on channel=2 note=69 velocity=0 time=0.055
note_on channel=2 note=65 velocity=0 time=0.05
note_on channel=1 note=76 velocity=0 time=0.03
note_on channel=0 note=38 velocity=64 time=0.005
note_on channel=9 note=46 velocity=64 time=0
note_on channel=1 note=69 velocity=0 time=0.015
note_on channel=1 note=65 velocity=0 time=0.02
note_on channel=9 note=46 velocity=0 time=0.025
note_on channel=1 note=64 velocity=0 time=0.015
note_on channel=0 note=38 velocity=0 time=0.11
note_on channel=0 note=38 velocity=64 time=0.115
note_on channel=1 note=74 velocity=64 time=0
note_on channel=1 note=62 velocity=64 time=0
note_on channel=1 note=69 velocity=64 time=0
note_on channel=2 note=69 velocity=64 time=0
note_on channel=2 note=65 velocity=64 time=0
note_on channel=9 note=46 velocity=64 time=0
note_on channel=9 note=46 velocity=0 time=0.05
note_on channel=2 note=65 velocity=0 time=0.13
note_on channel=1 note=65 velocity=64 time=0.12
note_on channel=2 note=74 velocity=64 time=0
note_on channel=2 note=69 velocity=64 time=0
note_on channel=9 note=38 velocity=64 time=0
note_on channel=1 note=69 velocity=0 time=0.03
note_on channel=2 note=69 velocity=0 time=0
note_on channel=9 note=38 velocity=0 time=0.065
note_on channel=0 note=38 velocity=0 time=0.075
note_on channel=0 note=33 velocity=64 time=0.13
note_on channel=1 note=69 velocity=64 time=0
note_on channel=9 note=46 velocity=64 time=0
note_on channel=1 note=74 velocity=0 time=0.045
note_on channel=9 note=46 velocity=0 time=0
note_on channel=1 note=62 velocity=0 time=0.105
note_on channel=0 note=33 velocity=0 time=0.055
note_on channel=0 note=33 velocity=64 time=0.095
note_on channel=1 note=74 velocity=64 time=0
note_on channel=1 note=62 velocity=64 time=0
note_on channel=9 note=46 velocity=64 time=0
note_on channel=9 note=46 velocity=0 time=0.05
note_on channel=1 note=65 velocity=0 time=0.05
note_on channel=1 note=69 velocity=0 time=0.06
note_on channel=1 note=74 velocity=0 time=0.01
note_on channel=1 note=62 velocity=0 time=0.045
note_on channel=2 note=69 velocity=0 time=0.06
note_on channel=1 note=75 velocity=64 time=0.025
note_on channel=1 note=63 velocity=64 time=0
note_on channel=2 note=73 velocity=64 time=0
note_on channel=2 note=69 velocity=64 time=0
note_on channel=9 note=38 velocity=64 time=0
note_on channel=0 note=33 velocity=0 time=0.06
note_on channel=2 note=74 velocity=0 time=0
note_on channel=9 note=38 velocity=0 time=0.045
note_on channel=1 note=75 velocity=0 time=0.05
note_on channel=1 note=63 velocity=0 time=0.025
note_on channel=2 note=69 velocity=0 time=0.06
note_on channel=0 note=33 velocity=64 time=0.06
note_on channel=1 note=73 velocity=64 time=0
note_on channel=1 note=64 velocity=64 time=0
note_on channel=1 note=76 velocity=64 time=0
note_on channel=2 note=69 velocity=64 time=0
note_on channel=2 note=65 velocity=64 time=0
note_on channel=9 note=46 velocity=64 time=0
note_on channel=2 note=73 velocity=0 time=0.045
note_on channel=9 note=46 velocity=0 time=0.015
note_on channel=0 note=33 velocity=0 time=0.135
note_on channel=2 note=65 velocity=0 time=0.05
note_on channel=0 note=33 velocity=64 time=0.055
note_on channel=1 note=69 velocity=64 time=0
note_on channel=2 note=67 velocity=64 time=0
note_on channel=2 note=64 velocity=64 time=0
note_on channel=9 note=46 velocity=64 time=0
note_on channel=2 note=69 velocity=0 time=0.035
note_on channel=9 note=46 velocity=0 time=0.015
note_on channel=1 note=73 velocity=0 time=0.005
note_on channel=2 note=64 velocity=0 time=0.12
note_on channel=2 note=67 velocity=0 time=0.05
note_on channel=1 note=73 velocity=64 time=0.075
note_on channel=2 note=67 velocity=64 time=0
note_on channel=2 note=64 velocity=64 time=0
note_on channel=9 note=38 velocity=64 time=0
note_on channel=1 note=76 velocity=0 time=0.105
note_on channel=9 note=38 velocity=0 time=0
note_on channel=1 note=69 velocity=0 time=0.01
note_on channel=1 note=73 velocity=0 time=0.045
note_on channel=0 note=33 velocity=0 time=0.01
note_on channel=1 note=64 velocity=0 time=0.015
note_on channel=2 note=64 velocity=0 time=0.015
note_on channel=0 note=40 velocity=64 time=0.1
note_on channel=1 note=77 velocity=64 time=0
note_on channel=1 note=69 velocity=64 time=0
note_on channel=1 note=65 velocity=64 time=0
note_on channel=1 note=73 velocity=64 time=0
note_on channel=2 note=66 velocity=64 time=0
note_on channel=2 note=62 velocity=64 time=0
note_on channel=9 note=46 velocity=64 time=0
note_on channel=2 note=67 velocity=0 time=0.01
note_on channel=9 note=46 velocity=0 time=0.04
note_on channel=1 note=73 velocity=0 time=0.105
note_on channel=1 note=77 velocity=0 time=0.025
note_on channel=1 note=69 velocity=0 time=0
note_on channel=1 note=65 velocity=0 time=0
note_on channel=0 note=40 velocity=0 time=0.005
note_on channel=2 note=62 velocity=0 time=0.035
note_on channel=2 note=66 velocity=0 time=0.02
note_on channel=0 note=40 velocity=64 time=0.06
note_on channel=1 note=77 velocity=64 time=0
note_on channel=1 note=65 velocity=64 time=0
note_on channel=1 note=69 velocity=64 time=0
note_on channel=2 note=69 velocity=64 time=0
note_on channel=2 note=65 velocity=64 time=0
note_on channel=9 note=46 velocity=64 time=0
note_on channel=9 note=46 velocity=0 time=0.05
note_on channel=2 note=65 velocity=0 time=0.16
note_on channel=2 note=69 velocity=0 time=0.075
note_on channel=2 note=67 velocity=64 time=0.015
note_on channel=2 note=64 velocity=64 time=0
note_on channel=9 note=38 velocity=64 time=0
note_on channel=9 note=38 velocity=0 time=0.125
note_on channel=0 note=40 velocity=0 time=0.035
note_on channel=2 note=67 velocity=0 time=0.12
note_on channel=2 note=64 velocity=0 time=0.005
note_on channel=0 note=33 velocity=64 time=0.015
note_on channel=9 note=46 velocity=64 time=0
note_on channel=1 note=77 velocity=0 time=0.04
note_on channel=1 note=69 velocity=0 time=0.015
note_on channel=9 note=46 velocity=0 time=0.015
note_on channel=1 note=65 velocity=0 time=0.01
note_on channel=0 note=33 velocity=0 time=0.11
note_on channel=0 note=33 velocity=64 time=0.11
note_on channel=1 note=64 velocity=64 time=0
note_on channel=1 note=69 velocity=64 time=0
note_on channel=1 note=76 velocity=64 time=0
note_on channel=1 note=73 velocity=64 time=0
note_on channel=2 note=73 velocity=64 time=0
note_on channel=2 note=76 velocity=64 time=0
note_on channel=9 note=46 velocity=64 time=0
note_on channel=9 note=46 velocity=0 time=0.065
note_on channel=1 note=76 velocity=0 time=0.13
note_on channel=1 note=69 velocity=0 time=0.005
note_on channel=1 note=73 velocity=0 time=0.015
note_on channel=1 note=77 velocity=64 time=0.085
note_on channel=1 note=69 velocity=64 time=0
note_on channel=1 note=65 velocity=64 time=0
note_on channel=9 note=38 velocity=64 time=0
note_on channel=1 note=64 velocity=0 time=0.02
note_on channel=2 note=73 velocity=0 time=0.05
note_on channel=9 note=38 velocity=0 time=0.05
note_on channel=0 note=33 velocity=0 time=0.03
note_on channel=2 note=76 velocity=0 time=0.05
note_on channel=0 note=40 velocity=64 time=0.1
note_on channel=1 note=76 velocity=64 time=0
note_on channel=1 note=64 velocity=64 time=0
note_on channel=2 note=67 velocity=64 time=0
note_on channel=2 note=73 velocity=64 time=0
note_on channel=9 note=46 velocity=64 time=0
note_on channel=1 note=65 velocity=0 time=0.06
note_on channel=9 note=46 velocity=0 time=0
note_on channel=1 note=77 velocity=0 time=0.02
note_on channel=0 note=40 velocity=0 time=0.125
note_on channel=0 note=40 velocity=64 time=0.095
note_on channel=1 note=73 velocity=64 time=0
note_on channel=9 note=46 velocity=64 time=0
note_on channel=1 note=69 velocity=0 time=0.005
note_on channel=9 note=46 velocity=0 time=0.06
note_on channel=2 note=67 velocity=0 time=0.075
note_on channel=2 note=73 velocity=0 time=0.025
note_on channel=1 note=76 velocity=0 time=0.025
note_on channel=1 note=64 velocity=0 time=0.1
note_on channel=1 note=69 velocity=64 time=0.01
note_on channel=2 note=64 velocity=64 time=0
note_on channel=2 note=67 velocity=64 time=0
note_on channel=9 note=38 velocity=64 time=0
note_on channel=0 note=40 velocity=0 time=0.11
note_on channel=1 note=73 velocity=0 time=0.01
note_on channel=9 note=38 velocity=0 time=0.005
note_on channel=1 note=69 velocity=0 time=0.055
note_on channel=2 note=64 velocity=0 time=0.005
note_on channel=2 note=67 velocity=0 time=0.055
note_on channel=0 note=38 velocity=64 time=0.06
note_on channel=1 note=62 velocity=64 time=0
note_on channel=1 note=74 velocity=64 time=0
note_on channel=1 note=69 velocity=64 time=0
note_on channel=2 note=62 velocity=64 time=0
note_on channel=2 note=65 velocity=64 time=0
note_on channel=9 note=46 velocity=64 time=0
note_on channel=9 note=46 velocity=0 time=0.06
note_on channel=0 note=38 velocity=0 time=0.135
note_on channel=0 note=38 velocity=64 time=0.105
note_on channel=1 note=65 velocity=64 time=0
note_on channel=9 note=46 velocity=64 time=0
note_on channel=1 note=69 velocity=0 time=0.02
note_on channel=9 note=46 velocity=0 time=0.04
note_on channel=1 note=69 velocity=64 time=0.24
note_on channel=9 note=38 velocity=64 time=0
note_on channel=1 note=74 velocity=0 time=0.125
note_on channel=9 note=38 velocity=0 time=0.005
note_on channel=1 note=65 velocity=0 time=0.015
note_on channel=0 note=38 velocity=0 time=0.03
note_on channel=1 note=69 velocity=0 time=0.02
note_on channel=0 note=33 velocity=64 time=0.105
note_on channel=1 note=69 velocity=64 time=0
note_on channel=1 note=76 velocity=64 time=0
note_on channel=1 note=65 velocity=64 time=0
note_on channel=9 note=46 velocity=64 time=0
note_on channel=9 note=46 velocity=0 time=0.055
note_on channel=1 note=76 velocity=0 time=0.14
note_on channel=1 note=65 velocity=0 time=0.01
note_on channel=0 note=33 velocity=0 time=0.005
note_on channel=1 note=69 velocity=0 time=0.03
note_on channel=0 note=33 velocity=64 time=0.06
note_on channel=1 note=76 velocity=64 time=0
note_on channel=1 note=65 velocity=64 time=0
note_on channel=1 note=69 velocity=64 time=0
note_on channel=9 note=46 velocity=64 time=0
note_on channel=9 note=46 velocity=0 time=0.05
note_on channel=2 note=65 velocity=0 time=0.045
note_on channel=2 note=62 velocity=0 time=0.005
note_on channel=9 note=38 velocity=64 time=0.2
note_on channel=1 note=76 velocity=0 time=0.095
note_on channel=1 note=69 velocity=0 time=0.025
note_on channel=1 note=65 velocity=0 time=0.005
note_on channel=0 note=33 velocity=0 time=0.015
note_on channel=1 note=62 velocity=0 time=0.01
note_on channel=1 note=59 velocity=64 time=0
note_on channel=1 note=60 velocity=64 time=0
note_on channel=9 note=38 velocity=0 time=0
note_on channel=1 note=59 velocity=0 time=0.045
note_on channel=1 note=60 velocity=0 time=0.06
note_on channel=0 note=38 velocity=64 time=0.045
note_on channel=1 note=74 velocity=64 time=0
note_on channel=1 note=62 velocity=64 time=0
note_on channel=1 note=69 velocity=64 time=0
note_on channel=9 note=46 velocity=64 time=0
note_on channel=9 note=46 velocity=0 time=0.055
note_on channel=1 note=66 velocity=64 time=0.245
note_on channel=1 note=69 velocity=0 time=0.16
note_on channel=0 note=38 velocity=0 time=0.055
note_on channel=1 note=74 velocity=0 time=0.06
note_on channel=0 note=40 velocity=64 time=0.025
note_on channel=1 note=69 velocity=64 time=0
note_on channel=9 note=46 velocity=64 time=0
note_on channel=9 note=46 velocity=0 time=0.05
note_on channel=1 note=66 velocity=0 time=0.115
note_on channel=1 note=69 velocity=0 time=0.085
note_on channel=1 note=76 velocity=64 time=0.05
note_on channel=1 note=66 velocity=64 time=0
note_on channel=1 note=69 velocity=64 time=0
note_on channel=0 note=40 velocity=0 time=0.17500000000000002
note_on channel=1 note=76 velocity=0 time=0.005
note_on channel=1 note=69 velocity=0 time=0.02
note_on channel=1 note=66 velocity=0 time=0.01
note_on channel=0 note=42 velocity=64 time=0.09
note_on channel=1 note=66 velocity=64 time=0
note_on channel=1 note=69 velocity=64 time=0
note_on channel=1 note=76 velocity=64 time=0
note_on channel=9 note=46 velocity=64 time=0
note_on channel=9 note=46 velocity=0 time=0.055
note_on channel=1 note=74 velocity=64 time=0.245
note_on channel=2 note=62 velocity=64 time=0
note_on channel=2 note=58 velocity=64 time=0
note_on channel=1 note=76 velocity=0 time=0.025
note_on channel=1 note=66 velocity=0 time=0.07
note_on channel=1 note=69 velocity=0 time=0.045
note_on channel=1 note=62 velocity=0 time=0.01
note_on channel=0 note=42 velocity=0 time=0.045
note_on channel=2 note=62 velocity=0 time=0.025
note_on channel=1 note=74 velocity=0 time=0.01
note_on channel=2 note=58 velocity=0 time=0.04
note_on channel=0 note=43 velocity=64 time=0.03
note_on channel=1 note=70 velocity=64 time=0
note_on channel=1 note=62 velocity=64 time=0
note_on channel=1 note=74 velocity=64 time=0
note_on channel=2 note=70 velocity=64 time=0
note_on channel=2 note=67 velocity=64 time=0
note_on channel=9 note=46 velocity=64 time=0
note_on channel=9 note=46 velocity=0 time=0.055
note_on channel=0 note=43 velocity=0 time=0.16
note_on channel=2 note=67 velocity=0 time=0
note_on channel=2 note=70 velocity=0 time=0.045
note_on channel=0 note=43 velocity=64 time=0.04
note_on channel=1 note=67 velocity=64 time=0
note_on channel=2 note=70 velocity=64 time=0
note_on channel=2 note=67 velocity=64 time=0
note_on channel=9 note=46 velocity=64 time=0
note_on channel=9 note=46 velocity=0 time=0.05
note_on channel=1 note=70 velocity=0 time=0.035
note_on channel=2 note=70 velocity=0 time=0.14
note_on channel=2 note=67 velocity=0 time=0.01
note_on channel=1 note=70 velocity=64 time=0.065
note_on channel=2 note=70 velocity=64 time=0
note_on channel=2 note=67 velocity=64 time=0
note_on channel=9 note=38 velocity=64 time=0
note_on channel=9 note=38 velocity=0 time=0.1
note_on channel=1 note=67 velocity=0 time=0.035
note_on channel=1 note=62 velocity=0 time=0.035
note_on channel=1 note=70 velocity=0 time=0.015
note_on channel=1 note=74 velocity=0 time=0.01
note_on channel=0 note=43 velocity=0 time=0.025
note_on channel=2 note=67 velocity=0 time=0.005
note_on channel=2 note=70 velocity=0 time=0.045
note_on channel=0 note=38 velocity=64 time=0.03
note_on channel=1 note=76 velocity=64 time=0
note_on channel=1 note=67 velocity=64 time=0
note_on channel=1 note=64 velocity=64 time=0
note_on channel=1 note=70 velocity=64 time=0
note_on channel=2 note=69 velocity=64 time=0
note_on channel=2 note=66 velocity=64 time=0
note_on channel=9 note=46 velocity=64 time=0
note_on channel=9 note=46 velocity=0 time=0.05
note_on channel=1 note=70 velocity=0 time=0.14
note_on channel=1 note=64 velocity=0 time=0.005
note_on channel=1 note=76 velocity=0 time=0
note_on channel=0 note=38 velocity=0 time=0.005
note_on channel=1 note=67 velocity=0 time=0.01
note_on channel=2 note=66 velocity=0 time=0.01
note_on channel=0 note=38 velocity=64 time=0.08
note_on channel=1 note=64 velocity=64 time=0
note_on channel=1 note=76 velocity=64 time=0
note_on channel=1 note=67 velocity=64 time=0
note_on channel=1 note=70 velocity=64 time=0
note_on channel=2 note=72 velocity=64 time=0
note_on channel=2 note=69 velocity=64 time=0
note_on channel=9 note=46 velocity=64 time=0
note_on channel=2 note=69 velocity=0 time=0.01
note_on channel=9 note=46 velocity=0 time=0.035
note_on channel=2 note=69 velocity=0 time=0.2
note_on channel=2 note=70 velocity=64 time=0.055
note_on channel=2 note=67 velocity=64 time=0
note_on channel=9 note=38 velocity=64 time=0
note_on channel=2 note=72 velocity=0 time=0.07
note_on channel=9 note=38 velocity=0 time=0.045
note_on channel=0 note=38 velocity=0 time=0.03
note_on channel=2 note=70 velocity=0 time=0.125
note_on channel=2 note=67 velocity=0 time=0.005
note_on channel=0 note=43 velocity=64 time=0.025
note_on channel=9 note=46 velocity=64 time=0
note_on channel=9 note=46 velocity=0 time=0.055
note_on channel=1 note=70 velocity=0 time=0.105
note_on channel=1 note=76 velocity=0 time=0.04
note_on channel=0 note=43 velocity=0 time=0.01
note_on channel=1 note=64 velocity=0 time=0.02
note_on channel=1 note=67 velocity=0 time=0.02
note_on channel=0 note=43 velocity=64 time=0.05
note_on channel=1 note=62 velocity=64 time=0
note_on channel=1 note=70 velocity=64 time=0
note_on channel=1 note=74 velocity=64 time=0
note_on channel=2 note=70 velocity=64 time=0
note_on channel=2 note=67 velocity=64 time=0
note_on channel=9 note=46 velocity=64 time=0
note_on channel=9 note=46 velocity=0 time=0.045
note_on channel=1 note=74 velocity=0 time=0.13
note_on channel=2 note=67 velocity=0 time=0.01
note_on channel=1 note=70 velocity=0 time=0.025
note_on channel=2 note=70 velocity=0 time=0.005
note_on channel=1 note=62 velocity=0 time=0.065
note_on channel=1 note=67 velocity=64 time=0.02
note_on channel=1 note=76 velocity=64 time=0
note_on channel=1 note=64 velocity=64 time=0
note_on channel=2 note=76 velocity=64 time=0
note_on channel=2 note=70 velocity=64 time=0
note_on channel=9 note=38 velocity=64 time=0
note_on channel=9 note=38 velocity=0 time=0.12
note_on channel=0 note=43 velocity=0 time=0.045
note_on channel=0 note=38 velocity=64 time=0.135
note_on channel=1 note=74 velocity=64 time=0
note_on channel=9 note=46 velocity=64 time=0
note_on channel=9 note=46 velocity=0 time=0.045
note_on channel=1 note=76 velocity=0 time=0.04
note_on channel=0 note=38 velocity=0 time=0.115
note_on channel=0 note=38 velocity=64 time=0.1
note_on channel=1 note=70 velocity=64 time=0
note_on channel=9 note=46 velocity=64 time=0
note_on channel=1 note=67 velocity=0 time=0.03
note_on channel=9 note=46 velocity=0 time=0.015
note_on channel=2 note=70 velocity=0 time=0.09
note_on channel=1 note=74 velocity=0 time=0.085
note_on channel=1 note=64 velocity=0 time=0.005
note_on channel=1 note=67 velocity=64 time=0.075
note_on channel=2 note=74 velocity=64 time=0
note_on channel=2 note=70 velocity=64 time=0
note_on channel=9 note=38 velocity=64 time=0
note_on channel=1 note=70 velocity=0 time=0.055
note_on channel=2 note=76 velocity=0 time=0.01
note_on channel=0 note=38 velocity=0 time=0.025
note_on channel=9 note=38 velocity=0 time=0.03
note_on channel=1 note=60 velocity=64 time=0.03
note_on channel=1 note=67 velocity=0 time=0.07
note_on channel=2 note=70 velocity=0 time=0.025
note_on channel=1 note=60 velocity=0 time=0.01
note_on channel=0 note=38 velocity=64 time=0.045
note_on channel=1 note=62 velocity=64 time=0
note_on channel=1 note=74 velocity=64 time=0
note_on channel=1 note=69 velocity=64 time=0
note_on channel=2 note=69 velocity=64 time=0
note_on channel=2 note=65 velocity=64 time=0
note_on channel=9 note=46 velocity=64 time=0
note_on channel=2 note=74 velocity=0 time=0.01
note_on channel=9 note=46 velocity=0 time=0.03
note_on channel=2 note=69 velocity=0 time=0.16
note_on channel=0 note=38 velocity=0 time=0.01
note_on channel=2 note=65 velocity=0 time=0.025
note_on channel=0 note=38 velocity=64 time=0.065
note_on channel=1 note=65 velocity=64 time=0
note_on channel=2 note=69 velocity=64 time=0
note_on channel=2 note=65 velocity=64 time=0
note_on channel=9 note=46 velocity=64 time=0
note_on channel=1 note=69 velocity=0 time=0.025
note_on channel=9 note=46 velocity=0 time=0.015
note_on channel=2 note=65 velocity=0 time=0.16
note_on channel=2 note=69 velocity=0 time=0.005
note_on channel=1 note=69 velocity=64 time=0.095
note_on channel=2 note=69 velocity=64 time=0
note_on channel=2 note=65 velocity=64 time=0
note_on channel=9 note=38 velocity=64 time=0
note_on channel=9 note=38 velocity=0 time=0.12
note_on channel=1 note=65 velocity=0 time=0.02
note_on channel=1 note=74 velocity=0 time=0.03
note_on channel=1 note=69 velocity=0 time=0.01
note_on channel=0 note=38 velocity=0 time=0.005
note_on channel=1 note=62 velocity=0 time=0
note_on channel=2 note=65 velocity=0 time=0.05
note_on channel=2 note=69 velocity=0 time=0.02
note_on channel=0 note=33 velocity=64 time=0.045
note_on channel=1 note=76 velocity=64 time=0
note_on channel=1 note=64 velocity=64 time=0
note_on channel=1 note=69 velocity=64 time=0
note_on channel=1 note=65 velocity=64 time=0
note_on channel=2 note=67 velocity=64 time=0
note_on channel=2 note=64 velocity=64 time=0
note_on channel=9 note=46 velocity=64 time=0
note_on channel=9 note=46 velocity=0 time=0.05
note_on channel=0 note=33 velocity=0 time=0.12
note_on channel=1 note=76 velocity=0 time=0.005
note_on channel=1 note=65 velocity=0 time=0.005
note_on channel=1 note=64 velocity=0 time=0.01
note_on channel=1 note=69 velocity=0 time=0.005
note_on channel=2 note=64 velocity=0 time=0.06
note_on channel=0 note=33 velocity=64 time=0.045
note_on channel=1 note=64 velocity=64 time=0
note_on channel=1 note=76 velocity=64 time=0
note_on channel=1 note=69 velocity=64 time=0
note_on channel=1 note=65 velocity=64 time=0
note_on channel=2 note=69 velocity=64 time=0
note_on channel=2 note=70 velocity=64 time=0
note_on channel=2 note=67 velocity=64 time=0
note_on channel=9 note=46 velocity=64 time=0
note_on channel=9 note=46 velocity=0 time=0.04
note_on channel=2 note=67 velocity=0 time=0.005
note_on channel=2 note=69 velocity=0 time=0.05
note_on channel=2 note=67 velocity=0 time=0.145
note_on channel=2 note=69 velocity=64 time=0.06
note_on channel=2 note=65 velocity=64 time=0
note_on channel=9 note=38 velocity=64 time=0
note_on channel=2 note=70 velocity=0 time=0.035
note_on channel=0 note=33 velocity=0 time=0.085
note_on channel=9 note=38 velocity=0 time=0.005
note_on channel=1 note=65 velocity=0 time=0.05
note_on channel=1 note=69 velocity=0 time=0
note_on channel=1 note=76 velocity=0 time=0.015
note_on channel=2 note=69 velocity=0 time=0.005
note_on channel=2 note=65 velocity=0 time=0.065
note_on channel=1 note=64 velocity=0 time=0.025
note_on channel=0 note=38 velocity=64 time=0.015
note_on channel=9 note=46 velocity=64 time=0
note_on channel=9 note=46 velocity=0 time=0.04
note_on channel=0 note=38 velocity=0 time=0.15
note_on channel=0 note=38 velocity=64 time=0.11
note_on channel=1 note=74 velocity=64 time=0
note_on channel=1 note=65 velocity=64 time=0
note_on channel=1 note=69 velocity=64 time=0
note_on channel=1 note=62 velocity=64 time=0
note_on channel=2 note=69 velocity=64 time=0
note_on channel=2 note=65 velocity=64 time=0
note_on channel=9 note=46 velocity=64 time=0
note_on channel=9 note=46 velocity=0 time=0.05
note_on channel=1 note=74 velocity=0 time=0.15
note_on channel=2 note=69 velocity=0 time=0.025
note_on channel=1 note=65 velocity=0 time=0.005
note_on channel=2 note=65 velocity=0 time=0.005
note_on channel=1 note=76 velocity=64 time=0.065
note_on channel=1 note=64 velocity=64 time=0
note_on channel=1 note=65 velocity=64 time=0
note_on channel=2 note=74 velocity=64 time=0
note_on channel=2 note=69 velocity=64 time=0
note_on channel=9 note=38 velocity=64 time=0
note_on channel=1 note=62 velocity=0 time=0.015
note_on channel=1 note=65 velocity=0 time=0.065
note_on channel=9 note=38 velocity=0 time=0.04
note_on channel=0 note=38 velocity=0 time=0.045
note_on channel=0 note=33 velocity=64 time=0.135
note_on channel=1 note=65 velocity=64 time=0
note_on channel=9 note=46 velocity=64 time=0
note_on channel=1 note=76 velocity=0 time=0.045
note_on channel=9 note=46 velocity=0 time=0.005
note_on channel=1 note=69 velocity=0 time=0.03
note_on channel=1 note=64 velocity=0 time=0.04
note_on channel=0 note=33 velocity=0 time=0.07
note_on channel=0 note=33 velocity=64 time=0.11
note_on channel=1 note=69 velocity=64 time=0
note_on channel=1 note=62 velocity=64 time=0
note_on channel=1 note=74 velocity=64 time=0
note_on channel=9 note=46 velocity=64 time=0
note_on channel=9 note=46 velocity=0 time=0.05
note_on channel=2 note=69 velocity=0 time=0.105
note_on channel=1 note=65 velocity=0 time=0.02
note_on channel=1 note=69 velocity=0 time=0.005
note_on channel=1 note=74 velocity=0 time=0
note_on channel=1 note=62 velocity=0 time=0.05
note_on channel=1 note=63 velocity=64 time=0.07
note_on channel=1 note=75 velocity=64 time=0
note_on channel=2 note=74 velocity=0 time=0
note_on channel=2 note=73 velocity=64 time=0
note_on channel=2 note=69 velocity=64 time=0
note_on channel=9 note=38 velocity=64 time=0
note_on channel=0 note=33 velocity=0 time=0.095
note_on channel=9 note=38 velocity=0 time=0.025
note_on channel=1 note=75 velocity=0 time=0.03
note_on channel=1 note=63 velocity=0 time=0.07
note_on channel=0 note=33 velocity=64 time=0.08
note_on channel=1 note=64 velocity=64 time=0
note_on channel=1 note=73 velocity=64 time=0
note_on channel=1 note=76 velocity=64 time=0
note_on channel=2 note=69 velocity=64 time=0
note_on channel=2 note=64 velocity=64 time=0
note_on channel=9 note=46 velocity=64 time=0
note_on channel=9 note=46 velocity=0 time=0.045
note_on channel=2 note=73 velocity=0 time=0.03
note_on channel=2 note=69 velocity=0 time=0.045
note_on channel=2 note=64 velocity=0 time=0.035
note_on channel=0 note=33 velocity=0 time=0.025
note_on channel=2 note=69 velocity=0 time=0.115
note_on channel=0 note=33 velocity=64 time=0.005
note_on channel=1 note=69 velocity=64 time=0
note_on channel=2 note=67 velocity=64 time=0
note_on channel=2 note=64 velocity=64 time=0
note_on channel=9 note=46 velocity=64 time=0
note_on channel=9 note=46 velocity=0 time=0.05
note_on channel=1 note=73 velocity=0 time=0.025
note_on channel=2 note=64 velocity=0 time=0.11
note_on channel=2 note=67 velocity=0 time=0.04
note_on channel=1 note=73 velocity=64 time=0.075
note_on channel=2 note=67 velocity=64 time=0
note_on channel=2 note=64 velocity=64 time=0
note_on channel=9 note=38 velocity=64 time=0
note_on channel=9 note=38 velocity=0 time=0.105
note_on channel=1 note=69 velocity=0 time=0.02
note_on channel=1 note=76 velocity=0 time=0.01
note_on channel=0 note=33 velocity=0 time=0.005
note_on channel=1 note=73 velocity=0 time=0.04
note_on channel=1 note=64 velocity=0 time=0.025
note_on channel=2 note=64 velocity=0 time=0.02
note_on channel=0 note=40 velocity=64 time=0.075
note_on channel=1 note=69 velocity=64 time=0
note_on channel=1 note=77 velocity=64 time=0
note_on channel=1 note=65 velocity=64 time=0
note_on channel=1 note=73 velocity=64 time=0
note_on channel=2 note=66 velocity=64 time=0
note_on channel=2 note=62 velocity=64 time=0
note_on channel=9 note=46 velocity=64 time=0
note_on channel=2 note=67 velocity=0 time=0.03
note_on channel=1 note=73 velocity=0 time=0.01
note_on channel=9 note=46 velocity=0 time=0.01
note_on channel=0 note=40 velocity=0 time=0.115
note_on channel=1 note=77 velocity=0 time=0.025
note_on channel=1 note=65 velocity=0 time=0.005
note_on channel=2 note=66 velocity=0 time=0.035
note_on channel=1 note=69 velocity=0 time=0.01
note_on channel=2 note=62 velocity=0 time=0.015
note_on channel=0 note=40 velocity=64 time=0.045
note_on channel=1 note=77 velocity=64 time=0
note_on channel=1 note=69 velocity=64 time=0
note_on channel=1 note=65 velocity=64 time=0
note_on channel=2 note=69 velocity=64 time=0
note_on channel=2 note=65 velocity=64 time=0
note_on channel=9 note=46 velocity=64 time=0
note_on channel=9 note=46 velocity=0 time=0.045
note_on channel=2 note=65 velocity=0 time=0.2
note_on channel=2 note=69 velocity=0 time=0.02
note_on channel=2 note=67 velocity=64 time=0.035
note_on channel=2 note=64 velocity=64 time=0
note_on channel=9 note=38 velocity=64 time=0
note_on channel=9 note=38 velocity=0 time=0.095
note_on channel=0 note=40 velocity=0 time=0.055
note_on channel=2 note=67 velocity=0 time=0.05
note_on channel=2 note=64 velocity=0 time=0.06
note_on channel=0 note=33 velocity=64 time=0.04
note_on channel=9 note=46 velocity=64 time=0
note_on channel=1 note=77 velocity=0 time=0.015
note_on channel=9 note=46 velocity=0 time=0.035
note_on channel=1 note=65 velocity=0 time=0.015
note_on channel=1 note=69 velocity=0 time=0.005
note_on channel=0 note=33 velocity=0 time=0.115
note_on channel=0 note=33 velocity=64 time=0.115
note_on channel=1 note=64 velocity=64 time=0
note_on channel=1 note=69 velocity=64 time=0
note_on channel=1 note=76 velocity=64 time=0
note_on channel=1 note=73 velocity=64 time=0
note_on channel=2 note=76 velocity=64 time=0
note_on channel=2 note=73 velocity=64 time=0
note_on channel=9 note=46 velocity=64 time=0
note_on channel=9 note=46 velocity=0 time=0.04
note_on channel=1 note=76 velocity=0 time=0.16
note_on channel=1 note=69 velocity=0 time=0.005
note_on channel=1 note=73 velocity=0 time=0.005
note_on channel=1 note=69 velocity=64 time=0.09
note_on channel=1 note=77 velocity=64 time=0
note_on channel=1 note=65 velocity=64 time=0
note_on channel=9 note=38 velocity=64 time=0
note_on channel=1 note=64 velocity=0 time=0.08
note_on channel=9 note=38 velocity=0 time=0.03
note_on channel=0 note=33 velocity=0 time=0.025
note_on channel=2 note=73 velocity=0 time=0.01
note_on channel=2 note=73 velocity=64 time=0.005
note_on channel=2 note=76 velocity=0 time=0.085
note_on channel=0 note=40 velocity=64 time=0.065
note_on channel=1 note=64 velocity=64 time=0
note_on channel=1 note=76 velocity=64 time=0
note_on channel=2 note=67 velocity=64 time=0
note_on channel=9 note=46 velocity=64 time=0
note_on channel=9 note=46 velocity=0 time=0.05
note_on channel=1 note=65 velocity=0 time=0.075
note_on channel=1 note=77 velocity=0 time=0.02
note_on channel=0 note=40 velocity=0 time=0.03
note_on channel=1 note=69 velocity=0 time=0.01
note_on channel=0 note=40 velocity=64 time=0.115
note_on channel=1 note=73 velocity=64 time=0
note_on channel=9 note=46 velocity=64 time=0
note_on channel=9 note=46 velocity=0 time=0.055
note_on channel=2 note=67 velocity=0 time=0.06
note_on channel=1 note=76 velocity=0 time=0.1
note_on channel=2 note=73 velocity=0 time=0.025
note_on channel=1 note=64 velocity=0 time=0.03
note_on channel=1 note=69 velocity=64 time=0.03
note_on channel=2 note=67 velocity=64 time=0
note_on channel=2 note=64 velocity=64 time=0
note_on channel=9 note=38 velocity=64 time=0
note_on channel=1 note=73 velocity=0 time=0.1
note_on channel=9 note=38 velocity=0 time=0.02
note_on channel=0 note=40 velocity=0 time=0.025
note_on channel=1 note=59 velocity=64 time=0.005
note_on channel=1 note=60 velocity=64 time=0
note_on channel=1 note=69 velocity=0 time=0.02
note_on channel=2 note=64 velocity=0 time=0.025
note_on channel=1 note=59 velocity=0 time=0.01
note_on channel=1 note=60 velocity=0 time=0.045
note_on channel=2 note=67 velocity=0 time=0.015
note_on channel=0 note=38 velocity=64 time=0.035
note_on channel=1 note=62 velocity=64 time=0
note_on channel=1 note=74 velocity=64 time=0
note_on channel=1 note=65 velocity=64 time=0
note_on channel=2 note=65 velocity=64 time=0
note_on channel=2 note=62 velocity=64 time=0
note_on channel=9 note=46 velocity=64 time=0
note_on channel=9 note=46 velocity=0 time=0.045
note_on channel=0 note=38 velocity=0 time=0.155
note_on channel=0 note=38 velocity=64 time=0.1
note_on channel=9 note=46 velocity=64 time=0
note_on channel=9 note=46 velocity=0 time=0.045
note_on channel=9 note=38 velocity=64 time=0.255
note_on channel=9 note=38 velocity=0 time=0.13
note_on channel=0 note=38 velocity=0 time=0.025
note_on channel=1 note=65 velocity=0 time=0.005
note_on channel=1 note=62 velocity=0 time=0.005
note_on channel=1 note=74 velocity=0 time=0.095
note_on channel=0 note=33 velocity=64 time=0.04
note_on channel=1 note=69 velocity=64 time=0
note_on channel=1 note=74 velocity=64 time=0
note_on channel=9 note=46 velocity=64 time=0
note_on channel=9 note=46 velocity=0 time=0.05
note_on channel=1 note=74 velocity=0 time=0.02
note_on channel=2 note=62 velocity=0 time=0.045
note_on channel=0 note=33 velocity=0 time=0.09
note_on channel=0 note=33 velocity=64 time=0.095
note_on channel=1 note=65 velocity=64 time=0
note_on channel=9 note=46 velocity=64 time=0
note_on channel=1 note=69 velocity=0 time=0.02
note_on channel=9 note=46 velocity=0 time=0.03
note_on channel=2 note=65 velocity=0 time=0.065
note_on channel=1 note=69 velocity=64 time=0.185
note_on channel=9 note=38 velocity=64 time=0
note_on channel=0 note=33 velocity=0 time=0.1
note_on channel=9 note=38 velocity=0 time=0.05
note_on channel=0 note=38 velocity=64 time=0.15
note_on channel=1 note=74 velocity=64 time=0
note_on channel=9 note=46 velocity=64 time=0
note_on channel=9 note=46 velocity=0 time=0.06
note_on channel=1 note=65 velocity=0 time=0.015
note_on channel=1 note=69 velocity=0 time=0.025
note_on channel=1 note=74 velocity=0 time=0.06
note_on channel=0 note=38 velocity=0 time=0.045
note_on channel=0 note=38 velocity=64 time=0.395
note_on channel=1 note=74 velocity=64 time=0
note_on channel=1 note=62 velocity=64 time=0
note_on channel=1 note=65 velocity=64 time=0
note_on channel=1 note=69 velocity=64 time=0
note_on channel=9 note=46 velocity=64 time=0
note_on channel=9 note=46 velocity=0 time=0.06
note_on channel=1 note=62 velocity=0 time=0.09
note_on channel=1 note=74 velocity=0 time=0.01
note_on channel=1 note=69 velocity=0 time=0
note_on channel=1 note=65 velocity=0 time=0.02
note_on channel=0 note=38 velocity=0 time=0.005
note_on channel=3 note=62 velocity=94 time=0.715
note_on channel=3 note=62 velocity=0 time=0.295
note_on channel=0 note=34 velocity=64 time=0.005
note_on channel=1 note=65 velocity=64 time=0
note_on channel=1 note=62 velocity=64 time=0
note_on channel=1 note=70 velocity=64 time=0
note_on channel=1 note=74 velocity=64 time=0
note_on channel=3 note=70 velocity=94 time=0
note_on channel=3 note=70 velocity=0 time=1.12
note_on channel=3 note=70 velocity=94 time=0.08
note_on channel=1 note=65 velocity=0 time=0.08
note_on channel=1 note=70 velocity=0 time=0.005
note_on channel=1 note=74 velocity=0 time=0.035
note_on channel=1 note=62 velocity=0 time=0.295
note_on channel=0 note=34 velocity=0 time=0.125
note_on channel=3 note=70 velocity=0 time=0
note_on channel=0 note=33 velocity=64 time=0.06
note_on channel=1 note=73 velocity=64 time=0
note_on channel=1 note=76 velocity=64 time=0
note_on channel=1 note=64 velocity=64 time=0
note_on channel=3 note=69 velocity=94 time=0
note_on channel=9 note=46 velocity=64 time=0
note_on channel=9 note=46 velocity=0 time=0.06
note_on channel=0 note=33 velocity=0 time=0.165
note_on channel=0 note=33 velocity=64 time=0.075
note_on channel=1 note=69 velocity=64 time=0
note_on channel=9 note=46 velocity=64 time=0
note_on channel=9 note=46 velocity=0 time=0.05
note_on channel=1 note=73 velocity=0 time=0.055
note_on channel=1 note=73 velocity=64 time=0.195
note_on channel=9 note=38 velocity=64 time=0
note_on channel=9 note=38 velocity=0 time=0.085
note_on channel=1 note=76 velocity=0 time=0.06
note_on channel=1 note=69 velocity=0 time=0
note_on channel=0 note=33 velocity=0 time=0.03
note_on channel=1 note=73 velocity=0 time=0
note_on channel=1 note=64 velocity=0 time=0.02
note_on channel=0 note=40 velocity=64 time=0.105
note_on channel=1 note=69 velocity=64 time=0
note_on channel=1 note=77 velocity=64 time=0
note_on channel=1 note=65 velocity=64 time=0
note_on channel=9 note=46 velocity=64 time=0
note_on channel=9 note=46 velocity=0 time=0.055
note_on channel=1 note=65 velocity=0 time=0.14
note_on channel=0 note=40 velocity=0 time=0.015
note_on channel=1 note=77 velocity=0 time=0
note_on channel=1 note=69 velocity=0 time=0.035
note_on channel=0 note=40 velocity=64 time=0.055
note_on channel=1 note=65 velocity=64 time=0
note_on channel=1 note=77 velocity=64 time=0
note_on channel=1 note=69 velocity=64 time=0
note_on channel=9 note=46 velocity=64 time=0
note_on channel=9 note=46 velocity=0 time=0.055
note_on channel=9 note=38 velocity=64 time=0.245
note_on channel=9 note=38 velocity=0 time=0.075
note_on channel=0 note=40 velocity=0 time=0.04
note_on channel=1 note=77 velocity=0 time=0.14
note_on channel=0 note=33 velocity=64 time=0.045
note_on channel=9 note=46 velocity=64 time=0
note_on channel=1 note=65 velocity=0 time=0.04
note_on channel=9 note=46 velocity=0 time=0.015
note_on channel=3 note=69 velocity=0 time=0.015
note_on channel=1 note=69 velocity=0 time=0.02
note_on channel=0 note=33 velocity=0 time=0.125
note_on channel=0 note=33 velocity=64 time=0.085
note_on channel=1 note=76 velocity=64 time=0
note_on channel=1 note=64 velocity=64 time=0
note_on channel=1 note=69 velocity=64 time=0
note_on channel=1 note=73 velocity=64 time=0
note_on channel=3 note=57 velocity=94 time=0
note_on channel=9 note=46 velocity=64 time=0
note_on channel=9 note=46 velocity=0 time=0.045
note_on channel=1 note=73 velocity=0 time=0.16
note_on channel=1 note=76 velocity=0 time=0.005
note_on channel=1 note=69 velocity=0 time=0.015
note_on channel=1 note=69 velocity=64 time=0.075
note_on channel=1 note=77 velocity=64 time=0
note_on channel=1 note=65 velocity=64 time=0
note_on channel=3 note=61 velocity=94 time=0
note_on channel=9 note=38 velocity=64 time=0
note_on channel=1 note=64 velocity=0 time=0.005
note_on channel=9 note=38 velocity=0 time=0.085
note_on channel=3 note=57 velocity=0 time=0.055
note_on channel=0 note=33 velocity=0 time=0.035
note_on channel=3 note=61 velocity=0 time=0.095
note_on channel=0 note=40 velocity=64 time=0.025
note_on channel=3 note=64 velocity=94 time=0
note_on channel=9 note=46 velocity=64 time=0
note_on channel=9 note=46 velocity=0 time=0.055
note_on channel=1 note=69 velocity=0 time=0.08
note_on channel=1 note=77 velocity=0 time=0
note_on channel=0 note=40 velocity=0 time=0.07
note_on channel=0 note=40 velocity=64 time=0.095
note_on channel=1 note=76 velocity=64 time=0
note_on channel=1 note=64 velocity=64 time=0
note_on channel=1 note=69 velocity=64 time=0
note_on channel=1 note=73 velocity=64 time=0
note_on channel=3 note=67 velocity=94 time=0
note_on channel=9 note=46 velocity=64 time=0
note_on channel=3 note=64 velocity=0 time=0.005
note_on channel=1 note=65 velocity=0 time=0.015
note_on channel=9 note=46 velocity=0 time=0.025
note_on channel=3 note=69 velocity=94 time=0.255
note_on channel=9 note=38 velocity=64 time=0
note_on channel=1 note=64 velocity=0 time=0.035
note_on channel=3 note=67 velocity=0 time=0.01
note_on channel=1 note=73 velocity=0 time=0.005
note_on channel=1 note=76 velocity=0 time=0.035
note_on channel=9 note=38 velocity=0 time=0.015
note_on channel=0 note=40 velocity=0 time=0.025
note_on channel=1 note=69 velocity=0 time=0.015
note_on channel=1 note=59 velocity=64 time=0.01
note_on channel=1 note=60 velocity=64 time=0
note_on channel=1 note=59 velocity=0 time=0.045
note_on channel=3 note=69 velocity=0 time=0.05
note_on channel=1 note=60 velocity=0 time=0.02
note_on channel=0 note=38 velocity=64 time=0.035
note_on channel=1 note=74 velocity=64 time=0
note_on channel=1 note=62 velocity=64 time=0
note_on channel=1 note=69 velocity=64 time=0
note_on channel=3 note=70 velocity=94 time=0
note_on channel=9 note=46 velocity=64 time=0
note_on channel=9 note=46 velocity=0 time=0.05
note_on channel=0 note=38 velocity=0 time=0.155
note_on channel=0 note=38 velocity=64 time=0.095
note_on channel=1 note=69 velocity=0 time=0
note_on channel=1 note=65 velocity=64 time=0
note_on channel=9 note=46 velocity=64 time=0
note_on channel=9 note=46 velocity=0 time=0.05
note_on channel=1 note=69 velocity=64 time=0.25
note_on channel=3 note=70 velocity=0 time=0
note_on channel=3 note=69 velocity=94 time=0
note_on channel=9 note=38 velocity=64 time=0
note_on channel=9 note=38 velocity=0 time=0.095
note_on channel=0 note=38 velocity=0 time=0.03
note_on channel=1 note=74 velocity=0 time=0.015
note_on channel=1 note=65 velocity=0 time=0.02
note_on channel=1 note=69 velocity=0 time=0.03
note_on channel=1 note=62 velocity=0 time=0.01
note_on channel=0 note=33 velocity=64 time=0.1
note_on channel=1 note=69 velocity=64 time=0
note_on channel=1 note=76 velocity=64 time=0
note_on channel=1 note=65 velocity=64 time=0
note_on channel=1 note=64 velocity=64 time=0
note_on channel=9 note=46 velocity=64 time=0
note_on channel=9 note=46 velocity=0 time=0.05
note_on channel=1 note=76 velocity=0 time=0.12
note_on channel=1 note=64 velocity=0 time=0.01
note_on channel=1 note=65 velocity=0 time=0.005
note_on channel=0 note=33 velocity=0 time=0.025
note_on channel=1 note=69 velocity=0 time=0.005
note_on channel=0 note=33 velocity=64 time=0.085
note_on channel=1 note=76 velocity=64 time=0
note_on channel=1 note=64 velocity=64 time=0
note_on channel=1 note=69 velocity=64 time=0
note_on channel=1 note=65 velocity=64 time=0
note_on channel=9 note=46 velocity=64 time=0
note_on channel=9 note=46 velocity=0 time=0.05
note_on channel=9 note=38 velocity=64 time=0.25
note_on channel=0 note=33 velocity=0 time=0.045
note_on channel=9 note=38 velocity=0 time=0.05
note_on channel=3 note=69 velocity=0 time=0.185
note_on channel=0 note=38 velocity=64 time=0.02
note_on channel=9 note=46 velocity=64 time=0
note_on channel=9 note=46 velocity=0 time=0.05
note_on channel=1 note=69 velocity=0 time=0.08
note_on channel=1 note=76 velocity=0 time=0.01
note_on channel=1 note=65 velocity=0 time=0.005
note_on channel=1 note=64 velocity=0 time=0.025
note_on channel=0 note=38 velocity=0 time=0.025
note_on channel=0 note=38 velocity=64 time=0.105
note_on channel=1 note=74 velocity=64 time=0
note_on channel=1 note=62 velocity=64 time=0
note_on channel=1 note=69 velocity=64 time=0
note_on channel=3 note=69 velocity=94 time=0
note_on channel=9 note=46 velocity=64 time=0
note_on channel=9 note=46 velocity=0 time=0.055
note_on channel=3 note=69 velocity=0 time=0.18
note_on channel=1 note=65 velocity=64 time=0.065
note_on channel=3 note=74 velocity=94 time=0
note_on channel=9 note=38 velocity=64 time=0
note_on channel=1 note=69 velocity=0 time=0.035
note_on channel=9 note=38 velocity=0 time=0.065
note_on channel=0 note=38 velocity=0 time=0.09
note_on channel=0 note=33 velocity=64 time=0.11
note_on channel=1 note=69 velocity=64 time=0
note_on channel=9 note=46 velocity=64 time=0
note_on channel=9 note=46 velocity=0 time=0.045
note_on channel=1 note=74 velocity=0 time=0.015
note_on channel=1 note=62 velocity=0 time=0.025
note_on channel=0 note=33 velocity=0 time=0.11
note_on channel=0 note=33 velocity=64 time=0.105
note_on channel=1 note=74 velocity=64 time=0
note_on channel=1 note=62 velocity=64 time=0
note_on channel=9 note=46 velocity=64 time=0
note_on channel=9 note=46 velocity=0 time=0.05
note_on channel=1 note=65 velocity=0 time=0.065
note_on channel=1 note=69 velocity=0 time=0.025
note_on channel=1 note=74 velocity=0 time=0.045
note_on channel=1 note=62 velocity=0 time=0.03
note_on channel=3 note=74 velocity=0 time=0.02
note_on channel=1 note=63 velocity=64 time=0.065
note_on channel=1 note=75 velocity=64 time=0
note_on channel=3 note=73 velocity=94 time=0
note_on channel=9 note=38 velocity=64 time=0
note_on channel=0 note=33 velocity=0 time=0.085
note_on channel=9 note=38 velocity=0 time=0.005
note_on channel=1 note=75 velocity=0 time=0.075
note_on channel=1 note=63 velocity=0 time=0.045
note_on channel=3 note=73 velocity=0 time=0.05
note_on channel=0 note=33 velocity=64 time=0.04
note_on channel=1 note=64 velocity=64 time=0
note_on channel=1 note=73 velocity=64 time=0
note_on channel=1 note=76 velocity=64 time=0
note_on channel=3 note=69 velocity=94 time=0
note_on channel=9 note=46 velocity=64 time=0
note_on channel=9 note=46 velocity=0 time=0.045
note_on channel=0 note=33 velocity=0 time=0.16
note_on channel=0 note=33 velocity=64 time=0.095
note_on channel=1 note=69 velocity=64 time=0
note_on channel=9 note=46 velocity=64 time=0
note_on channel=9 note=46 velocity=0 time=0.04
note_on channel=1 note=73 velocity=0 time=0.005
note_on channel=3 note=69 velocity=0 time=0.20500000000000002
note_on channel=1 note=73 velocity=64 time=0.05
note_on channel=3 note=67 velocity=94 time=0
note_on channel=9 note=38 velocity=64 time=0
note_on channel=0 note=33 velocity=0 time=0.1
note_on channel=9 note=38 velocity=0 time=0
note_on channel=1 note=76 velocity=0 time=0.01
note_on channel=1 note=69 velocity=0 time=0.03
note_on channel=1 note=73 velocity=0 time=0.02
note_on channel=1 note=64 velocity=0 time=0.02
note_on channel=0 note=40 velocity=64 time=0.12
note_on channel=1 note=77 velocity=64 time=0
note_on channel=1 note=69 velocity=64 time=0
note_on channel=1 note=73 velocity=64 time=0
note_on channel=1 note=65 velocity=64 time=0
note_on channel=9 note=46 velocity=64 time=0
note_on channel=9 note=46 velocity=0 time=0.04
note_on channel=1 note=73 velocity=0 time=0.11
note_on channel=1 note=65 velocity=0 time=0.03
note_on channel=1 note=77 velocity=0 time=0
note_on channel=0 note=40 velocity=0 time=0.005
note_on channel=1 note=69 velocity=0 time=0.005
note_on channel=0 note=40 velocity=64 time=0.11
note_on channel=1 note=77 velocity=64 time=0
note_on channel=1 note=65 velocity=64 time=0
note_on channel=1 note=69 velocity=64 time=0
note_on channel=9 note=46 velocity=64 time=0
note_on channel=9 note=46 velocity=0 time=0.04
note_on channel=9 note=38 velocity=64 time=0.26
note_on channel=9 note=38 velocity=0 time=0.085
note_on channel=3 note=67 velocity=0 time=0.025
note_on channel=0 note=40 velocity=0 time=0.035
note_on channel=0 note=33 velocity=64 time=0.155
note_on channel=9 note=46 velocity=64 time=0
note_on channel=1 note=69 velocity=0 time=0.05
note_on channel=9 note=46 velocity=0 time=0
note_on channel=1 note=77 velocity=0 time=0.005
note_on channel=1 note=65 velocity=0 time=0.035
note_on channel=0 note=33 velocity=0 time=0.1
note_on channel=0 note=33 velocity=64 time=0.11
note_on channel=1 note=64 velocity=64 time=0
note_on channel=1 note=76 velocity=64 time=0
note_on channel=1 note=69 velocity=64 time=0
note_on channel=1 note=73 velocity=64 time=0
note_on channel=3 note=69 velocity=94 time=0
note_on channel=9 note=46 velocity=64 time=0
note_on channel=9 note=46 velocity=0 time=0.045
note_on channel=1 note=73 velocity=0 time=0.155
note_on channel=1 note=76 velocity=0 time=0
note_on channel=1 note=69 velocity=0 time=0.025
note_on channel=3 note=69 velocity=0 time=0.025
note_on channel=1 note=65 velocity=64 time=0.05
note_on channel=1 note=69 velocity=64 time=0
note_on channel=1 note=77 velocity=64 time=0
note_on channel=3 note=76 velocity=94 time=0
note_on channel=9 note=38 velocity=64 time=0
note_on channel=1 note=64 velocity=0 time=0.05
note_on channel=9 note=38 velocity=0 time=0.065
note_on channel=0 note=33 velocity=0 time=0.06
note_on channel=0 note=40 velocity=64 time=0.125
note_on channel=9 note=46 velocity=64 time=0
note_on channel=9 note=46 velocity=0 time=0.035
note_on channel=1 note=77 velocity=0 time=0.115
note_on channel=1 note=69 velocity=0 time=0.05
note_on channel=0 note=40 velocity=0 time=0.015
note_on channel=0 note=40 velocity=64 time=0.085
note_on channel=1 note=64 velocity=64 time=0
note_on channel=1 note=76 velocity=64 time=0
note_on channel=1 note=73 velocity=64 time=0
note_on channel=1 note=69 velocity=64 time=0
note_on channel=9 note=46 velocity=64 time=0
note_on channel=1 note=65 velocity=0 time=0.025
note_on channel=9 note=46 velocity=0 time=0.015
note_on channel=1 note=73 velocity=0 time=0.21
note_on channel=3 note=76 velocity=0 time=0.015
note_on channel=1 note=76 velocity=0 time=0.015
note_on channel=1 note=69 velocity=0 time=0.01
note_on channel=3 note=73 velocity=94 time=0.01
note_on channel=9 note=38 velocity=64 time=0
note_on channel=1 note=64 velocity=0 time=0.07
note_on channel=0 note=40 velocity=0 time=0.04
note_on channel=9 note=38 velocity=0 time=0.01
note_on channel=1 note=60 velocity=64 time=0.03
note_on channel=1 note=60 velocity=0 time=0.085
note_on channel=3 note=73 velocity=0 time=0.04
note_on channel=0 note=38 velocity=64 time=0.025
note_on channel=1 note=62 velocity=64 time=0
note_on channel=1 note=74 velocity=64 time=0
note_on channel=1 note=69 velocity=64 time=0
note_on channel=3 note=73 velocity=94 time=0
note_on channel=3 note=74 velocity=94 time=0
note_on channel=9 note=46 velocity=64 time=0
note_on channel=9 note=46 velocity=0 time=0.04
note_on channel=3 note=73 velocity=0 time=0.005
note_on channel=0 note=38 velocity=0 time=0.17
note_on channel=0 note=38 velocity=64 time=0.085
note_on channel=1 note=69 velocity=0 time=0
note_on channel=1 note=65 velocity=64 time=0
note_on channel=9 note=46 velocity=64 time=0
note_on channel=9 note=46 velocity=0 time=0.05
note_on channel=1 note=69 velocity=64 time=0.25
note_on channel=9 note=38 velocity=64 time=0
note_on channel=1 note=74 velocity=0 time=0.11
note_on channel=9 note=38 velocity=0 time=0.025
note_on channel=0 note=38 velocity=0 time=0.005
note_on channel=1 note=65 velocity=0 time=0.005
note_on channel=1 note=69 velocity=0 time=0.035
note_on channel=1 note=62 velocity=0 time=0.035
note_on channel=0 note=33 velocity=64 time=0.085
note_on channel=1 note=76 velocity=64 time=0
note_on channel=1 note=69 velocity=64 time=0
note_on channel=1 note=65 velocity=64 time=0
note_on channel=1 note=64 velocity=64 time=0
note_on channel=9 note=46 velocity=64 time=0
note_on channel=9 note=46 velocity=0 time=0.055
note_on channel=1 note=76 velocity=0 time=0.115
note_on channel=1 note=64 velocity=0 time=0.02
note_on channel=1 note=69 velocity=0 time=0.005
note_on channel=1 note=65 velocity=0 time=0.005
note_on channel=0 note=33 velocity=0 time=0.005
note_on channel=0 note=33 velocity=64 time=0.095
note_on channel=1 note=64 velocity=64 time=0
note_on channel=1 note=76 velocity=64 time=0
note_on channel=1 note=65 velocity=64 time=0
note_on channel=1 note=69 velocity=64 time=0
note_on channel=9 note=46 velocity=64 time=0
note_on channel=9 note=46 velocity=0 time=0.05
note_on channel=9 note=38 velocity=64 time=0.25
note_on channel=1 note=76 velocity=0 time=0.1
note_on channel=1 note=69 velocity=0 time=0.01
note_on channel=0 note=33 velocity=0 time=0.015
note_on channel=1 note=65 velocity=0 time=0.02
note_on channel=9 note=38 velocity=0 time=0.015
note_on channel=1 note=64 velocity=0 time=0.04
note_on channel=3 note=74 velocity=0 time=0.04
note_on channel=0 note=38 velocity=64 time=0.06
note_on channel=1 note=62 velocity=64 time=0
note_on channel=1 note=74 velocity=64 time=0
note_on channel=1 note=69 velocity=64 time=0
note_on channel=9 note=46 velocity=64 time=0
note_on channel=9 note=46 velocity=0 time=0.045
note_on channel=0 note=38 velocity=0 time=0.135
note_on channel=0 note=38 velocity=64 time=0.12
note_on channel=1 note=65 velocity=64 time=0
note_on channel=3 note=62 velocity=94 time=0
note_on channel=1 note=74 velocity=0 time=0.015
note_on channel=1 note=69 velocity=0 time=0.095
note_on channel=0 note=38 velocity=0 time=0.075
note_on channel=1 note=65 velocity=0 time=0
note_on channel=3 note=62 velocity=0 time=0.08
note_on channel=1 note=62 velocity=0 time=0.025
note_on channel=0 note=34 velocity=64 time=0.01
note_on channel=1 note=65 velocity=64 time=0
note_on channel=1 note=74 velocity=64 time=0
note_on channel=1 note=70 velocity=64 time=0
note_on channel=3 note=70 velocity=94 time=0
note_on channel=3 note=70 velocity=0 time=0.8
note_on channel=3 note=70 velocity=94 time=0.1
note_on channel=1 note=65 velocity=0 time=0.05
note_on channel=0 note=34 velocity=0 time=0.03
note_on channel=1 note=70 velocity=0 time=0.015
note_on channel=1 note=74 velocity=0 time=0.095
note_on channel=3 note=70 velocity=0 time=0.09
note_on channel=0 note=33 velocity=64 time=0.02
note_on channel=1 note=64 velocity=64 time=0
note_on channel=1 note=73 velocity=64 time=0
note_on channel=1 note=76 velocity=64 time=0
note_on channel=3 note=69 velocity=94 time=0
note_on channel=9 note=46 velocity=64 time=0
note_on channel=9 note=46 velocity=0 time=0.05
note_on channel=0 note=33 velocity=0 time=0.125
note_on channel=0 note=33 velocity=64 time=0.125
note_on channel=1 note=69 velocity=64 time=0
note_on channel=9 note=46 velocity=64 time=0
note_on channel=1 note=73 velocity=0 time=0.04
note_on channel=9 note=46 velocity=0 time=0.01
note_on channel=1 note=73 velocity=64 time=0.25
note_on channel=9 note=38 velocity=64 time=0
note_on channel=1 note=76 velocity=0 time=0.09
note_on channel=9 note=38 velocity=0 time=0.01
note_on channel=0 note=33 velocity=0 time=0.03
note_on channel=1 note=69 velocity=0 time=0.04
note_on channel=1 note=64 velocity=0 time=0.01
note_on channel=1 note=73 velocity=0 time=0.005
note_on channel=0 note=40 velocity=64 time=0.115
note_on channel=1 note=69 velocity=64 time=0
note_on channel=1 note=77 velocity=64 time=0
note_on channel=1 note=65 velocity=64 time=0
note_on channel=9 note=46 velocity=64 time=0
note_on channel=9 note=46 velocity=0 time=0.055
note_on channel=1 note=65 velocity=0 time=0.09
note_on channel=0 note=40 velocity=0 time=0.025
note_on channel=1 note=77 velocity=0 time=0.005
note_on channel=1 note=69 velocity=0 time=0.05
note_on channel=0 note=40 velocity=64 time=0.075
note_on channel=1 note=65 velocity=64 time=0
note_on channel=1 note=77 velocity=64 time=0
note_on channel=1 note=69 velocity=64 time=0
note_on channel=9 note=46 velocity=64 time=0
note_on channel=9 note=46 velocity=0 time=0.05
note_on channel=9 note=38 velocity=64 time=0.25
note_on channel=9 note=38 velocity=0 time=0.085
note_on channel=0 note=40 velocity=0 time=0.08
note_on channel=1 note=77 velocity=0 time=0.04
note_on channel=1 note=69 velocity=0 time=0.08
note_on channel=0 note=33 velocity=64 time=0.015
note_on channel=9 note=46 velocity=64 time=0
note_on channel=1 note=65 velocity=0 time=0.025
note_on channel=9 note=46 velocity=0 time=0.02
note_on channel=0 note=33 velocity=0 time=0.165
note_on channel=3 note=69 velocity=0 time=0.035
note_on channel=0 note=33 velocity=64 time=0.055
note_on channel=1 note=64 velocity=64 time=0
note_on channel=1 note=76 velocity=64 time=0
note_on channel=1 note=73 velocity=64 time=0
note_on channel=1 note=69 velocity=64 time=0
note_on channel=3 note=57 velocity=94 time=0
note_on channel=9 note=46 velocity=64 time=0
note_on channel=9 note=46 velocity=0 time=0.05
note_on channel=1 note=76 velocity=0 time=0.155
note_on channel=1 note=73 velocity=0 time=0.015
note_on channel=1 note=69 velocity=0 time=0.03
note_on channel=1 note=64 velocity=0 time=0.045
note_on channel=1 note=69 velocity=64 time=0.005
note_on channel=1 note=65 velocity=64 time=0
note_on channel=1 note=77 velocity=64 time=0
note_on channel=3 note=61 velocity=94 time=0
note_on channel=9 note=38 velocity=64 time=0
note_on channel=9 note=38 velocity=0 time=0.1
note_on channel=0 note=33 velocity=0 time=0.045
note_on channel=3 note=61 velocity=0 time=0.11
note_on channel=0 note=40 velocity=64 time=0.045
note_on channel=3 note=64 velocity=94 time=0
note_on channel=9 note=46 velocity=64 time=0
note_on channel=9 note=46 velocity=0 time=0.05
note_on channel=3 note=57 velocity=0 time=0.005
note_on channel=1 note=77 velocity=0 time=0.1
note_on channel=0 note=40 velocity=0 time=0.025
note_on channel=1 note=69 velocity=0 time=0.035
note_on channel=0 note=40 velocity=64 time=0.085
note_on channel=1 note=64 velocity=64 time=0
note_on channel=1 note=69 velocity=64 time=0
note_on channel=1 note=76 velocity=64 time=0
note_on channel=1 note=73 velocity=64 time=0
note_on channel=3 note=64 velocity=0 time=0
note_on channel=3 note=67 velocity=94 time=0
note_on channel=9 note=46 velocity=64 time=0
note_on channel=1 note=65 velocity=0 time=0.035
note_on channel=9 note=46 velocity=0 time=0.005
note_on channel=1 note=73 velocity=0 time=0.245
note_on channel=1 note=76 velocity=0 time=0.005
note_on channel=3 note=69 velocity=94 time=0.01
note_on channel=9 note=38 velocity=64 time=0
note_on channel=3 note=67 velocity=0 time=0.015
note_on channel=1 note=69 velocity=0 time=0.02
note_on channel=1 note=64 velocity=0 time=0.005
note_on channel=9 note=38 velocity=0 time=0.075
note_on channel=0 note=40 velocity=0 time=0.005
note_on channel=1 note=59 velocity=64 time=0.03
note_on channel=1 note=60 velocity=64 time=0
note_on channel=1 note=59 velocity=0 time=0.1
note_on channel=1 note=60 velocity=0 time=0.015
note_on channel=3 note=69 velocity=0 time=0.005
note_on channel=0 note=38 velocity=64 time=0.03
note_on channel=1 note=74 velocity=64 time=0
note_on channel=1 note=69 velocity=64 time=0
note_on channel=1 note=62 velocity=64 time=0
note_on channel=3 note=70 velocity=94 time=0
note_on channel=9 note=46 velocity=64 time=0
note_on channel=9 note=46 velocity=0 time=0.04
note_on channel=0 note=38 velocity=0 time=0.17
note_on channel=0 note=38 velocity=64 time=0.09
note_on channel=1 note=65 velocity=64 time=0
note_on channel=9 note=46 velocity=64 time=0
note_on channel=1 note=69 velocity=0 time=0.01
note_on channel=9 note=46 velocity=0 time=0.025
note_on channel=3 note=70 velocity=0 time=0.26
note_on channel=1 note=69 velocity=64 time=0.005
note_on channel=3 note=69 velocity=94 time=0
note_on channel=9 note=38 velocity=64 time=0
note_on channel=9 note=38 velocity=0 time=0.105
note_on channel=0 note=38 velocity=0 time=0.015
note_on channel=1 note=74 velocity=0 time=0.01
note_on channel=1 note=65 velocity=0 time=0
note_on channel=1 note=69 velocity=0 time=0.06
note_on channel=1 note=62 velocity=0 time=0.01
note_on channel=0 note=33 velocity=64 time=0.1
note_on channel=1 note=65 velocity=64 time=0
note_on channel=1 note=76 velocity=64 time=0
note_on channel=1 note=64 velocity=64 time=0
note_on channel=1 note=69 velocity=64 time=0
note_on channel=9 note=46 velocity=64 time=0
note_on channel=9 note=46 velocity=0 time=0.055
note_on channel=1 note=76 velocity=0 time=0.125
note_on channel=0 note=33 velocity=0 time=0.02
note_on channel=1 note=64 velocity=0 time=0
note_on channel=1 note=69 velocity=0 time=0.005
note_on channel=1 note=65 velocity=0 time=0.005
note_on channel=0 note=33 velocity=64 time=0.09
note_on channel=1 note=64 velocity=64 time=0
note_on channel=1 note=76 velocity=64 time=0
note_on channel=1 note=65 velocity=64 time=0
note_on channel=1 note=69 velocity=64 time=0
note_on channel=9 note=46 velocity=64 time=0
note_on channel=9 note=46 velocity=0 time=0.05
note_on channel=9 note=38 velocity=64 time=0.25
note_on channel=9 note=38 velocity=0 time=0.12
note_on channel=0 note=33 velocity=0 time=0.03
note_on channel=3 note=69 velocity=0 time=0.025
note_on channel=0 note=38 velocity=64 time=0.125
note_on channel=9 note=46 velocity=64 time=0
note_on channel=9 note=46 velocity=0 time=0.05
note_on channel=1 note=76 velocity=0 time=0.105
note_on channel=1 note=69 velocity=0 time=0.015
note_on channel=0 note=38 velocity=0 time=0.03
note_on channel=1 note=65 velocity=0 time=0
note_on channel=1 note=64 velocity=0 time=0.02
note_on channel=0 note=38 velocity=64 time=0.08
note_on channel=1 note=62 velocity=64 time=0
note_on channel=1 note=74 velocity=64 time=0
note_on channel=1 note=69 velocity=64 time=0
note_on channel=3 note=69 velocity=94 time=0
note_on channel=9 note=46 velocity=64 time=0
note_on channel=9 note=46 velocity=0 time=0.055
note_on channel=1 note=65 velocity=64 time=0.245
note_on channel=3 note=74 velocity=94 time=0
note_on channel=9 note=38 velocity=64 time=0
note_on channel=1 note=69 velocity=0 time=0.025
note_on channel=3 note=69 velocity=0 time=0.01
note_on channel=9 note=38 velocity=0 time=0.075
note_on channel=0 note=38 velocity=0 time=0.075
note_on channel=0 note=33 velocity=64 time=0.115
note_on channel=1 note=69 velocity=64 time=0
note_on channel=9 note=46 velocity=64 time=0
note_on channel=1 note=74 velocity=0 time=0.035
note_on channel=9 note=46 velocity=0 time=0.015
note_on channel=1 note=62 velocity=0 time=0.015
note_on channel=0 note=33 velocity=0 time=0.155
note_on channel=1 note=65 velocity=0 time=0.025
note_on channel=0 note=33 velocity=64 time=0.055
note_on channel=1 note=65 velocity=64 time=0
note_on channel=1 note=62 velocity=64 time=0
note_on channel=1 note=74 velocity=64 time=0
note_on channel=9 note=46 velocity=64 time=0
note_on channel=9 note=46 velocity=0 time=0.045
note_on channel=1 note=69 velocity=0 time=0.065
note_on channel=1 note=65 velocity=0 time=0.005
note_on channel=1 note=74 velocity=0 time=0.06
note_on channel=1 note=62 velocity=0 time=0.045
note_on channel=1 note=75 velocity=64 time=0.08
note_on channel=1 note=63 velocity=64 time=0
note_on channel=3 note=73 velocity=94 time=0
note_on channel=9 note=38 velocity=64 time=0
note_on channel=3 note=74 velocity=0 time=0.02
note_on channel=0 note=33 velocity=0 time=0.055
note_on channel=9 note=38 velocity=0 time=0.035
note_on channel=1 note=63 velocity=0 time=0.075
note_on channel=1 note=75 velocity=0 time=0
note_on channel=0 note=33 velocity=64 time=0.115
note_on channel=1 note=73 velocity=64 time=0
note_on channel=1 note=76 velocity=64 time=0
note_on channel=1 note=64 velocity=64 time=0
note_on channel=3 note=69 velocity=94 time=0
note_on channel=9 note=46 velocity=64 time=0
note_on channel=3 note=73 velocity=0 time=0.01
note_on channel=9 note=46 velocity=0 time=0.04
note_on channel=0 note=33 velocity=0 time=0.165
note_on channel=0 note=33 velocity=64 time=0.085
note_on channel=1 note=69 velocity=64 time=0
note_on channel=9 note=46 velocity=64 time=0
note_on channel=9 note=46 velocity=0 time=0.05
note_on channel=1 note=73 velocity=0 time=0.01
note_on channel=1 note=73 velocity=64 time=0.24
note_on channel=3 note=67 velocity=94 time=0
note_on channel=9 note=38 velocity=64 time=0
note_on channel=3 note=69 velocity=0 time=0.03
note_on channel=9 note=38 velocity=0 time=0.08
note_on channel=1 note=76 velocity=0 time=0.015
note_on channel=0 note=33 velocity=0 time=0.015
note_on channel=1 note=69 velocity=0 time=0.015
note_on channel=1 note=73 velocity=0 time=0.015
note_on channel=1 note=64 velocity=0 time=0.03
note_on channel=0 note=40 velocity=64 time=0.1
note_on channel=1 note=77 velocity=64 time=0
note_on channel=1 note=69 velocity=64 time=0
note_on channel=1 note=65 velocity=64 time=0
note_on channel=9 note=46 velocity=64 time=0
note_on channel=9 note=46 velocity=0 time=0.045
note_on channel=1 note=65 velocity=0 time=0.125
note_on channel=1 note=77 velocity=0 time=0.02
note_on channel=0 note=40 velocity=0 time=0.005
note_on channel=1 note=69 velocity=0 time=0.055
note_on channel=0 note=40 velocity=64 time=0.05
note_on channel=1 note=65 velocity=64 time=0
note_on channel=1 note=77 velocity=64 time=0
note_on channel=1 note=69 velocity=64 time=0
note_on channel=9 note=46 velocity=64 time=0
note_on channel=9 note=46 velocity=0 time=0.045
note_on channel=9 note=38 velocity=64 time=0.255
note_on channel=9 note=38 velocity=0 time=0.105
note_on channel=0 note=40 velocity=0 time=0.015
note_on channel=3 note=67 velocity=0 time=0.07
note_on channel=0 note=33 velocity=64 time=0.11
note_on channel=9 note=46 velocity=64 time=0
note_on channel=9 note=46 velocity=0 time=0.05
note_on channel=0 note=33 velocity=0 time=0.14
note_on channel=1 note=77 velocity=0 time=0
note_on channel=1 note=69 velocity=0 time=0.035
note_on channel=1 note=65 velocity=0 time=0
note_on channel=0 note=33 velocity=64 time=0.075
note_on channel=1 note=64 velocity=64 time=0
note_on channel=1 note=76 velocity=64 time=0
note_on channel=1 note=73 velocity=64 time=0
note_on channel=1 note=69 velocity=64 time=0
note_on channel=3 note=69 velocity=94 time=0
note_on channel=9 note=46 velocity=64 time=0
note_on channel=9 note=46 velocity=0 time=0.05
note_on channel=1 note=76 velocity=0 time=0.14
note_on channel=1 note=69 velocity=0 time=0.005
note_on channel=1 note=73 velocity=0 time=0.005
note_on channel=1 note=64 velocity=0 time=0.075
note_on channel=3 note=69 velocity=0 time=0.02
note_on channel=1 note=69 velocity=64 time=0.005
note_on channel=1 note=77 velocity=64 time=0
note_on channel=1 note=65 velocity=64 time=0
note_on channel=3 note=76 velocity=94 time=0
note_on channel=9 note=38 velocity=64 time=0
note_on channel=9 note=38 velocity=0 time=0.115
note_on channel=0 note=33 velocity=0 time=0.025
note_on channel=0 note=40 velocity=64 time=0.16
note_on channel=1 note=76 velocity=64 time=0
note_on channel=1 note=64 velocity=64 time=0
note_on channel=9 note=46 velocity=64 time=0
note_on channel=9 note=46 velocity=0 time=0.05
note_on channel=1 note=77 velocity=0 time=0.01
note_on channel=1 note=65 velocity=0 time=0.03
note_on channel=0 note=40 velocity=0 time=0.12
note_on channel=0 note=40 velocity=64 time=0.09
note_on channel=1 note=73 velocity=64 time=0
note_on channel=9 note=46 velocity=64 time=0
note_on channel=1 note=69 velocity=0 time=0.045
note_on channel=9 note=46 velocity=0 time=0.005
note_on channel=1 note=76 velocity=0 time=0.22
note_on channel=1 note=69 velocity=64 time=0.03
note_on channel=3 note=76 velocity=0 time=0
note_on channel=3 note=73 velocity=94 time=0
note_on channel=9 note=38 velocity=64 time=0
note_on channel=1 note=64 velocity=0 time=0.015
note_on channel=1 note=73 velocity=0 time=0.065
note_on channel=0 note=40 velocity=0 time=0.005
note_on channel=9 note=38 velocity=0 time=0.04
note_on channel=1 note=69 velocity=0 time=0.01
note_on channel=1 note=60 velocity=64 time=0.015
note_on channel=1 note=60 velocity=0 time=0.085
note_on channel=3 note=73 velocity=0 time=0.02
note_on channel=0 note=38 velocity=64 time=0.045
note_on channel=1 note=62 velocity=64 time=0
note_on channel=1 note=74 velocity=64 time=0
note_on channel=3 note=74 velocity=94 time=0
note_on channel=9 note=46 velocity=64 time=0
note_on channel=9 note=46 velocity=0 time=0.055
note_on channel=0 note=38 velocity=0 time=0.165
note_on channel=0 note=38 velocity=64 time=0.08
note_on channel=1 note=69 velocity=64 time=0
note_on channel=9 note=46 velocity=64 time=0
note_on channel=9 note=46 velocity=0 time=0.055
note_on channel=1 note=74 velocity=0 time=0.21
note_on channel=1 note=69 velocity=0 time=0.01
note_on channel=1 note=65 velocity=64 time=0.025
note_on channel=9 note=38 velocity=64 time=0
note_on channel=0 note=38 velocity=0 time=0.115
note_on channel=9 note=38 velocity=0 time=0.01
note_on channel=1 note=65 velocity=0 time=0.105
note_on channel=0 note=33 velocity=64 time=0.07
note_on channel=1 note=65 velocity=64 time=0
note_on channel=1 note=76 velocity=64 time=0
note_on channel=9 note=46 velocity=64 time=0
note_on channel=9 note=46 velocity=0 time=0.05
note_on channel=0 note=33 velocity=0 time=0.16
note_on channel=0 note=33 velocity=64 time=0.09
note_on channel=1 note=74 velocity=64 time=0
note_on channel=9 note=46 velocity=64 time=0
note_on channel=1 note=76 velocity=0 time=0.045
note_on channel=9 note=46 velocity=0 time=0.01
note_on channel=1 note=65 velocity=0 time=0.095
note_on channel=1 note=69 velocity=64 time=0.15
note_on channel=9 note=38 velocity=64 time=0
note_on channel=3 note=74 velocity=0 time=0.02
note_on channel=0 note=33 velocity=0 time=0.07
note_on channel=1 note=62 velocity=0 time=0.02
note_on channel=1 note=69 velocity=0 time=0.015
note_on channel=1 note=59 velocity=64 time=0.025
note_on channel=1 note=60 velocity=64 time=0
note_on channel=9 note=38 velocity=0 time=0.01
note_on channel=1 note=74 velocity=0 time=0.015
note_on channel=1 note=59 velocity=0 time=0.1
note_on channel=1 note=60 velocity=0 time=0.005
note_on channel=0 note=38 velocity=64 time=0.02
note_on channel=1 note=62 velocity=64 time=0
note_on channel=1 note=74 velocity=64 time=0
note_on channel=1 note=69 velocity=64 time=0
note_on channel=9 note=46 velocity=64 time=0
note_on channel=9 note=46 velocity=0 time=0.045
note_on channel=1 note=66 velocity=64 time=0.255
note_on channel=1 note=69 velocity=0 time=0.03
note_on channel=1 note=74 velocity=0 time=0.16
note_on channel=1 note=66 velocity=0 time=0.01
note_on channel=0 note=38 velocity=0 time=0.015
note_on channel=0 note=40 velocity=64 time=0.085
note_on channel=1 note=66 velocity=64 time=0
note_on channel=1 note=69 velocity=64 time=0
note_on channel=1 note=76 velocity=64 time=0
note_on channel=9 note=46 velocity=64 time=0
note_on channel=9 note=46 velocity=0 time=0.04
note_on channel=1 note=76 velocity=0 time=0.395
note_on channel=0 note=40 velocity=0 time=0.06
note_on channel=1 note=69 velocity=0 time=0
note_on channel=1 note=66 velocity=0 time=0.025
note_on channel=0 note=42 velocity=64 time=0.08
note_on channel=1 note=66 velocity=64 time=0
note_on channel=1 note=74 velocity=64 time=0
note_on channel=1 note=69 velocity=64 time=0
note_on channel=9 note=46 velocity=64 time=0
note_on channel=9 note=46 velocity=0 time=0.045
note_on channel=2 note=62 velocity=64 time=0.255
note_on channel=2 note=58 velocity=64 time=0
note_on channel=1 note=66 velocity=0 time=0.025
note_on channel=2 note=58 velocity=0 time=0.13
note_on channel=1 note=69 velocity=0 time=0.005
note_on channel=0 note=42 velocity=0 time=0.02
note_on channel=1 note=74 velocity=0 time=0.01
note_on channel=1 note=62 velocity=0 time=0.005
note_on channel=2 note=62 velocity=0 time=0.04
note_on channel=0 note=43 velocity=64 time=0.065
note_on channel=1 note=62 velocity=64 time=0
note_on channel=1 note=70 velocity=64 time=0
note_on channel=1 note=74 velocity=64 time=0
note_on channel=2 note=70 velocity=64 time=0
note_on channel=2 note=67 velocity=64 time=0
note_on channel=9 note=46 velocity=64 time=0
note_on channel=9 note=46 velocity=0 time=0.04
note_on channel=2 note=67 velocity=0 time=0.16
note_on channel=2 note=70 velocity=0 time=0.04
note_on channel=0 note=43 velocity=0 time=0.015
note_on channel=0 note=43 velocity=64 time=0.045
note_on channel=1 note=67 velocity=64 time=0
note_on channel=2 note=70 velocity=64 time=0
note_on channel=2 note=67 velocity=64 time=0
note_on channel=9 note=46 velocity=64 time=0
note_on channel=9 note=46 velocity=0 time=0.04
note_on channel=1 note=70 velocity=0 time=0.02
note_on channel=2 note=67 velocity=0 time=0.14
note_on channel=2 note=70 velocity=0 time=0.025
note_on channel=1 note=70 velocity=64 time=0.075
note_on channel=2 note=70 velocity=64 time=0
note_on channel=2 note=67 velocity=64 time=0
note_on channel=9 note=38 velocity=64 time=0
note_on channel=9 note=38 velocity=0 time=0.1
note_on channel=0 note=43 velocity=0 time=0.055
note_on channel=1 note=67 velocity=0 time=0.005
note_on channel=1 note=70 velocity=0 time=0.02
note_on channel=1 note=74 velocity=0 time=0.005
note_on channel=2 note=67 velocity=0 time=0.03
note_on channel=1 note=62 velocity=0 time=0.005
note_on channel=2 note=70 velocity=0 time=0.035
note_on channel=0 note=38 velocity=64 time=0.045
note_on channel=1 note=67 velocity=64 time=0
note_on channel=1 note=76 velocity=64 time=0
note_on channel=1 note=64 velocity=64 time=0
note_on channel=2 note=69 velocity=64 time=0
note_on channel=2 note=66 velocity=64 time=0
note_on channel=9 note=46 velocity=64 time=0
note_on channel=9 note=46 velocity=0 time=0.045
note_on channel=1 note=64 velocity=0 time=0.125
note_on channel=1 note=76 velocity=0 time=0
note_on channel=2 note=66 velocity=0 time=0.025
note_on channel=0 note=38 velocity=0 time=0.01
note_on channel=1 note=67 velocity=0 time=0.005
note_on channel=2 note=69 velocity=0 time=0.04
note_on channel=0 note=38 velocity=64 time=0.05
note_on channel=1 note=64 velocity=64 time=0
note_on channel=1 note=76 velocity=64 time=0
note_on channel=1 note=67 velocity=64 time=0
note_on channel=2 note=72 velocity=64 time=0
note_on channel=2 note=69 velocity=64 time=0
note_on channel=9 note=46 velocity=64 time=0
note_on channel=9 note=46 velocity=0 time=0.04
note_on channel=2 note=69 velocity=0 time=0.16
note_on channel=2 note=70 velocity=64 time=0.1
note_on channel=2 note=67 velocity=64 time=0
note_on channel=9 note=38 velocity=64 time=0
note_on channel=2 note=72 velocity=0 time=0.045
note_on channel=9 note=38 velocity=0 time=0.06
note_on channel=0 note=38 velocity=0 time=0.01
note_on channel=2 note=70 velocity=0 time=0.055
note_on channel=2 note=67 velocity=0 time=0.12
note_on channel=0 note=43 velocity=64 time=0.01
note_on channel=9 note=46 velocity=64 time=0
note_on channel=9 note=46 velocity=0 time=0.04
note_on channel=1 note=76 velocity=0 time=0.03
note_on channel=1 note=67 velocity=0 time=0.01
note_on channel=1 note=64 velocity=0 time=0.05
note_on channel=0 note=43 velocity=0 time=0.075
note_on channel=0 note=43 velocity=64 time=0.095
note_on channel=1 note=62 velocity=64 time=0
note_on channel=1 note=67 velocity=64 time=0
note_on channel=1 note=70 velocity=64 time=0
note_on channel=1 note=74 velocity=64 time=0
note_on channel=2 note=70 velocity=64 time=0
note_on channel=2 note=67 velocity=64 time=0
note_on channel=9 note=46 velocity=64 time=0
note_on channel=9 note=46 velocity=0 time=0.04
note_on channel=1 note=70 velocity=0 time=0.165
note_on channel=2 note=70 velocity=0 time=0.005
note_on channel=2 note=67 velocity=0 time=0.005
note_on channel=1 note=74 velocity=0 time=0.005
note_on channel=1 note=67 velocity=0 time=0
note_on channel=1 note=62 velocity=0 time=0.055
note_on channel=1 note=64 velocity=64 time=0.025
note_on channel=1 note=67 velocity=64 time=0
note_on channel=1 note=76 velocity=64 time=0
note_on channel=2 note=70 velocity=64 time=0
note_on channel=2 note=76 velocity=64 time=0
note_on channel=9 note=38 velocity=64 time=0
note_on channel=9 note=38 velocity=0 time=0.115
note_on channel=0 note=43 velocity=0 time=0.095
note_on channel=0 note=38 velocity=64 time=0.09
note_on channel=9 note=46 velocity=64 time=0
note_on channel=9 note=46 velocity=0 time=0.04
note_on channel=1 note=76 velocity=0 time=0.15
note_on channel=0 note=38 velocity=0 time=0.015
note_on channel=1 note=64 velocity=0 time=0.01
note_on channel=1 note=67 velocity=0 time=0.01
note_on channel=0 note=38 velocity=64 time=0.075
note_on channel=1 note=62 velocity=64 time=0
note_on channel=1 note=70 velocity=64 time=0
note_on channel=1 note=74 velocity=64 time=0
note_on channel=1 note=67 velocity=64 time=0
note_on channel=9 note=46 velocity=64 time=0
note_on channel=9 note=46 velocity=0 time=0.04
note_on channel=2 note=70 velocity=0 time=0.14
note_on channel=1 note=67 velocity=0 time=0.025
note_on channel=1 note=70 velocity=0 time=0.005
note_on channel=1 note=74 velocity=0 time=0.03
note_on channel=2 note=76 velocity=0 time=0.02
note_on channel=1 note=64 velocity=64 time=0.04
note_on channel=1 note=67 velocity=64 time=0
note_on channel=1 note=76 velocity=64 time=0
note_on channel=1 note=70 velocity=64 time=0
note_on channel=2 note=70 velocity=64 time=0
note_on channel=2 note=74 velocity=64 time=0
note_on channel=9 note=38 velocity=64 time=0
note_on channel=1 note=62 velocity=0 time=0.01
note_on channel=0 note=38 velocity=0 time=0.07
note_on channel=1 note=70 velocity=0 time=0.03
note_on channel=9 note=38 velocity=0 time=0
note_on channel=1 note=76 velocity=0 time=0.08
note_on channel=1 note=67 velocity=0 time=0.03
note_on channel=1 note=64 velocity=0 time=0.005
note_on channel=2 note=70 velocity=0 time=0.025
note_on channel=2 note=74 velocity=0 time=0.045
note_on channel=0 note=38 velocity=64 time=0.005
note_on channel=1 note=74 velocity=64 time=0
note_on channel=1 note=62 velocity=64 time=0
note_on channel=1 note=69 velocity=64 time=0
note_on channel=2 note=65 velocity=64 time=0
note_on channel=2 note=69 velocity=64 time=0
note_on channel=9 note=46 velocity=64 time=0
note_on channel=9 note=46 velocity=0 time=0.055
note_on channel=2 note=69 velocity=0 time=0.15
note_on channel=2 note=65 velocity=0 time=0.01
note_on channel=0 note=38 velocity=0 time=0.015
note_on channel=0 note=38 velocity=64 time=0.07
note_on channel=1 note=65 velocity=64 time=0
note_on channel=2 note=65 velocity=64 time=0
note_on channel=2 note=69 velocity=64 time=0
note_on channel=9 note=46 velocity=64 time=0
note_on channel=1 note=69 velocity=0 time=0.01
note_on channel=9 note=46 velocity=0 time=0.04
note_on channel=2 note=69 velocity=0 time=0.165
note_on channel=2 note=65 velocity=0 time=0.005
note_on channel=1 note=69 velocity=64 time=0.08
note_on channel=2 note=65 velocity=64 time=0
note_on channel=2 note=69 velocity=64 time=0
note_on channel=9 note=38 velocity=64 time=0
note_on channel=9 note=38 velocity=0 time=0.105
note_on channel=1 note=74 velocity=0 time=0.04
note_on channel=1 note=65 velocity=0 time=0.005
note_on channel=1 note=69 velocity=0 time=0.02
note_on channel=0 note=38 velocity=0 time=0.01
note_on channel=2 note=69 velocity=0 time=0
note_on channel=1 note=62 velocity=0 time=0.015
note_on channel=2 note=65 velocity=0 time=0.045
note_on channel=0 note=33 velocity=64 time=0.06
note_on channel=1 note=64 velocity=64 time=0
note_on channel=1 note=69 velocity=64 time=0
note_on channel=1 note=76 velocity=64 time=0
note_on channel=1 note=65 velocity=64 time=0
note_on channel=2 note=64 velocity=64 time=0
note_on channel=2 note=67 velocity=64 time=0
note_on channel=9 note=46 velocity=64 time=0
note_on channel=9 note=46 velocity=0 time=0.045
note_on channel=1 note=76 velocity=0 time=0.105
note_on channel=1 note=69 velocity=0 time=0.035
note_on channel=1 note=65 velocity=0 time=0.005
note_on channel=1 note=64 velocity=0 time=0.005
note_on channel=0 note=33 velocity=0 time=0.005
note_on channel=2 note=67 velocity=0 time=0.025
note_on channel=2 note=64 velocity=0 time=0.025
note_on channel=0 note=33 velocity=64 time=0.05
note_on channel=1 note=64 velocity=64 time=0
note_on channel=1 note=76 velocity=64 time=0
note_on channel=1 note=65 velocity=64 time=0
note_on channel=1 note=69 velocity=64 time=0
note_on channel=2 note=67 velocity=64 time=0
note_on channel=2 note=70 velocity=64 time=0
note_on channel=9 note=46 velocity=64 time=0
note_on channel=9 note=46 velocity=0 time=0.04
note_on channel=1 note=69 velocity=0 time=0.06
note_on channel=1 note=65 velocity=0 time=0.11
note_on channel=2 note=67 velocity=0 time=0.04
note_on channel=2 note=70 velocity=0 time=0.04
note_on channel=2 note=65 velocity=64 time=0.01
note_on channel=2 note=69 velocity=64 time=0
note_on channel=9 note=38 velocity=64 time=0
note_on channel=1 note=76 velocity=0 time=0.1
note_on channel=9 note=38 velocity=0 time=0
note_on channel=0 note=33 velocity=0 time=0.055
note_on channel=1 note=64 velocity=0 time=0.045
note_on channel=2 note=69 velocity=0 time=0.015
note_on channel=2 note=65 velocity=0 time=0.05
note_on channel=0 note=38 velocity=64 time=0.035
note_on channel=1 note=74 velocity=64 time=0
note_on channel=1 note=69 velocity=64 time=0
note_on channel=1 note=62 velocity=64 time=0
note_on channel=9 note=46 velocity=64 time=0
note_on channel=9 note=46 velocity=0 time=0.05
note_on channel=0 note=38 velocity=0 time=0.135
note_on channel=1 note=69 velocity=0 time=0.105
note_on channel=0 note=38 velocity=64 time=0.01
note_on channel=1 note=65 velocity=64 time=0
note_on channel=2 note=69 velocity=64 time=0
note_on channel=2 note=65 velocity=64 time=0
note_on channel=9 note=46 velocity=64 time=0
note_on channel=9 note=46 velocity=0 time=0.05
note_on channel=2 note=65 velocity=0 time=0.13
note_on channel=1 note=69 velocity=64 time=0.12
note_on channel=2 note=74 velocity=64 time=0
note_on channel=2 note=69 velocity=64 time=0
note_on channel=9 note=38 velocity=64 time=0
note_on channel=2 note=69 velocity=0 time=0.03
note_on channel=1 note=74 velocity=0 time=0.06
note_on channel=9 note=38 velocity=0 time=0.02
note_on channel=1 note=65 velocity=0 time=0.05
note_on channel=0 note=38 velocity=0 time=0.03
note_on channel=1 note=69 velocity=0 time=0.045
note_on channel=0 note=33 velocity=64 time=0.065
note_on channel=1 note=76 velocity=64 time=0
note_on channel=1 note=69 velocity=64 time=0
note_on channel=1 note=65 velocity=64 time=0
note_on channel=9 note=46 velocity=64 time=0
note_on channel=9 note=46 velocity=0 time=0.045
note_on channel=1 note=65 velocity=0 time=0.06
note_on channel=1 note=69 velocity=0 time=0.055
note_on channel=1 note=62 velocity=0 time=0.01
note_on channel=0 note=33 velocity=0 time=0.025
note_on channel=1 note=76 velocity=0 time=0.01
note_on channel=0 note=33 velocity=64 time=0.095
note_on channel=1 note=62 velocity=64 time=0
note_on channel=1 note=74 velocity=64 time=0
note_on channel=1 note=69 velocity=64 time=0
note_on channel=9 note=46 velocity=64 time=0
note_on channel=9 note=46 velocity=0 time=0.05
note_on channel=1 note=69 velocity=0 time=0.02
note_on channel=1 note=74 velocity=0 time=0.12
note_on channel=1 note=62 velocity=0 time=0.045
note_on channel=2 note=69 velocity=0 time=0.04
note_on channel=1 note=63 velocity=64 time=0.025
note_on channel=1 note=75 velocity=64 time=0
note_on channel=2 note=73 velocity=64 time=0
note_on channel=2 note=69 velocity=64 time=0
note_on channel=9 note=38 velocity=64 time=0
note_on channel=2 note=74 velocity=0 time=0.06
note_on channel=0 note=33 velocity=0 time=0.03
note_on channel=9 note=38 velocity=0 time=0.02
note_on channel=1 note=75 velocity=0 time=0.06
note_on channel=1 note=63 velocity=0 time=0.055
note_on channel=2 note=69 velocity=0 time=0.015
note_on channel=0 note=33 velocity=64 time=0.06
note_on channel=1 note=73 velocity=64 time=0
note_on channel=1 note=76 velocity=64 time=0
note_on channel=1 note=64 velocity=64 time=0
note_on channel=2 note=69 velocity=64 time=0
note_on channel=2 note=65 velocity=64 time=0
note_on channel=9 note=46 velocity=64 time=0
note_on channel=2 note=73 velocity=0 time=0.045
note_on channel=9 note=46 velocity=0 time=0.005
note_on channel=0 note=33 velocity=0 time=0.14
note_on channel=2 note=65 velocity=0 time=0.055
note_on channel=0 note=33 velocity=64 time=0.055
note_on channel=1 note=69 velocity=64 time=0
note_on channel=2 note=67 velocity=64 time=0
note_on channel=2 note=64 velocity=64 time=0
note_on channel=9 note=46 velocity=64 time=0
note_on channel=2 note=69 velocity=0 time=0.035
note_on channel=9 note=46 velocity=0 time=0.02
note_on channel=1 note=73 velocity=0 time=0.02
note_on channel=2 note=64 velocity=0 time=0.1
note_on channel=2 note=67 velocity=0 time=0.05
note_on channel=1 note=73 velocity=64 time=0.075
note_on channel=2 note=67 velocity=64 time=0
note_on channel=2 note=64 velocity=64 time=0
note_on channel=9 note=38 velocity=64 time=0
note_on channel=9 note=38 velocity=0 time=0.11
note_on channel=1 note=76 velocity=0 time=0.02
note_on channel=0 note=33 velocity=0 time=0.005
note_on channel=1 note=69 velocity=0 time=0.015
note_on channel=1 note=73 velocity=0 time=0.03
note_on channel=1 note=64 velocity=0 time=0.02
note_on channel=2 note=64 velocity=0 time=0
note_on channel=0 note=40 velocity=64 time=0.1
note_on channel=1 note=69 velocity=64 time=0
note_on channel=1 note=77 velocity=64 time=0
note_on channel=1 note=65 velocity=64 time=0
note_on channel=2 note=66 velocity=64 time=0
note_on channel=2 note=62 velocity=64 time=0
note_on channel=9 note=46 velocity=64 time=0
note_on channel=2 note=67 velocity=0 time=0.01
note_on channel=9 note=46 velocity=0 time=0.04
note_on channel=1 note=65 velocity=0 time=0.125
note_on channel=0 note=40 velocity=0 time=0.01
note_on channel=1 note=77 velocity=0 time=0
note_on channel=2 note=62 velocity=0 time=0.035
note_on channel=1 note=69 velocity=0 time=0.01
note_on channel=2 note=66 velocity=0 time=0.01
note_on channel=0 note=40 velocity=64 time=0.06
note_on channel=1 note=65 velocity=64 time=0
note_on channel=1 note=77 velocity=64 time=0
note_on channel=1 note=69 velocity=64 time=0
note_on channel=2 note=69 velocity=64 time=0
note_on channel=2 note=65 velocity=64 time=0
note_on channel=9 note=46 velocity=64 time=0
note_on channel=9 note=46 velocity=0 time=0.05
note_on channel=2 note=65 velocity=0 time=0.16
note_on channel=2 note=69 velocity=0 time=0.075
note_on channel=2 note=67 velocity=64 time=0.015
note_on channel=2 note=64 velocity=64 time=0
note_on channel=9 note=38 velocity=64 time=0
note_on channel=9 note=38 velocity=0 time=0.105
note_on channel=0 note=40 velocity=0 time=0.035
note_on channel=2 note=67 velocity=0 time=0.14
note_on channel=2 note=64 velocity=0 time=0.005
note_on channel=0 note=33 velocity=64 time=0.015
note_on channel=9 note=46 velocity=64 time=0
note_on channel=1 note=77 velocity=0 time=0.025
note_on channel=9 note=46 velocity=0 time=0.025
note_on channel=1 note=69 velocity=0 time=0.005
note_on channel=1 note=65 velocity=0 time=0.035
note_on channel=0 note=33 velocity=0 time=0.095
note_on channel=0 note=33 velocity=64 time=0.115
note_on channel=1 note=64 velocity=64 time=0
note_on channel=1 note=76 velocity=64 time=0
note_on channel=1 note=69 velocity=64 time=0
note_on channel=1 note=73 velocity=64 time=0
note_on channel=2 note=73 velocity=64 time=0
note_on channel=2 note=76 velocity=64 time=0
note_on channel=9 note=46 velocity=64 time=0
note_on channel=9 note=46 velocity=0 time=0.05
note_on channel=1 note=73 velocity=0 time=0.145
note_on channel=1 note=76 velocity=0 time=0
note_on channel=1 note=69 velocity=0 time=0.035
note_on channel=1 note=69 velocity=64 time=0.07
note_on channel=1 note=77 velocity=64 time=0
note_on channel=1 note=65 velocity=64 time=0
note_on channel=9 note=38 velocity=64 time=0
note_on channel=1 note=64 velocity=0 time=0.02
note_on channel=2 note=73 velocity=0 time=0.05
note_on channel=9 note=38 velocity=0 time=0.04
note_on channel=0 note=33 velocity=0 time=0.05
note_on channel=2 note=76 velocity=0 time=0.04
note_on channel=0 note=40 velocity=64 time=0.1
note_on channel=2 note=67 velocity=64 time=0
note_on channel=2 note=73 velocity=64 time=0
note_on channel=9 note=46 velocity=64 time=0
note_on channel=9 note=46 velocity=0 time=0.05
note_on channel=1 note=77 velocity=0 time=0.105
note_on channel=0 note=40 velocity=0 time=0.03
note_on channel=1 note=69 velocity=0 time=0
note_on channel=0 note=40 velocity=64 time=0.115
note_on channel=1 note=64 velocity=64 time=0
note_on channel=1 note=76 velocity=64 time=0
note_on channel=1 note=69 velocity=64 time=0
note_on channel=1 note=73 velocity=64 time=0
note_on channel=9 note=46 velocity=64 time=0
note_on channel=1 note=65 velocity=0 time=0.015
note_on channel=9 note=46 velocity=0 time=0.035
note_on channel=2 note=67 velocity=0 time=0.09
note_on channel=2 note=73 velocity=0 time=0.025
note_on channel=1 note=73 velocity=0 time=0.065
note_on channel=1 note=76 velocity=0 time=0.02
note_on channel=1 note=69 velocity=0 time=0.01
note_on channel=2 note=64 velocity=64 time=0.04
note_on channel=2 note=67 velocity=64 time=0
note_on channel=9 note=38 velocity=64 time=0
note_on channel=1 note=64 velocity=0 time=0.02
note_on channel=9 note=38 velocity=0 time=0.09
note_on channel=0 note=40 velocity=0 time=0.02
note_on channel=1 note=59 velocity=64 time=0.02
note_on channel=1 note=60 velocity=64 time=0
note_on channel=2 note=64 velocity=0 time=0.035
note_on channel=1 note=59 velocity=0 time=0.045
note_on channel=2 note=67 velocity=0 time=0.01
note_on channel=1 note=60 velocity=0 time=0.005
note_on channel=0 note=38 velocity=64 time=0.055
note_on channel=1 note=62 velocity=64 time=0
note_on channel=1 note=74 velocity=64 time=0
note_on channel=1 note=69 velocity=64 time=0
note_on channel=2 note=62 velocity=64 time=0
note_on channel=2 note=65 velocity=64 time=0
note_on channel=9 note=46 velocity=64 time=0
note_on channel=9 note=46 velocity=0 time=0.05
note_on channel=0 note=38 velocity=0 time=0.16
note_on channel=1 note=69 velocity=0 time=0.08
note_on channel=0 note=38 velocity=64 time=0.01
note_on channel=1 note=65 velocity=64 time=0
note_on channel=9 note=46 velocity=64 time=0
note_on channel=9 note=46 velocity=0 time=0.045
note_on channel=1 note=74 velocity=0 time=0.125
note_on channel=1 note=65 velocity=0 time=0.09
note_on channel=1 note=65 velocity=64 time=0.04
note_on channel=1 note=69 velocity=64 time=0
note_on channel=9 note=38 velocity=64 time=0
note_on channel=9 note=38 velocity=0 time=0.125
note_on channel=0 note=38 velocity=0 time=0.04
note_on channel=1 note=65 velocity=0 time=0.015
note_on channel=1 note=69 velocity=0 time=0.03
note_on channel=0 note=33 velocity=64 time=0.09
note_on channel=1 note=76 velocity=64 time=0
note_on channel=1 note=65 velocity=64 time=0
note_on channel=9 note=46 velocity=64 time=0
note_on channel=9 note=46 velocity=0 time=0.05
note_on channel=0 note=33 velocity=0 time=0.145
note_on channel=0 note=33 velocity=64 time=0.105
note_on channel=1 note=74 velocity=64 time=0
note_on channel=9 note=46 velocity=64 time=0
note_on channel=1 note=76 velocity=0 time=0.05
note_on channel=9 note=46 velocity=0 time=0
note_on channel=1 note=65 velocity=0 time=0.045
note_on channel=2 note=65 velocity=0 time=0
note_on channel=2 note=62 velocity=0 time=0.005
note_on channel=1 note=62 velocity=0 time=0.09
note_on channel=1 note=69 velocity=64 time=0.11
note_on channel=1 note=59 velocity=64 time=0
note_on channel=9 note=38 velocity=64 time=0
note_on channel=1 note=74 velocity=0 time=0.11
note_on channel=1 note=69 velocity=0 time=0.02
note_on channel=9 note=38 velocity=0 time=0.01
note_on channel=1 note=60 velocity=64 time=0.01
note_on channel=0 note=33 velocity=0 time=0.005
note_on channel=1 note=59 velocity=0 time=0
note_on channel=1 note=60 velocity=0 time=0.08
note_on channel=0 note=38 velocity=64 time=0.065
note_on channel=1 note=62 velocity=64 time=0
note_on channel=1 note=74 velocity=64 time=0
note_on channel=1 note=69 velocity=64 time=0
note_on channel=1 note=66 velocity=64 time=0
note_on channel=9 note=46 velocity=64 time=0
note_on channel=9 note=46 velocity=0 time=0.05
note_on channel=0 note=38 velocity=0 time=0.45
note_on channel=1 note=66 velocity=0 time=0.015
note_on channel=1 note=74 velocity=0 time=0.035
note_on channel=1 note=69 velocity=0 time=0.01
note_on channel=0 note=40 velocity=64 time=0.04
note_on channel=1 note=76 velocity=64 time=0
note_on channel=1 note=69 velocity=64 time=0
note_on channel=1 note=66 velocity=64 time=0
note_on channel=9 note=46 velocity=64 time=0
note_on channel=9 note=46 velocity=0 time=0.05
note_on channel=1 note=69 velocity=0 time=0.19
note_on channel=0 note=40 velocity=0 time=0.245
note_on channel=1 note=76 velocity=0 time=0.015
note_on channel=1 note=66 velocity=0 time=0.02
note_on channel=0 note=42 velocity=64 time=0.08
note_on channel=1 note=74 velocity=64 time=0
note_on channel=1 note=69 velocity=64 time=0
note_on channel=9 note=46 velocity=64 time=0
note_on channel=9 note=46 velocity=0 time=0.055
note_on channel=1 note=66 velocity=64 time=0.245
note_on channel=2 note=62 velocity=64 time=0
note_on channel=2 note=58 velocity=64 time=0
note_on channel=1 note=69 velocity=0 time=0.09
note_on channel=1 note=62 velocity=0 time=0.025
note_on channel=1 note=66 velocity=0 time=0.06
note_on channel=1 note=74 velocity=0 time=0.04
note_on channel=0 note=42 velocity=0 time=0.005
note_on channel=2 note=62 velocity=0 time=0
note_on channel=2 note=58 velocity=0 time=0.05
note_on channel=0 note=43 velocity=64 time=0.03
note_on channel=1 note=62 velocity=64 time=0
note_on channel=1 note=70 velocity=64 time=0
note_on channel=1 note=74 velocity=64 time=0
note_on channel=2 note=70 velocity=64 time=0
note_on channel=2 note=67 velocity=64 time=0
note_on channel=9 note=46 velocity=64 time=0
note_on channel=9 note=46 velocity=0 time=0.045
note_on channel=0 note=43 velocity=0 time=0.16
note_on channel=2 note=67 velocity=0 time=0.01
note_on channel=2 note=70 velocity=0 time=0.045
note_on channel=0 note=43 velocity=64 time=0.04
note_on channel=1 note=67 velocity=64 time=0
note_on channel=2 note=70 velocity=64 time=0
note_on channel=2 note=67 velocity=64 time=0
note_on channel=9 note=46 velocity=64 time=0
note_on channel=9 note=46 velocity=0 time=0.04
note_on channel=1 note=70 velocity=0 time=0.06
note_on channel=1 note=74 velocity=0 time=0.1
note_on channel=2 note=70 velocity=0 time=0.025
note_on channel=2 note=67 velocity=0 time=0.01
note_on channel=1 note=70 velocity=64 time=0.065
note_on channel=2 note=70 velocity=64 time=0
note_on channel=2 note=67 velocity=64 time=0
note_on channel=9 note=38 velocity=64 time=0
note_on channel=9 note=38 velocity=0 time=0.1
note_on channel=1 note=67 velocity=0 time=0.03
note_on channel=0 note=43 velocity=0 time=0.05
note_on channel=1 note=70 velocity=0 time=0.005
note_on channel=2 note=67 velocity=0 time=0.04
note_on channel=1 note=62 velocity=0 time=0.02
note_on channel=2 note=70 velocity=0 time=0.025
note_on channel=0 note=38 velocity=64 time=0.03
note_on channel=0 note=40 velocity=64 time=0
note_on channel=1 note=67 velocity=64 time=0
note_on channel=1 note=76 velocity=64 time=0
note_on channel=1 note=64 velocity=64 time=0
note_on channel=1 note=70 velocity=64 time=0
note_on channel=2 note=69 velocity=64 time=0
note_on channel=2 note=66 velocity=64 time=0
note_on channel=9 note=46 velocity=64 time=0
note_on channel=9 note=46 velocity=0 time=0.05
note_on channel=0 note=40 velocity=0 time=0.015
note_on channel=1 note=70 velocity=0 time=0.03
note_on channel=0 note=38 velocity=0 time=0.07
note_on channel=1 note=64 velocity=0 time=0
note_on channel=1 note=76 velocity=0 time=0.01
note_on channel=1 note=67 velocity=0 time=0.025
note_on channel=2 note=66 velocity=0 time=0.02
note_on channel=0 note=38 velocity=64 time=0.08
note_on channel=1 note=64 velocity=64 time=0
note_on channel=1 note=76 velocity=64 time=0
note_on channel=1 note=67 velocity=64 time=0
note_on channel=2 note=72 velocity=64 time=0
note_on channel=2 note=69 velocity=64 time=0
note_on channel=9 note=46 velocity=64 time=0
note_on channel=2 note=69 velocity=0 time=0.01
note_on channel=9 note=46 velocity=0 time=0.025
note_on channel=2 note=69 velocity=0 time=0.21
note_on channel=2 note=70 velocity=64 time=0.055
note_on channel=2 note=67 velocity=64 time=0
note_on channel=9 note=38 velocity=64 time=0
note_on channel=2 note=72 velocity=0 time=0.07
note_on channel=9 note=38 velocity=0 time=0.025
note_on channel=0 note=38 velocity=0 time=0.05
note_on channel=2 note=70 velocity=0 time=0.125
note_on channel=2 note=67 velocity=0 time=0.005
note_on channel=0 note=43 velocity=64 time=0.025
note_on channel=9 note=46 velocity=64 time=0
note_on channel=9 note=46 velocity=0 time=0.05
note_on channel=1 note=76 velocity=0 time=0.01
note_on channel=1 note=67 velocity=0 time=0.09
note_on channel=1 note=64 velocity=0 time=0.025
note_on channel=0 note=43 velocity=0 time=0.025
note_on channel=0 note=43 velocity=64 time=0.1
note_on channel=1 note=62 velocity=64 time=0
note_on channel=1 note=70 velocity=64 time=0
note_on channel=1 note=74 velocity=64 time=0
note_on channel=2 note=70 velocity=64 time=0
note_on channel=2 note=67 velocity=64 time=0
note_on channel=9 note=46 velocity=64 time=0
note_on channel=9 note=46 velocity=0 time=0.05
note_on channel=2 note=67 velocity=0 time=0.135
note_on channel=2 note=70 velocity=0 time=0.03
note_on channel=1 note=74 velocity=0 time=0.01
note_on channel=1 note=70 velocity=0 time=0.005
note_on channel=1 note=67 velocity=64 time=0.07
note_on channel=1 note=76 velocity=64 time=0
note_on channel=1 note=64 velocity=64 time=0
note_on channel=2 note=76 velocity=64 time=0
note_on channel=2 note=70 velocity=64 time=0
note_on channel=9 note=38 velocity=64 time=0
note_on channel=1 note=62 velocity=0 time=0.025
note_on channel=9 note=38 velocity=0 time=0.08
note_on channel=0 note=43 velocity=0 time=0.06
note_on channel=0 note=38 velocity=64 time=0.135
note_on channel=9 note=46 velocity=64 time=0
note_on channel=9 note=46 velocity=0 time=0.045
note_on channel=1 note=76 velocity=0 time=0.125
note_on channel=0 note=38 velocity=0 time=0.01
note_on channel=1 note=64 velocity=0 time=0.03
note_on channel=1 note=67 velocity=0 time=0.01
note_on channel=0 note=38 velocity=64 time=0.08
note_on channel=1 note=62 velocity=64 time=0
note_on channel=1 note=70 velocity=64 time=0
note_on channel=1 note=74 velocity=64 time=0
note_on channel=9 note=46 velocity=64 time=0
note_on channel=9 note=46 velocity=0 time=0.04
note_on channel=2 note=70 velocity=0 time=0.095
note_on channel=2 note=74 velocity=64 time=0.165
note_on channel=2 note=70 velocity=64 time=0
note_on channel=9 note=38 velocity=64 time=0
note_on channel=1 note=70 velocity=0 time=0.025
note_on channel=2 note=76 velocity=0 time=0.04
note_on channel=1 note=62 velocity=0 time=0.02
note_on channel=9 note=38 velocity=0 time=0.025
note_on channel=1 note=74 velocity=0 time=0.025
note_on channel=0 note=38 velocity=0 time=0.015
note_on channel=1 note=59 velocity=64 time=0
note_on channel=1 note=60 velocity=64 time=0
note_on channel=1 note=59 velocity=0 time=0.05
note_on channel=1 note=60 velocity=0 time=0.04
note_on channel=2 note=70 velocity=0 time=0.005
note_on channel=0 note=38 velocity=64 time=0.055
note_on channel=1 note=74 velocity=64 time=0
note_on channel=1 note=69 velocity=64 time=0
note_on channel=1 note=62 velocity=64 time=0
note_on channel=2 note=69 velocity=64 time=0
note_on channel=2 note=65 velocity=64 time=0
note_on channel=9 note=46 velocity=64 time=0
note_on channel=2 note=74 velocity=0 time=0.01
note_on channel=9 note=46 velocity=0 time=0.04
note_on channel=2 note=69 velocity=0 time=0.15
note_on channel=0 note=38 velocity=0 time=0.015
note_on channel=2 note=65 velocity=0 time=0.02
note_on channel=0 note=38 velocity=64 time=0.065
note_on channel=1 note=65 velocity=64 time=0
note_on channel=2 note=69 velocity=64 time=0
note_on channel=2 note=65 velocity=64 time=0
note_on channel=9 note=46 velocity=64 time=0
note_on channel=1 note=69 velocity=0 time=0.01
note_on channel=9 note=46 velocity=0 time=0.035
note_on channel=2 note=65 velocity=0 time=0.155
note_on channel=2 note=69 velocity=0 time=0.005
note_on channel=1 note=69 velocity=64 time=0.095
note_on channel=2 note=69 velocity=64 time=0
note_on channel=2 note=65 velocity=64 time=0
note_on channel=9 note=38 velocity=64 time=0
note_on channel=9 note=38 velocity=0 time=0.115
note_on channel=1 note=65 velocity=0 time=0.045
note_on channel=0 note=38 velocity=0 time=0.005
note_on channel=1 note=69 velocity=0 time=0.03
note_on channel=1 note=62 velocity=0 time=0.025
note_on channel=2 note=65 velocity=0 time=0.015
note_on channel=1 note=74 velocity=0 time=0.005
note_on channel=2 note=69 velocity=0 time=0.015
note_on channel=0 note=33 velocity=64 time=0.045
note_on channel=1 note=76 velocity=64 time=0
note_on channel=1 note=64 velocity=64 time=0
note_on channel=1 note=65 velocity=64 time=0
note_on channel=1 note=69 velocity=64 time=0
note_on channel=2 note=67 velocity=64 time=0
note_on channel=2 note=64 velocity=64 time=0
note_on channel=9 note=46 velocity=64 time=0
note_on channel=9 note=46 velocity=0 time=0.04
note_on channel=1 note=76 velocity=0 time=0.135
note_on channel=1 note=69 velocity=0 time=0.015
note_on channel=1 note=65 velocity=0 time=0
note_on channel=0 note=33 velocity=0 time=0.005
note_on channel=1 note=64 velocity=0 time=0.005
note_on channel=2 note=64 velocity=0 time=0.055
note_on channel=0 note=33 velocity=64 time=0.045
note_on channel=1 note=64 velocity=64 time=0
note_on channel=1 note=76 velocity=64 time=0
note_on channel=1 note=69 velocity=64 time=0
note_on channel=1 note=65 velocity=64 time=0
note_on channel=2 note=69 velocity=64 time=0
note_on channel=2 note=70 velocity=64 time=0
note_on channel=2 note=67 velocity=64 time=0
note_on channel=9 note=46 velocity=64 time=0
note_on channel=2 note=67 velocity=0 time=0.045
note_on channel=9 note=46 velocity=0 time=0
note_on channel=2 note=69 velocity=0 time=0.05
note_on channel=2 note=67 velocity=0 time=0.145
note_on channel=2 note=69 velocity=64 time=0.06
note_on channel=2 note=65 velocity=64 time=0
note_on channel=9 note=38 velocity=64 time=0
note_on channel=2 note=70 velocity=0 time=0.035
note_on channel=9 note=38 velocity=0 time=0.075
note_on channel=0 note=33 velocity=0 time=0.01
note_on channel=2 note=69 velocity=0 time=0.075
note_on channel=2 note=65 velocity=0 time=0.065
note_on channel=0 note=38 velocity=64 time=0.04
note_on channel=9 note=46 velocity=64 time=0
note_on channel=9 note=46 velocity=0 time=0.05
note_on channel=1 note=76 velocity=0 time=0.015
note_on channel=1 note=69 velocity=0 time=0.01
note_on channel=1 note=65 velocity=0 time=0.025
note_on channel=1 note=64 velocity=0 time=0.04
note_on channel=0 note=38 velocity=0 time=0.025
note_on channel=0 note=38 velocity=64 time=0.135
note_on channel=1 note=62 velocity=64 time=0
note_on channel=1 note=74 velocity=64 time=0
note_on channel=1 note=69 velocity=64 time=0
note_on channel=2 note=69 velocity=64 time=0
note_on channel=2 note=65 velocity=64 time=0
note_on channel=9 note=46 velocity=64 time=0
note_on channel=9 note=46 velocity=0 time=0.05
note_on channel=2 note=69 velocity=0 time=0.17500000000000002
note_on channel=2 note=65 velocity=0 time=0.01
note_on channel=1 note=65 velocity=64 time=0.065
note_on channel=2 note=74 velocity=64 time=0
note_on channel=2 note=69 velocity=64 time=0
note_on channel=9 note=38 velocity=64 time=0
note_on channel=1 note=69 velocity=0 time=0.03
note_on channel=9 note=38 velocity=0 time=0.09
note_on channel=0 note=38 velocity=0 time=0.05
note_on channel=0 note=33 velocity=64 time=0.13
note_on channel=1 note=69 velocity=64 time=0
note_on channel=9 note=46 velocity=64 time=0
note_on channel=9 note=46 velocity=0 time=0.05
note_on channel=1 note=74 velocity=0 time=0.035
note_on channel=0 note=33 velocity=0 time=0.095
note_on channel=1 note=62 velocity=0 time=0.005
note_on channel=1 note=65 velocity=0 time=0.01
note_on channel=1 note=69 velocity=0 time=0.01
note_on channel=0 note=33 velocity=64 time=0.095
note_on channel=1 note=69 velocity=64 time=0
note_on channel=1 note=74 velocity=64 time=0
note_on channel=1 note=62 velocity=64 time=0
note_on channel=9 note=46 velocity=64 time=0
note_on channel=9 note=46 velocity=0 time=0.05
note_on channel=1 note=69 velocity=0 time=0.07
note_on channel=2 note=69 velocity=0 time=0.035
note_on channel=1 note=74 velocity=0 time=0.02
note_on channel=1 note=62 velocity=0 time=0.04
note_on channel=1 note=75 velocity=64 time=0.085
note_on channel=1 note=63 velocity=64 time=0
note_on channel=2 note=74 velocity=0 time=0
note_on channel=2 note=73 velocity=64 time=0
note_on channel=2 note=69 velocity=64 time=0
note_on channel=9 note=38 velocity=64 time=0
note_on channel=0 note=33 velocity=0 time=0.125
note_on channel=9 note=38 velocity=0 time=0
note_on channel=1 note=63 velocity=0 time=0.035
note_on channel=1 note=75 velocity=0 time=0.005
note_on channel=0 note=33 velocity=64 time=0.135
note_on channel=1 note=64 velocity=64 time=0
note_on channel=1 note=73 velocity=64 time=0
note_on channel=1 note=76 velocity=64 time=0
note_on channel=2 note=69 velocity=64 time=0
note_on channel=2 note=64 velocity=64 time=0
note_on channel=9 note=46 velocity=64 time=0
note_on channel=9 note=46 velocity=0 time=0.05
note_on channel=2 note=73 velocity=0 time=0.025
note_on channel=2 note=69 velocity=0 time=0.045
note_on channel=2 note=64 velocity=0 time=0.035
note_on channel=0 note=33 velocity=0 time=0.03
note_on channel=2 note=69 velocity=0 time=0.11
note_on channel=0 note=33 velocity=64 time=0.005
note_on channel=1 note=69 velocity=64 time=0
note_on channel=2 note=67 velocity=64 time=0
note_on channel=2 note=64 velocity=64 time=0
note_on channel=9 note=46 velocity=64 time=0
note_on channel=1 note=73 velocity=0 time=0.035
note_on channel=9 note=46 velocity=0 time=0.01
note_on channel=2 note=64 velocity=0 time=0.14
note_on channel=2 note=67 velocity=0 time=0.04
note_on channel=1 note=73 velocity=64 time=0.075
note_on channel=2 note=67 velocity=64 time=0
note_on channel=2 note=64 velocity=64 time=0
note_on channel=9 note=38 velocity=64 time=0
note_on channel=0 note=33 velocity=0 time=0.11
note_on channel=9 note=38 velocity=0 time=0.005
note_on channel=1 note=76 velocity=0 time=0.015
note_on channel=1 note=69 velocity=0 time=0.03
note_on channel=1 note=73 velocity=0 time=0.015
note_on channel=1 note=64 velocity=0 time=0.015
note_on channel=2 note=64 velocity=0 time=0.035
note_on channel=0 note=40 velocity=64 time=0.075
note_on channel=1 note=69 velocity=64 time=0
note_on channel=1 note=77 velocity=64 time=0
note_on channel=1 note=65 velocity=64 time=0
note_on channel=2 note=66 velocity=64 time=0
note_on channel=2 note=62 velocity=64 time=0
note_on channel=9 note=46 velocity=64 time=0
note_on channel=2 note=67 velocity=0 time=0.03
note_on channel=9 note=46 velocity=0 time=0.015
note_on channel=1 note=65 velocity=0 time=0.115
note_on channel=0 note=40 velocity=0 time=0.015
note_on channel=1 note=77 velocity=0 time=0.01
note_on channel=1 note=69 velocity=0 time=0.045
note_on channel=2 note=66 velocity=0 time=0
note_on channel=2 note=62 velocity=0 time=0.025
note_on channel=0 note=40 velocity=64 time=0.045
note_on channel=1 note=65 velocity=64 time=0
note_on channel=1 note=77 velocity=64 time=0
note_on channel=1 note=69 velocity=64 time=0
note_on channel=2 note=69 velocity=64 time=0
note_on channel=2 note=65 velocity=64 time=0
note_on channel=9 note=46 velocity=64 time=0
note_on channel=9 note=46 velocity=0 time=0.05
note_on channel=2 note=65 velocity=0 time=0.195
note_on channel=2 note=69 velocity=0 time=0.02
note_on channel=2 note=67 velocity=64 time=0.035
note_on channel=2 note=64 velocity=64 time=0
note_on channel=9 note=38 velocity=64 time=0
note_on channel=9 note=38 velocity=0 time=0.115
note_on channel=0 note=40 velocity=0 time=0.08
note_on channel=2 note=67 velocity=0 time=0.005
note_on channel=2 note=64 velocity=0 time=0.06
note_on channel=0 note=33 velocity=64 time=0.04
note_on channel=9 note=46 velocity=64 time=0
note_on channel=1 note=77 velocity=0 time=0.03
note_on channel=1 note=69 velocity=0 time=0.015
note_on channel=9 note=46 velocity=0 time=0.005
note_on channel=1 note=65 velocity=0 time=0.035
note_on channel=0 note=33 velocity=0 time=0.105
note_on channel=0 note=33 velocity=64 time=0.11
note_on channel=1 note=64 velocity=64 time=0
note_on channel=1 note=69 velocity=64 time=0
note_on channel=1 note=73 velocity=64 time=0
note_on channel=1 note=76 velocity=64 time=0
note_on channel=2 note=76 velocity=64 time=0
note_on channel=2 note=73 velocity=64 time=0
note_on channel=9 note=46 velocity=64 time=0
note_on channel=9 note=46 velocity=0 time=0.035
note_on channel=1 note=76 velocity=0 time=0.14
note_on channel=1 note=73 velocity=0 time=0.01
note_on channel=1 note=69 velocity=0 time=0
note_on channel=1 note=64 velocity=0 time=0.1
note_on channel=1 note=65 velocity=64 time=0.015
note_on channel=1 note=77 velocity=64 time=0
note_on channel=1 note=69 velocity=64 time=0
note_on channel=9 note=38 velocity=64 time=0
note_on channel=9 note=38 velocity=0 time=0.115
note_on channel=0 note=33 velocity=0 time=0.015
note_on channel=2 note=73 velocity=0 time=0.015
note_on channel=2 note=73 velocity=64 time=0.005
note_on channel=2 note=76 velocity=0 time=0.085
note_on channel=0 note=40 velocity=64 time=0.065
note_on channel=2 note=67 velocity=64 time=0
note_on channel=9 note=46 velocity=64 time=0
note_on channel=9 note=46 velocity=0 time=0.055
note_on channel=1 note=77 velocity=0 time=0.075
note_on channel=1 note=69 velocity=0 time=0.03
note_on channel=0 note=40 velocity=0 time=0.025
note_on channel=1 note=65 velocity=0 time=0.02
note_on channel=0 note=40 velocity=64 time=0.095
note_on channel=1 note=64 velocity=64 time=0
note_on channel=1 note=76 velocity=64 time=0
note_on channel=1 note=69 velocity=64 time=0
note_on channel=1 note=73 velocity=64 time=0
note_on channel=9 note=46 velocity=64 time=0
note_on channel=9 note=46 velocity=0 time=0.045
note_on channel=2 note=67 velocity=0 time=0.07
note_on channel=2 note=73 velocity=0 time=0.125
note_on channel=1 note=73 velocity=0 time=0.025
note_on channel=1 note=69 velocity=0 time=0.005
note_on channel=1 note=76 velocity=0 time=0.01
note_on channel=2 note=67 velocity=64 time=0.02
note_on channel=2 note=64 velocity=64 time=0
note_on channel=9 note=38 velocity=64 time=0
note_on channel=1 note=64 velocity=0 time=0.075
note_on channel=0 note=40 velocity=0 time=0.04
note_on channel=9 note=38 velocity=0 time=0.01
note_on channel=2 note=64 velocity=0 time=0.07
note_on channel=2 note=67 velocity=0 time=0.07
note_on channel=0 note=38 velocity=64 time=0.035
note_on channel=1 note=60 velocity=64 time=0
note_on channel=1 note=62 velocity=64 time=0
note_on channel=1 note=65 velocity=64 time=0
note_on channel=1 note=74 velocity=64 time=0
note_on channel=2 note=65 velocity=64 time=0
note_on channel=2 note=62 velocity=64 time=0
note_on channel=9 note=46 velocity=64 time=0
note_on channel=9 note=46 velocity=0 time=0.05
note_on channel=1 note=60 velocity=0 time=0.01
note_on channel=0 note=38 velocity=0 time=0.14
note_on channel=1 note=74 velocity=0 time=0
note_on channel=1 note=65 velocity=0 time=0.005
note_on channel=0 note=38 velocity=64 time=0.095
note_on channel=1 note=74 velocity=64 time=0
note_on channel=1 note=65 velocity=64 time=0
note_on channel=9 note=46 velocity=64 time=0
note_on channel=9 note=46 velocity=0 time=0.05
note_on channel=1 note=62 velocity=0 time=0.14
note_on channel=1 note=62 velocity=64 time=0.11
note_on channel=9 note=38 velocity=64 time=0
note_on channel=9 note=38 velocity=0 time=0.13
note_on channel=0 note=38 velocity=0 time=0.01
note_on channel=1 note=65 velocity=0 time=0.065
note_on channel=0 note=33 velocity=64 time=0.095
note_on channel=1 note=69 velocity=64 time=0
note_on channel=9 note=46 velocity=64 time=0
note_on channel=9 note=46 velocity=0 time=0.055
note_on channel=1 note=62 velocity=0 time=0.035
note_on channel=2 note=62 velocity=0 time=0.025
note_on channel=1 note=74 velocity=0 time=0.025
note_on channel=0 note=33 velocity=0 time=0.045
note_on channel=0 note=33 velocity=64 time=0.115
note_on channel=1 note=65 velocity=64 time=0
note_on channel=9 note=46 velocity=64 time=0
note_on channel=9 note=46 velocity=0 time=0.05
note_on channel=1 note=69 velocity=0 time=0.01
note_on channel=2 note=65 velocity=0 time=0.055
note_on channel=1 note=69 velocity=64 time=0.185
note_on channel=9 note=38 velocity=64 time=0
note_on channel=9 note=38 velocity=0 time=0.145
note_on channel=0 note=33 velocity=0 time=0.025
note_on channel=0 note=38 velocity=64 time=0.13
note_on channel=1 note=74 velocity=64 time=0
note_on channel=1 note=62 velocity=64 time=0
note_on channel=9 note=46 velocity=64 time=0
note_on channel=9 note=46 velocity=0 time=0.06
note_on channel=1 note=69 velocity=0 time=0.035
note_on channel=1 note=65 velocity=0 time=0.02
note_on channel=0 note=38 velocity=0 time=0.03
note_on channel=1 note=62 velocity=0 time=0.04
note_on channel=1 note=74 velocity=0 time=0.005
note_on channel=0 note=40 velocity=64 time=0.11
note_on channel=1 note=64 velocity=64 time=0
note_on channel=1 note=76 velocity=64 time=0
note_on channel=0 note=40 velocity=0 time=0.19
note_on channel=1 note=76 velocity=0 time=0.01
note_on channel=1 note=64 velocity=0 time=0.005
note_on channel=0 note=41 velocity=64 time=0.095
note_on channel=1 note=77 velocity=64 time=0
note_on channel=1 note=65 velocity=64 time=0
note_on channel=1 note=77 velocity=0 time=0.18
note_on channel=0 note=41 velocity=0 time=0.005
note_on channel=1 note=65 velocity=0 time=0.005
note_on channel=0 note=40 velocity=64 time=0.11
note_on channel=1 note=64 velocity=64 time=0
note_on channel=1 note=76 velocity=64 time=0
note_on channel=1 note=76 velocity=0 time=0.18
note_on channel=0 note=40 velocity=0 time=0.005
note_on channel=1 note=64 velocity=0 time=0
note_on channel=0 note=38 velocity=64 time=0.115
note_on channel=1 note=74 velocity=64 time=0
note_on channel=1 note=62 velocity=64 time=0
note_on channel=1 note=74 velocity=0 time=0.165
note_on channel=0 note=38 velocity=0 time=0.015
note_on channel=0 note=36 velocity=64 time=0.12
note_on channel=1 note=72 velocity=64 time=0
note_on channel=1 note=72 velocity=0 time=0.16
note_on channel=0 note=36 velocity=0 time=0.025
note_on channel=1 note=62 velocity=0 time=0.065
note_on channel=0 note=34 velocity=64 time=0.05
note_on channel=1 note=70 velocity=64 time=0
note_on channel=3 note=77 velocity=94 time=0
note_on channel=9 note=46 velocity=64 time=0
note_on channel=9 note=46 velocity=0 time=0.05
note_on channel=0 note=34 velocity=0 time=0.135
note_on channel=0 note=34 velocity=64 time=0.115
note_on channel=1 note=75 velocity=64 time=0
note_on channel=1 note=74 velocity=64 time=0
note_on channel=9 note=46 velocity=64 time=0
note_on channel=9 note=46 velocity=0 time=0.045
note_on channel=1 note=75 velocity=0 time=0.025
note_on channel=1 note=70 velocity=0 time=0.17
note_on channel=1 note=70 velocity=64 time=0.06
note_on channel=9 note=38 velocity=64 time=0
note_on channel=1 note=74 velocity=0 time=0.08
note_on channel=9 note=38 velocity=0 time=0.035
note_on channel=0 note=34 velocity=0 time=0.035
note_on channel=0 note=41 velocity=64 time=0.15
note_on channel=1 note=65 velocity=64 time=0
note_on channel=9 note=46 velocity=64 time=0
note_on channel=9 note=46 velocity=0 time=0.055
note_on channel=0 note=41 velocity=0 time=0.105
note_on channel=1 note=70 velocity=0 time=0
note_on channel=1 note=65 velocity=0 time=0.07
note_on channel=0 note=41 velocity=64 time=0.07
note_on channel=1 note=53 velocity=64 time=0
note_on channel=1 note=74 velocity=64 time=0
note_on channel=1 note=70 velocity=64 time=0
note_on channel=1 note=65 velocity=64 time=0
note_on channel=9 note=46 velocity=64 time=0
note_on channel=9 note=46 velocity=0 time=0.05
note_on channel=3 note=77 velocity=0 time=0.095
note_on channel=9 note=38 velocity=64 time=0.155
note_on channel=9 note=38 velocity=0 time=0.115
note_on channel=0 note=41 velocity=0 time=0.01
note_on channel=1 note=53 velocity=0 time=0.03
note_on channel=1 note=70 velocity=0 time=0.13
note_on channel=0 note=34 velocity=64 time=0.015
note_on channel=3 note=76 velocity=94 time=0
note_on channel=9 note=46 velocity=64 time=0
note_on channel=1 note=74 velocity=0 time=0.01
note_on channel=1 note=65 velocity=0 time=0.025
note_on channel=9 note=46 velocity=0 time=0.01
note_on channel=0 note=34 velocity=0 time=0.155
note_on channel=3 note=76 velocity=0 time=0.045
note_on channel=0 note=34 velocity=64 time=0.055
note_on channel=1 note=53 velocity=64 time=0
note_on channel=3 note=77 velocity=94 time=0
note_on channel=9 note=46 velocity=64 time=0
note_on channel=9 note=46 velocity=0 time=0.045
note_on channel=1 note=58 velocity=64 time=0.105
note_on channel=1 note=53 velocity=0 time=0.03
note_on channel=3 note=77 velocity=0 time=0.06
note_on channel=1 note=62 velocity=64 time=0.06
note_on channel=3 note=79 velocity=94 time=0
note_on channel=9 note=38 velocity=64 time=0
note_on channel=1 note=58 velocity=0 time=0.035
note_on channel=9 note=38 velocity=0 time=0.075
note_on channel=0 note=34 velocity=0 time=0.05
note_on channel=0 note=41 velocity=64 time=0.14
note_on channel=1 note=65 velocity=64 time=0
note_on channel=9 note=46 velocity=64 time=0
note_on channel=9 note=46 velocity=0 time=0.05
note_on channel=0 note=41 velocity=0 time=0.105
note_on channel=0 note=41 velocity=64 time=0.145
note_on channel=1 note=70 velocity=64 time=0
note_on channel=9 note=46 velocity=64 time=0
note_on channel=9 note=46 velocity=0 time=0.05
note_on channel=3 note=79 velocity=0 time=0.17
note_on channel=1 note=74 velocity=64 time=0.08
note_on channel=3 note=77 velocity=94 time=0
note_on channel=9 note=38 velocity=64 time=0
note_on channel=1 note=70 velocity=0 time=0.09
note_on channel=1 note=65 velocity=0 time=0
note_on channel=0 note=41 velocity=0 time=0.01
note_on channel=9 note=38 velocity=0 time=0.02
note_on channel=1 note=59 velocity=64 time=0.03
note_on channel=1 note=60 velocity=64 time=0
note_on channel=1 note=64 velocity=64 time=0
note_on channel=1 note=74 velocity=0 time=0.015
note_on channel=3 note=77 velocity=0 time=0.07
note_on channel=1 note=60 velocity=0 time=0.04
note_on channel=0 note=40 velocity=64 time=0.025
note_on channel=1 note=71 velocity=64 time=0
note_on channel=1 note=76 velocity=64 time=0
note_on channel=3 note=76 velocity=94 time=0
note_on channel=9 note=46 velocity=64 time=0
note_on channel=1 note=62 velocity=0 time=0.01
note_on channel=1 note=59 velocity=0 time=0.01
note_on channel=9 note=46 velocity=0 time=0.025
note_on channel=0 note=40 velocity=0 time=0.13
note_on channel=0 note=40 velocity=64 time=0.125
note_on channel=1 note=68 velocity=64 time=0
note_on channel=9 note=46 velocity=64 time=0
note_on channel=9 note=46 velocity=0 time=0.05
note_on channel=1 note=71 velocity=0 time=0.04
note_on channel=1 note=71 velocity=64 time=0.21
note_on channel=9 note=38 velocity=64 time=0
note_on channel=9 note=38 velocity=0 time=0.11
note_on channel=1 note=64 velocity=0 time=0.005
note_on channel=1 note=68 velocity=0 time=0.035
note_on channel=1 note=76 velocity=0 time=0.035
note_on channel=0 note=40 velocity=0 time=0.025
note_on channel=1 note=71 velocity=0 time=0.03
note_on channel=0 note=35 velocity=64 time=0.06
note_on channel=1 note=68 velocity=64 time=0
note_on channel=1 note=77 velocity=64 time=0
note_on channel=1 note=65 velocity=64 time=0
note_on channel=9 note=46 velocity=64 time=0
note_on channel=9 note=46 velocity=0 time=0.055
note_on channel=0 note=35 velocity=0 time=0.13
note_on channel=0 note=35 velocity=64 time=0.115
note_on channel=1 note=76 velocity=64 time=0
note_on channel=9 note=46 velocity=64 time=0
note_on channel=1 note=77 velocity=0 time=0.015
note_on channel=9 note=46 velocity=0 time=0.04
note_on channel=3 note=76 velocity=0 time=0.09
note_on channel=1 note=65 velocity=0 time=0.05
note_on channel=1 note=71 velocity=64 time=0.105
note_on channel=3 note=74 velocity=94 time=0
note_on channel=9 note=38 velocity=64 time=0
note_on channel=1 note=68 velocity=0 time=0.08
note_on channel=9 note=38 velocity=0 time=0.045
note_on channel=1 note=76 velocity=0 time=0.015
note_on channel=0 note=35 velocity=0 time=0.005
note_on channel=1 note=71 velocity=0 time=0
note_on channel=1 note=60 velocity=64 time=0.005
note_on channel=1 note=62 velocity=64 time=0
note_on channel=3 note=74 velocity=0 time=0.12
note_on channel=1 note=62 velocity=0 time=0.01
note_on channel=0 note=33 velocity=64 time=0.02
note_on channel=1 note=64 velocity=64 time=0
note_on channel=1 note=73 velocity=64 time=0
note_on channel=1 note=76 velocity=64 time=0
note_on channel=1 note=75 velocity=64 time=0
note_on channel=3 note=73 velocity=94 time=0
note_on channel=9 note=46 velocity=64 time=0
note_on channel=1 note=60 velocity=0 time=0.015
note_on channel=9 note=46 velocity=0 time=0.04
note_on channel=1 note=75 velocity=0 time=0.015
note_on channel=0 note=33 velocity=0 time=0.125
note_on channel=0 note=33 velocity=64 time=0.105
note_on channel=1 note=69 velocity=64 time=0
note_on channel=9 note=46 velocity=64 time=0
note_on channel=9 note=46 velocity=0 time=0.055
note_on channel=1 note=73 velocity=0 time=0.015
note_on channel=1 note=73 velocity=64 time=0.23
note_on channel=9 note=38 velocity=64 time=0
note_on channel=1 note=76 velocity=0 time=0.01
note_on channel=0 note=33 velocity=0 time=0.1
note_on channel=9 note=38 velocity=0 time=0.005
note_on channel=1 note=69 velocity=0 time=0.045
note_on channel=1 note=73 velocity=0 time=0.005
note_on channel=1 note=64 velocity=0 time=0.045
note_on channel=0 note=40 velocity=64 time=0.09
note_on channel=1 note=78 velocity=64 time=0
note_on channel=1 note=66 velocity=64 time=0
note_on channel=1 note=69 velocity=64 time=0
note_on channel=1 note=73 velocity=64 time=0
note_on channel=9 note=46 velocity=64 time=0
note_on channel=9 note=46 velocity=0 time=0.055
note_on channel=1 note=73 velocity=0 time=0.105
note_on channel=0 note=40 velocity=0 time=0.03
note_on channel=1 note=69 velocity=0 time=0
note_on channel=1 note=78 velocity=0 time=0
note_on channel=1 note=66 velocity=0 time=0.015
note_on channel=0 note=40 velocity=64 time=0.095
note_on channel=1 note=69 velocity=64 time=0
note_on channel=1 note=66 velocity=64 time=0
note_on channel=1 note=78 velocity=64 time=0
note_on channel=1 note=73 velocity=64 time=0
note_on channel=9 note=46 velocity=64 time=0
note_on channel=9 note=46 velocity=0 time=0.045
note_on channel=3 note=73 velocity=0 time=0.04
note_on channel=1 note=78 velocity=0 time=0.16
note_on channel=1 note=73 velocity=0 time=0.005
note_on channel=1 note=69 velocity=0 time=0.03
note_on channel=1 note=59 velocity=64 time=0.02
note_on channel=1 note=61 velocity=64 time=0
note_on channel=9 note=38 velocity=64 time=0
note_on channel=0 note=40 velocity=0 time=0.01
note_on channel=1 note=66 velocity=0 time=0.07
note_on channel=1 note=61 velocity=0 time=0.01
note_on channel=1 note=59 velocity=0 time=0.02
note_on channel=9 note=38 velocity=0 time=0.005
note_on channel=1 note=60 velocity=64 time=0.035
note_on channel=1 note=62 velocity=64 time=0
note_on channel=1 note=62 velocity=0 time=0.065
note_on channel=1 note=60 velocity=0 time=0.04
note_on channel=0 note=40 velocity=64 time=0.045
note_on channel=1 note=64 velocity=64 time=0
note_on channel=1 note=71 velocity=64 time=0
note_on channel=1 note=76 velocity=64 time=0
note_on channel=3 note=74 velocity=94 time=0
note_on channel=9 note=46 velocity=64 time=0
note_on channel=9 note=46 velocity=0 time=0.055
note_on channel=0 note=40 velocity=0 time=0.155
note_on channel=1 note=71 velocity=0 time=0.07
note_on channel=0 note=40 velocity=64 time=0.02
note_on channel=1 note=68 velocity=64 time=0
note_on channel=9 note=46 velocity=64 time=0
note_on channel=9 note=46 velocity=0 time=0.055
note_on channel=1 note=71 velocity=64 time=0.095
note_on channel=1 note=76 velocity=0 time=0.02
note_on channel=3 note=74 velocity=0 time=0.045
note_on channel=1 note=64 velocity=0 time=0.005
note_on channel=1 note=68 velocity=0 time=0.005
note_on channel=1 note=71 velocity=0 time=0.005
note_on channel=1 note=68 velocity=64 time=0.07
note_on channel=1 note=78 velocity=64 time=0
note_on channel=1 note=66 velocity=64 time=0
note_on channel=1 note=71 velocity=64 time=0
note_on channel=3 note=74 velocity=94 time=0
note_on channel=9 note=38 velocity=64 time=0
note_on channel=9 note=38 velocity=0 time=0.125
note_on channel=0 note=40 velocity=0 time=0.035
note_on channel=0 note=35 velocity=64 time=0.14
note_on channel=9 note=46 velocity=64 time=0
note_on channel=9 note=46 velocity=0 time=0.05
note_on channel=0 note=35 velocity=0 time=0.155
note_on channel=0 note=35 velocity=64 time=0.095
note_on channel=9 note=46 velocity=64 time=0
note_on channel=9 note=46 velocity=0 time=0.055
note_on channel=1 note=78 velocity=0 time=0.055
note_on channel=1 note=71 velocity=0 time=0.08
note_on channel=1 note=66 velocity=0 time=0.01
note_on channel=1 note=68 velocity=0 time=0.01
note_on channel=1 note=64 velocity=64 time=0.09
note_on channel=1 note=71 velocity=64 time=0
note_on channel=1 note=76 velocity=64 time=0
note_on channel=1 note=68 velocity=64 time=0
note_on channel=9 note=38 velocity=64 time=0
note_on channel=9 note=38 velocity=0 time=0.12
note_on channel=0 note=35 velocity=0 time=0.005
note_on channel=1 note=68 velocity=0 time=0.01
note_on channel=1 note=76 velocity=0 time=0.045
note_on channel=3 note=74 velocity=0 time=0.025
note_on channel=1 note=71 velocity=0 time=0.02
note_on channel=1 note=64 velocity=0 time=0.01
note_on channel=0 note=40 velocity=64 time=0.065
note_on channel=1 note=78 velocity=64 time=0
note_on channel=1 note=68 velocity=64 time=0
note_on channel=1 note=66 velocity=64 time=0
note_on channel=9 note=46 velocity=64 time=0
note_on channel=9 note=46 velocity=0 time=0.055
note_on channel=0 note=40 velocity=0 time=0.14
note_on channel=1 note=78 velocity=0 time=0.07
note_on channel=0 note=40 velocity=64 time=0.035
note_on channel=1 note=76 velocity=64 time=0
note_on channel=3 note=64 velocity=94 time=0
note_on channel=9 note=46 velocity=64 time=0
note_on channel=9 note=46 velocity=0 time=0.055
note_on channel=1 note=71 velocity=64 time=0.245
note_on channel=3 note=64 velocity=0 time=0
note_on channel=3 note=68 velocity=94 time=0
note_on channel=9 note=38 velocity=64 time=0
note_on channel=1 note=68 velocity=0 time=0.05
note_on channel=9 note=38 velocity=0 time=0.085
note_on channel=0 note=40 velocity=0 time=0.04
note_on channel=0 note=35 velocity=64 time=0.125
note_on channel=1 note=68 velocity=64 time=0
note_on channel=3 note=71 velocity=94 time=0
note_on channel=9 note=46 velocity=64 time=0
note_on channel=3 note=68 velocity=0 time=0.03
note_on channel=1 note=71 velocity=0 time=0.01
note_on channel=9 note=46 velocity=0 time=0.01
note_on channel=0 note=35 velocity=0 time=0.135
note_on channel=3 note=71 velocity=0 time=0.075
note_on channel=0 note=35 velocity=64 time=0.04
note_on channel=1 note=71 velocity=64 time=0
note_on channel=3 note=76 velocity=94 time=0
note_on channel=9 note=46 velocity=64 time=0
note_on channel=1 note=76 velocity=0 time=0.01
note_on channel=9 note=46 velocity=0 time=0.045
note_on channel=1 note=66 velocity=0 time=0.225
note_on channel=1 note=76 velocity=64 time=0.02
note_on channel=3 note=74 velocity=94 time=0
note_on channel=9 note=38 velocity=64 time=0
note_on channel=1 note=68 velocity=0 time=0.025
note_on channel=3 note=76 velocity=0 time=0.01
note_on channel=1 note=71 velocity=0 time=0.03
note_on channel=0 note=35 velocity=0 time=0.04
note_on channel=9 note=38 velocity=0 time=0.01
note_on channel=1 note=60 velocity=64 time=0.035
note_on channel=1 note=62 velocity=64 time=0
note_on channel=3 note=74 velocity=0 time=0.13
note_on channel=1 note=62 velocity=0 time=0.005
note_on channel=1 note=60 velocity=0 time=0.01
note_on channel=0 note=33 velocity=64 time=0.005
note_on channel=1 note=64 velocity=64 time=0
note_on channel=1 note=73 velocity=64 time=0
note_on channel=3 note=73 velocity=94 time=0
note_on channel=9 note=46 velocity=64 time=0
note_on channel=9 note=46 velocity=0 time=0.05
note_on channel=1 note=76 velocity=0 time=0.095
note_on channel=0 note=33 velocity=0 time=0.065
note_on channel=0 note=33 velocity=64 time=0.09
note_on channel=1 note=69 velocity=64 time=0
note_on channel=1 note=76 velocity=64 time=0
note_on channel=9 note=46 velocity=64 time=0
note_on channel=9 note=46 velocity=0 time=0.055
note_on channel=1 note=73 velocity=0 time=0.06
note_on channel=1 note=73 velocity=64 time=0.185
note_on channel=9 note=38 velocity=64 time=0
note_on channel=1 note=76 velocity=0 time=0.045
note_on channel=9 note=38 velocity=0 time=0.065
note_on channel=1 note=73 velocity=0 time=0.09
note_on channel=0 note=33 velocity=0 time=0.005
note_on channel=1 note=69 velocity=0 time=0.03
note_on channel=1 note=64 velocity=0 time=0.015
note_on channel=0 note=40 velocity=64 time=0.05
note_on channel=1 note=69 velocity=64 time=0
note_on channel=1 note=78 velocity=64 time=0
note_on channel=1 note=66 velocity=64 time=0
note_on channel=9 note=46 velocity=64 time=0
note_on channel=9 note=46 velocity=0 time=0.05
note_on channel=3 note=73 velocity=0 time=0.12
note_on channel=0 note=40 velocity=0 time=0.015
note_on channel=1 note=78 velocity=0 time=0.01
note_on channel=0 note=40 velocity=64 time=0.105
note_on channel=1 note=76 velocity=64 time=0
note_on channel=3 note=74 velocity=94 time=0
note_on channel=9 note=46 velocity=64 time=0
note_on channel=9 note=46 velocity=0 time=0.06
note_on channel=1 note=73 velocity=64 time=0.24
note_on channel=9 note=38 velocity=64 time=0
note_on channel=1 note=76 velocity=0 time=0.08
note_on channel=1 note=66 velocity=0 time=0.005
note_on channel=0 note=40 velocity=0 time=0.05
note_on channel=1 note=69 velocity=0 time=0.015
note_on channel=1 note=61 velocity=64 time=0
note_on channel=1 note=60 velocity=64 time=0
note_on channel=1 note=62 velocity=64 time=0
note_on channel=9 note=38 velocity=0 time=0.005
note_on channel=1 note=61 velocity=0 time=0.035
note_on channel=1 note=73 velocity=0 time=0.04
note_on channel=1 note=60 velocity=0 time=0.03
note_on channel=1 note=62 velocity=0 time=0
note_on channel=3 note=74 velocity=0 time=0.03
note_on channel=0 note=33 velocity=64 time=0.01
note_on channel=1 note=73 velocity=64 time=0
note_on channel=1 note=69 velocity=64 time=0
note_on channel=1 note=76 velocity=64 time=0
note_on channel=1 note=64 velocity=64 time=0
note_on channel=3 note=76 velocity=94 time=0
note_on channel=9 note=46 velocity=64 time=0
note_on channel=9 note=46 velocity=0 time=0.05
note_on channel=1 note=76 velocity=0 time=0.12
note_on channel=1 note=64 velocity=0 time=0.02
note_on channel=1 note=73 velocity=0 time=0.005
note_on channel=1 note=69 velocity=0 time=0.005
note_on channel=0 note=33 velocity=0 time=0.32
note_on channel=3 note=76 velocity=0 time=0.095
note_on channel=1 note=62 velocity=64 time=1.035
note_on channel=1 note=62 velocity=0 time=0.065
note_on channel=0 note=33 velocity=64 time=0.085
note_on channel=1 note=64 velocity=64 time=0
note_on channel=1 note=76 velocity=64 time=0
note_on channel=1 note=73 velocity=64 time=0
note_on channel=3 note=64 velocity=94 time=0
note_on channel=9 note=46 velocity=64 time=0
note_on channel=9 note=46 velocity=0 time=0.045
note_on channel=0 note=33 velocity=0 time=0.165
note_on channel=1 note=73 velocity=0 time=0.075
note_on channel=0 note=33 velocity=64 time=0.015
note_on channel=1 note=69 velocity=64 time=0
note_on channel=3 note=65 velocity=94 time=0
note_on channel=9 note=46 velocity=64 time=0
note_on channel=9 note=46 velocity=0 time=0.05
note_on channel=3 note=64 velocity=0 time=0.005
note_on channel=1 note=76 velocity=0 time=0.075
note_on channel=1 note=73 velocity=64 time=0.02
note_on channel=1 note=69 velocity=0 time=0.005
note_on channel=1 note=64 velocity=0 time=0.025
note_on channel=1 note=73 velocity=0 time=0.02
note_on channel=3 note=65 velocity=0 time=0.075
note_on channel=1 note=65 velocity=64 time=0.025
note_on channel=1 note=69 velocity=64 time=0
note_on channel=1 note=73 velocity=64 time=0
note_on channel=1 note=77 velocity=64 time=0
note_on channel=3 note=67 velocity=94 time=0
note_on channel=9 note=38 velocity=64 time=0
note_on channel=1 note=73 velocity=0 time=0.065
note_on channel=9 note=38 velocity=0 time=0.035
note_on channel=0 note=33 velocity=0 time=0.03
note_on channel=0 note=40 velocity=64 time=0.17
note_on channel=9 note=46 velocity=64 time=0
note_on channel=9 note=46 velocity=0 time=0.05
note_on channel=0 note=40 velocity=0 time=0.14
note_on channel=0 note=40 velocity=64 time=0.11
note_on channel=9 note=46 velocity=64 time=0
note_on channel=9 note=46 velocity=0 time=0.035
note_on channel=1 note=77 velocity=0 time=0.215
note_on channel=1 note=65 velocity=0 time=0.03
note_on channel=1 note=69 velocity=0 time=0.005
note_on channel=1 note=73 velocity=64 time=0.015
note_on channel=1 note=64 velocity=64 time=0
note_on channel=1 note=76 velocity=64 time=0
note_on channel=1 note=69 velocity=64 time=0
note_on channel=3 note=66 velocity=94 time=0
note_on channel=9 note=38 velocity=64 time=0
note_on channel=3 note=67 velocity=0 time=0.02
note_on channel=9 note=38 velocity=0 time=0.05
note_on channel=0 note=40 velocity=0 time=0.05
note_on channel=1 note=69 velocity=0 time=0.1
note_on channel=1 note=76 velocity=0 time=0.01
note_on channel=1 note=73 velocity=0 time=0
note_on channel=1 note=64 velocity=0 time=0.04
note_on channel=3 note=66 velocity=0 time=0.01
note_on channel=0 note=33 velocity=64 time=0.02
note_on channel=1 note=69 velocity=64 time=0
note_on channel=1 note=65 velocity=64 time=0
note_on channel=1 note=77 velocity=64 time=0
note_on channel=3 note=69 velocity=94 time=0
note_on channel=9 note=46 velocity=64 time=0
note_on channel=9 note=46 velocity=0 time=0.05
note_on channel=0 note=33 velocity=0 time=0.145
note_on channel=0 note=33 velocity=64 time=0.105
note_on channel=1 note=73 velocity=64 time=0
note_on channel=1 note=64 velocity=64 time=0
note_on channel=1 note=69 velocity=64 time=0
note_on channel=1 note=76 velocity=64 time=0
note_on channel=1 note=76 velocity=64 time=0
note_on channel=1 note=64 velocity=64 time=0
note_on channel=3 note=67 velocity=94 time=0
note_on channel=9 note=46 velocity=64 time=0
note_on channel=1 note=77 velocity=0 time=0.025
note_on channel=9 note=46 velocity=0 time=0.01
note_on channel=1 note=65 velocity=0 time=0.04
note_on channel=3 note=69 velocity=0 time=0
note_on channel=1 note=76 velocity=0 time=0.145
note_on channel=1 note=73 velocity=0 time=0.03
note_on channel=1 note=64 velocity=0 time=0.05
note_on channel=1 note=65 velocity=64 time=0
note_on channel=1 note=77 velocity=64 time=0
note_on channel=1 note=73 velocity=64 time=0
note_on channel=3 note=64 velocity=94 time=0
note_on channel=9 note=38 velocity=64 time=0
note_on channel=1 note=69 velocity=0 time=0.05
note_on channel=3 note=67 velocity=0 time=0.02
note_on channel=9 note=38 velocity=0 time=0.015
note_on channel=0 note=33 velocity=0 time=0.025
note_on channel=1 note=64 velocity=0 time=0.16
note_on channel=0 note=40 velocity=64 time=0.03
note_on channel=1 note=69 velocity=64 time=0
note_on channel=9 note=46 velocity=64 time=0
note_on channel=1 note=73 velocity=0 time=0.035
note_on channel=9 note=46 velocity=0 time=0.015
note_on channel=1 note=76 velocity=0 time=0.02
note_on channel=1 note=60 velocity=64 time=0.08
note_on channel=1 note=62 velocity=64 time=0
note_on channel=1 note=77 velocity=0 time=0.035
note_on channel=0 note=40 velocity=0 time=0.02
note_on channel=1 note=69 velocity=0 time=0.01
note_on channel=1 note=60 velocity=0 time=0.045
note_on channel=1 note=65 velocity=0 time=0.025
note_on channel=1 note=62 velocity=0 time=0
note_on channel=0 note=40 velocity=64 time=0.015
note_on channel=1 note=64 velocity=64 time=0
note_on channel=1 note=76 velocity=64 time=0
note_on channel=1 note=73 velocity=64 time=0
note_on channel=1 note=64 velocity=64 time=0
note_on channel=1 note=69 velocity=64 time=0
note_on channel=1 note=76 velocity=64 time=0
note_on channel=1 note=73 velocity=64 time=0
note_on channel=9 note=46 velocity=64 time=0
note_on channel=3 note=64 velocity=0 time=0.025
note_on channel=9 note=46 velocity=0 time=0.015
note_on channel=1 note=73 velocity=0 time=0.12
note_on channel=1 note=76 velocity=0 time=0.01
note_on channel=1 note=73 velocity=0 time=0.085
note_on channel=1 note=69 velocity=0 time=0.005
note_on channel=1 note=76 velocity=0 time=0.005
note_on channel=1 note=64 velocity=0 time=0.01
note_on channel=1 note=64 velocity=0 time=0
note_on channel=1 note=75 velocity=64 time=0.025
note_on channel=1 note=73 velocity=64 time=0
note_on channel=1 note=63 velocity=64 time=0
note_on channel=3 note=64 velocity=94 time=0
note_on channel=9 note=38 velocity=64 time=0
note_on channel=9 note=38 velocity=0 time=0.09
note_on channel=1 note=73 velocity=0 time=0.02
note_on channel=0 note=40 velocity=0 time=0.02
note_on channel=1 note=69 velocity=64 time=0.02
note_on channel=1 note=61 velocity=64 time=0
note_on channel=1 note=69 velocity=0 time=0.01
note_on channel=1 note=69 velocity=0 time=0.01
note_on channel=1 note=61 velocity=0 time=0
note_on channel=1 note=75 velocity=0 time=0
note_on channel=1 note=63 velocity=0 time=0.035
note_on channel=0 note=38 velocity=64 time=0.095
note_on channel=1 note=74 velocity=64 time=0
note_on channel=1 note=62 velocity=64 time=0
note_on channel=1 note=69 velocity=64 time=0
note_on channel=3 note=65 velocity=94 time=0
note_on channel=9 note=46 velocity=64 time=0
note_on channel=9 note=46 velocity=0 time=0.045
note_on channel=3 note=64 velocity=0 time=0.07
note_on channel=0 note=38 velocity=0 time=0.085
note_on channel=0 note=38 velocity=64 time=0.1
note_on channel=1 note=65 velocity=64 time=0
note_on channel=3 note=67 velocity=94 time=0
note_on channel=9 note=46 velocity=64 time=0
note_on channel=9 note=46 velocity=0 time=0.045
note_on channel=1 note=69 velocity=0 time=0.005
note_on channel=3 note=65 velocity=0 time=0.20500000000000002
note_on channel=1 note=69 velocity=64 time=0.045
note_on channel=3 note=69 velocity=94 time=0
note_on channel=9 note=38 velocity=64 time=0
note_on channel=3 note=67 velocity=0 time=0.09
note_on channel=9 note=38 velocity=0 time=0.005
note_on channel=1 note=74 velocity=0 time=0.065
note_on channel=1 note=65 velocity=0 time=0.015
note_on channel=0 note=38 velocity=0 time=0.005
note_on channel=1 note=69 velocity=0 time=0.015
note_on channel=1 note=62 velocity=0 time=0.015
note_on channel=0 note=33 velocity=64 time=0.09
note_on channel=1 note=69 velocity=64 time=0
note_on channel=1 note=65 velocity=64 time=0
note_on channel=1 note=76 velocity=64 time=0
note_on channel=1 note=64 velocity=64 time=0
note_on channel=9 note=46 velocity=64 time=0
note_on channel=9 note=46 velocity=0 time=0.035
note_on channel=1 note=76 velocity=0 time=0.145
note_on channel=1 note=64 velocity=0 time=0.015
note_on channel=0 note=33 velocity=0 time=0.005
note_on channel=1 note=65 velocity=0 time=0.005
note_on channel=1 note=69 velocity=0 time=0.015
note_on channel=0 note=33 velocity=64 time=0.08
note_on channel=1 note=64 velocity=64 time=0
note_on channel=1 note=76 velocity=64 time=0
note_on channel=1 note=65 velocity=64 time=0
note_on channel=1 note=69 velocity=64 time=0
note_on channel=9 note=46 velocity=64 time=0
note_on channel=9 note=46 velocity=0 time=0.05
note_on channel=3 note=73 velocity=94 time=0.25
note_on channel=9 note=38 velocity=64 time=0
note_on channel=3 note=69 velocity=0 time=0.06
note_on channel=0 note=33 velocity=0 time=0.025
note_on channel=9 note=38 velocity=0 time=0.02
note_on channel=0 note=38 velocity=64 time=0.195
note_on channel=3 note=69 velocity=94 time=0
note_on channel=9 note=46 velocity=64 time=0
note_on channel=3 note=73 velocity=0 time=0.035
note_on channel=9 note=46 velocity=0 time=0
note_on channel=1 note=76 velocity=0 time=0.045
note_on channel=1 note=69 velocity=0 time=0.025
note_on channel=1 note=65 velocity=0 time=0.015
note_on channel=1 note=64 velocity=0 time=0.015
note_on channel=0 note=38 velocity=0 time=0.065
note_on channel=0 note=38 velocity=64 time=0.1
note_on channel=1 note=62 velocity=64 time=0
note_on channel=1 note=74 velocity=64 time=0
note_on channel=1 note=69 velocity=64 time=0
note_on channel=1 note=65 velocity=64 time=0
note_on channel=3 note=67 velocity=94 time=0
note_on channel=9 note=46 velocity=64 time=0
note_on channel=3 note=69 velocity=0 time=0.035
note_on channel=9 note=46 velocity=0 time=0
note_on channel=1 note=74 velocity=0 time=0.155
note_on channel=1 note=65 velocity=0 time=0.025
note_on channel=1 note=69 velocity=0 time=0.02
note_on channel=1 note=62 velocity=0 time=0.04
note_on channel=1 note=65 velocity=64 time=0.025
note_on channel=1 note=64 velocity=64 time=0
note_on channel=1 note=76 velocity=64 time=0
note_on channel=3 note=65 velocity=94 time=0
note_on channel=9 note=38 velocity=64 time=0
note_on channel=3 note=67 velocity=0 time=0.055
note_on channel=9 note=38 velocity=0 time=0.04
note_on channel=0 note=38 velocity=0 time=0.085
note_on channel=0 note=33 velocity=64 time=0.12
note_on channel=1 note=74 velocity=64 time=0
note_on channel=9 note=46 velocity=64 time=0
note_on channel=9 note=46 velocity=0 time=0.045
note_on channel=1 note=76 velocity=0 time=0.07
note_on channel=0 note=33 velocity=0 time=0.065
note_on channel=1 note=64 velocity=0 time=0.02
note_on channel=0 note=33 velocity=64 time=0.1
note_on channel=1 note=69 velocity=64 time=0
note_on channel=9 note=46 velocity=64 time=0
note_on channel=9 note=46 velocity=0 time=0.04
note_on channel=1 note=65 velocity=0 time=0.01
note_on channel=0 note=33 velocity=0 time=0.165
note_on channel=0 note=38 velocity=64 time=0.085
note_on channel=1 note=65 velocity=64 time=0
note_on channel=3 note=67 velocity=94 time=0
note_on channel=9 note=38 velocity=64 time=0
note_on channel=3 note=65 velocity=0 time=0.035
note_on channel=1 note=69 velocity=0 time=0.03
note_on channel=9 note=38 velocity=0 time=0.035
note_on channel=1 note=65 velocity=0 time=0.035
note_on channel=1 note=59 velocity=64 time=0.015
note_on channel=1 note=60 velocity=64 time=0
note_on channel=0 note=38 velocity=0 time=0.015
note_on channel=1 note=74 velocity=0 time=0.01
note_on channel=3 note=67 velocity=0 time=0.065
note_on channel=1 note=59 velocity=0 time=0.025
note_on channel=1 note=60 velocity=0 time=0.02
note_on channel=0 note=43 velocity=64 time=0.015
note_on channel=1 note=62 velocity=64 time=0
note_on channel=1 note=74 velocity=64 time=0
note_on channel=1 note=70 velocity=64 time=0
note_on channel=3 note=67 velocity=94 time=0
note_on channel=9 note=46 velocity=64 time=0
note_on channel=9 note=46 velocity=0 time=0.04
note_on channel=0 note=43 velocity=0 time=0.155
note_on channel=0 note=43 velocity=64 time=0.105
note_on channel=1 note=67 velocity=64 time=0
note_on channel=3 note=69 velocity=94 time=0
note_on channel=9 note=46 velocity=64 time=0
note_on channel=9 note=46 velocity=0 time=0.045
note_on channel=1 note=70 velocity=0 time=0.035
note_on channel=3 note=67 velocity=0 time=0.045
<meta message set_tempo tempo=606061 time=0.17500000000000002>
note_on channel=1 note=70 velocity=64 time=0
note_on channel=3 note=70 velocity=94 time=0
note_on channel=9 note=38 velocity=64 time=0
note_on channel=3 note=69 velocity=0 time=0.05555559166666666
note_on channel=9 note=38 velocity=0 time=0.045454575
note_on channel=1 note=67 velocity=0 time=0.09090915
note_on channel=1 note=74 velocity=0 time=0.010101016666666665
note_on channel=1 note=70 velocity=0 time=0.015151524999999999
note_on channel=0 note=43 velocity=0 time=0.005050508333333333
note_on channel=0 note=38 velocity=64 time=0.08080813333333332
note_on channel=1 note=67 velocity=64 time=0
note_on channel=1 note=76 velocity=64 time=0
note_on channel=9 note=46 velocity=64 time=0
note_on channel=9 note=46 velocity=0 time=0.04040406666666666
note_on channel=0 note=38 velocity=0 time=0.14646474166666665
<meta message set_tempo tempo=612245 time=0.015151524999999999>
note_on channel=0 note=38 velocity=64 time=0.10204083333333333
note_on channel=1 note=74 velocity=64 time=0
note_on channel=1 note=70 velocity=64 time=0
note_on channel=9 note=46 velocity=64 time=0
note_on channel=1 note=76 velocity=0 time=0.025510208333333333
note_on channel=9 note=46 velocity=0 time=0.020408166666666665
note_on channel=1 note=67 velocity=0 time=0.020408166666666665
note_on channel=3 note=70 velocity=0 time=0.11734695833333332
note_on channel=1 note=67 velocity=64 time=0.12244899999999999
note_on channel=1 note=57 velocity=64 time=0
note_on channel=3 note=70 velocity=94 time=0
note_on channel=9 note=38 velocity=64 time=0
<meta message set_tempo tempo=618557 time=0.051020416666666665>
note_on channel=1 note=70 velocity=0 time=0.025773208333333335
note_on channel=9 note=38 velocity=0 time=0.025773208333333335
note_on channel=1 note=74 velocity=0 time=0.025773208333333335
note_on channel=1 note=57 velocity=0 time=0.015463925
note_on channel=1 note=67 velocity=0 time=0
note_on channel=1 note=59 velocity=64 time=0.010309283333333334
note_on channel=0 note=38 velocity=0 time=0.010309283333333334
note_on channel=1 note=62 velocity=0 time=0.005154641666666667
note_on channel=1 note=59 velocity=0 time=0.11855675833333335
note_on channel=0 note=36 velocity=64 time=0.020618566666666668
note_on channel=1 note=60 velocity=64 time=0
note_on channel=1 note=72 velocity=64 time=0
note_on channel=1 note=67 velocity=64 time=0
note_on channel=3 note=69 velocity=94 time=0
note_on channel=9 note=46 velocity=64 time=0
note_on channel=3 note=70 velocity=0 time=0.015463925
note_on channel=9 note=46 velocity=0 time=0.03092785
note_on channel=0 note=36 velocity=0 time=0.17525781666666668
<meta message set_tempo tempo=625000 time=0.03608249166666667>
note_on channel=0 note=36 velocity=64 time=0.05208333333333333
note_on channel=1 note=64 velocity=64 time=0
note_on channel=3 note=70 velocity=94 time=0
note_on channel=9 note=46 velocity=64 time=0
note_on channel=3 note=69 velocity=0 time=0.03645833333333333
note_on channel=9 note=46 velocity=0 time=0.005208333333333333
note_on channel=1 note=67 velocity=0 time=0.010416666666666666
note_on channel=3 note=70 velocity=0 time=0.1875
note_on channel=1 note=72 velocity=0 time=0.026041666666666664
note_on channel=1 note=67 velocity=64 time=0.046875
note_on channel=3 note=76 velocity=94 time=0
note_on channel=9 note=38 velocity=64 time=0
<meta message set_tempo tempo=631579 time=0.10416666666666666>
note_on channel=9 note=38 velocity=0 time=0.005263158333333334
note_on channel=0 note=36 velocity=0 time=0.04210526666666667
note_on channel=1 note=64 velocity=0 time=0.08421053333333334
note_on channel=1 note=67 velocity=0 time=0.03157895
note_on channel=0 note=43 velocity=64 time=0.047368425000000006
note_on channel=1 note=74 velocity=64 time=0
note_on channel=1 note=64 velocity=64 time=0
note_on channel=1 note=67 velocity=64 time=0
note_on channel=9 note=46 velocity=64 time=0
note_on channel=1 note=67 velocity=0 time=0.026315791666666668
note_on channel=9 note=46 velocity=0 time=0.015789475
note_on channel=0 note=43 velocity=0 time=0.16842106666666667
<meta message set_tempo tempo=638298 time=0.052631583333333336>
note_on channel=0 note=43 velocity=64 time=0.05319149999999999
note_on channel=1 note=72 velocity=64 time=0
note_on channel=3 note=74 velocity=94 time=0
note_on channel=9 note=46 velocity=64 time=0
note_on channel=3 note=76 velocity=0 time=0.03723404999999999
note_on channel=1 note=74 velocity=0 time=0.005319149999999999
note_on channel=9 note=46 velocity=0 time=0.010638299999999998
note_on channel=1 note=64 velocity=0 time=0.08510639999999998
note_on channel=1 note=67 velocity=64 time=0.18085109999999996
note_on channel=9 note=38 velocity=64 time=0
note_on channel=9 note=38 velocity=0 time=0.11702129999999998
<meta message set_tempo tempo=645161 time=0.04255319999999999>
note_on channel=0 note=43 velocity=0 time=0.03225805
note_on channel=1 note=67 velocity=0 time=0
note_on channel=1 note=72 velocity=0 time=0.021505366666666668
note_on channel=1 note=60 velocity=0 time=0.026881708333333334
note_on channel=3 note=74 velocity=0 time=0
note_on channel=0 note=41 velocity=64 time=0.080645125
note_on channel=1 note=60 velocity=64 time=0
note_on channel=1 note=72 velocity=64 time=0
note_on channel=1 note=69 velocity=64 time=0
note_on channel=3 note=69 velocity=94 time=0
note_on channel=9 note=46 velocity=64 time=0
note_on channel=9 note=46 velocity=0 time=0.043010733333333336
note_on channel=0 note=41 velocity=0 time=0.18817195833333333
note_on channel=1 note=69 velocity=0 time=0.08602146666666667
<meta message set_tempo tempo=652174 time=0.005376341666666667>
note_on channel=0 note=41 velocity=64 time=0
note_on channel=1 note=65 velocity=64 time=0
note_on channel=3 note=68 velocity=94 time=0
note_on channel=9 note=46 velocity=64 time=0
note_on channel=3 note=69 velocity=0 time=0.027173916666666662
note_on channel=9 note=46 velocity=0 time=0.02173913333333333
note_on channel=3 note=68 velocity=0 time=0.22282611666666663
note_on channel=1 note=69 velocity=64 time=0.054347833333333324
note_on channel=3 note=69 velocity=94 time=0
note_on channel=9 note=38 velocity=64 time=0
note_on channel=1 note=72 velocity=0 time=0.054347833333333324
note_on channel=9 note=38 velocity=0 time=0.07608696666666666
<meta message set_tempo tempo=659341 time=0.0326087>
note_on channel=0 note=41 velocity=0 time=0.0659341
note_on channel=0 note=36 velocity=64 time=0.09890115
note_on channel=1 note=72 velocity=64 time=0
note_on channel=3 note=77 velocity=94 time=0
note_on channel=9 note=46 velocity=64 time=0
note_on channel=9 note=46 velocity=0 time=0.049450575
note_on channel=3 note=69 velocity=0 time=0.038461558333333326
note_on channel=0 note=36 velocity=0 time=0.1373627083333333
note_on channel=1 note=72 velocity=0 time=0.027472541666666662
note_on channel=0 note=36 velocity=64 time=0.07692311666666665
note_on channel=1 note=74 velocity=64 time=0
note_on channel=1 note=62 velocity=64 time=0
note_on channel=3 note=74 velocity=94 time=0
note_on channel=9 note=46 velocity=64 time=0
note_on channel=9 note=46 velocity=0 time=0.049450575
<meta message set_tempo tempo=666667 time=0.005494508333333333>
note_on channel=3 note=77 velocity=0 time=0.03888890833333333
note_on channel=1 note=60 velocity=0 time=0.0055555583333333335
note_on channel=1 note=69 velocity=0 time=0.03888890833333333
note_on channel=1 note=65 velocity=0 time=0.011111116666666667
note_on channel=1 note=74 velocity=0 time=0.14444451666666666
note_on channel=1 note=75 velocity=64 time=0.03888890833333333
note_on channel=1 note=63 velocity=64 time=0
note_on channel=3 note=69 velocity=94 time=0
note_on channel=9 note=38 velocity=64 time=0
note_on channel=3 note=74 velocity=0 time=0.022222233333333334
note_on channel=1 note=62 velocity=0 time=0.0055555583333333335
note_on channel=0 note=36 velocity=0 time=0.0055555583333333335
note_on channel=9 note=38 velocity=0 time=0.09444449166666667
<meta message set_tempo tempo=674157 time=0.09444449166666667>
note_on channel=1 note=75 velocity=0 time=0.039325825
note_on channel=0 note=33 velocity=64 time=0.07303367499999999
note_on channel=1 note=64 velocity=64 time=0
note_on channel=1 note=73 velocity=64 time=0
note_on channel=1 note=76 velocity=64 time=0
note_on channel=3 note=67 velocity=94 time=0
note_on channel=9 note=46 velocity=64 time=0
note_on channel=9 note=46 velocity=0 time=0.050561774999999996
note_on channel=3 note=69 velocity=0 time=0.005617975
note_on channel=1 note=63 velocity=0 time=0.005617975
note_on channel=0 note=33 velocity=0 time=0.151685325
note_on channel=3 note=67 velocity=0 time=0.117977475
note_on channel=0 note=33 velocity=64 time=0.005617975
note_on channel=1 note=69 velocity=64 time=0
note_on channel=3 note=65 velocity=94 time=0
note_on channel=9 note=46 velocity=64 time=0
note_on channel=9 note=46 velocity=0 time=0.0449438
<meta message set_tempo tempo=681818 time=0.01123595>
note_on channel=1 note=73 velocity=0 time=0.022727266666666666
note_on channel=1 note=73 velocity=64 time=0.26136356666666666
note_on channel=3 note=64 velocity=94 time=0
note_on channel=9 note=38 velocity=64 time=0
note_on channel=3 note=65 velocity=0 time=0.05681816666666666
note_on channel=9 note=38 velocity=0 time=0.07954543333333333
note_on channel=0 note=33 velocity=0 time=0.0056818166666666664
note_on channel=1 note=76 velocity=0 time=0.02840908333333333
note_on channel=1 note=73 velocity=0 time=0.039772716666666666
note_on channel=1 note=69 velocity=0 time=0.011363633333333333
note_on channel=1 note=64 velocity=0 time=0.0340909
<meta message set_tempo tempo=689655 time=0.02840908333333333>
note_on channel=0 note=40 velocity=64 time=0.05747125
note_on channel=1 note=77 velocity=64 time=0
note_on channel=1 note=69 velocity=64 time=0
note_on channel=1 note=65 velocity=64 time=0
note_on channel=9 note=46 velocity=64 time=0
note_on channel=9 note=46 velocity=0 time=0.05747125
note_on channel=0 note=40 velocity=0 time=0.14942525
note_on channel=0 note=40 velocity=64 time=0.13793100000000003
note_on channel=1 note=76 velocity=64 time=0
note_on channel=1 note=64 velocity=64 time=0
note_on channel=1 note=73 velocity=64 time=0
note_on channel=9 note=46 velocity=64 time=0
note_on channel=1 note=77 velocity=0 time=0.034482750000000006
note_on channel=9 note=46 velocity=0 time=0.011494250000000001
note_on channel=1 note=69 velocity=0 time=0.040229875000000005
<meta message set_tempo tempo=697674 time=0.028735625>
note_on channel=1 note=65 velocity=0 time=0.0232558
note_on channel=1 note=69 velocity=64 time=0.2093022
note_on channel=3 note=61 velocity=94 time=0
note_on channel=9 note=38 velocity=64 time=0
note_on channel=3 note=64 velocity=0 time=0.00581395
note_on channel=1 note=73 velocity=0 time=0.09883715
note_on channel=1 note=76 velocity=0 time=0.034883700000000004
note_on channel=9 note=38 velocity=0 time=0.00581395
note_on channel=0 note=40 velocity=0 time=0.0116279
note_on channel=1 note=64 velocity=0 time=0.04069765
note_on channel=1 note=69 velocity=0 time=0.017441850000000002
note_on channel=3 note=61 velocity=0 time=0.08720925
<meta message set_tempo tempo=705882 time=0.0465116>
note_on channel=0 note=38 velocity=64 time=0
note_on channel=1 note=74 velocity=64 time=0
note_on channel=1 note=62 velocity=64 time=0
note_on channel=3 note=62 velocity=94 time=0
note_on channel=9 note=46 velocity=64 time=0
note_on channel=9 note=46 velocity=0 time=0.06470585
note_on channel=0 note=38 velocity=0 time=0.15882345
note_on channel=0 note=38 velocity=64 time=0.1294117
note_on channel=1 note=69 velocity=64 time=0
note_on channel=9 note=46 velocity=64 time=0
note_on channel=9 note=46 velocity=0 time=0.05294115
<meta message set_tempo tempo=714286 time=0.12352935>
note_on channel=1 note=65 velocity=64 time=0.1785715
note_on channel=9 note=38 velocity=64 time=0
note_on channel=1 note=69 velocity=0 time=0.08928575
note_on channel=9 note=38 velocity=0 time=0.05952383333333333
note_on channel=1 note=74 velocity=0 time=0.023809533333333334
note_on channel=0 note=38 velocity=0 time=0.029761916666666666
note_on channel=1 note=65 velocity=0 time=0.07142860000000001
note_on channel=1 note=62 velocity=0 time=0.023809533333333334
<meta message set_tempo tempo=722892 time=0.05952383333333333>
note_on channel=0 note=33 velocity=64 time=0
note_on channel=1 note=64 velocity=64 time=0
note_on channel=1 note=76 velocity=64 time=0
note_on channel=1 note=65 velocity=64 time=0
note_on channel=9 note=46 velocity=64 time=0
note_on channel=9 note=46 velocity=0 time=0.060241
note_on channel=0 note=33 velocity=0 time=0.1506025
note_on channel=0 note=33 velocity=64 time=0.1506025
note_on channel=1 note=74 velocity=64 time=0
note_on channel=9 note=46 velocity=64 time=0
note_on channel=9 note=46 velocity=0 time=0.0542169
note_on channel=1 note=76 velocity=0 time=0.0240964
note_on channel=1 note=65 velocity=0 time=0.0963856
<meta message set_tempo tempo=731707 time=0.06626510000000001>
note_on channel=1 note=64 velocity=0 time=0.04878046666666667
note_on channel=1 note=69 velocity=64 time=0.0731707
note_on channel=9 note=38 velocity=64 time=0
note_on channel=3 note=62 velocity=0 time=0.07926825833333334
note_on channel=0 note=33 velocity=0 time=0.07926825833333334
note_on channel=9 note=38 velocity=0 time=0.012195116666666667
note_on channel=1 note=59 velocity=64 time=0.012195116666666667
note_on channel=1 note=60 velocity=64 time=0
note_on channel=1 note=69 velocity=0 time=0.018292675
note_on channel=1 note=74 velocity=0 time=0
note_on channel=1 note=60 velocity=0 time=0.12195116666666667
note_on channel=1 note=59 velocity=0 time=0.0060975583333333335
note_on channel=0 note=38 velocity=64 time=0.03658535
note_on channel=1 note=69 velocity=64 time=0
note_on channel=9 note=46 velocity=64 time=0
note_on channel=9 note=46 velocity=0 time=0.054878025000000004
<meta message set_tempo tempo=740741 time=0.0060975583333333335>
note_on channel=1 note=69 velocity=0 time=0.11728399166666666
note_on channel=0 note=38 velocity=0 time=0.006172841666666666
note_on channel=1 note=60 velocity=64 time=0.3703705
<meta message set_tempo tempo=750000 time=0.06172841666666666>
note_on channel=1 note=60 velocity=0 time=0.018750000000000003
note_on channel=0 note=38 velocity=64 time=0.10625000000000001
note_on channel=1 note=69 velocity=64 time=0
note_on channel=1 note=74 velocity=64 time=0
note_on channel=1 note=65 velocity=64 time=0
note_on channel=1 note=62 velocity=64 time=0
note_on channel=1 note=60 velocity=64 time=0
note_on channel=9 note=46 velocity=64 time=0
note_on channel=9 note=38 velocity=64 time=0
note_on channel=1 note=60 velocity=0 time=0.037500000000000006
note_on channel=9 note=46 velocity=0 time=0.018750000000000003
note_on channel=9 note=38 velocity=0 time=0.0625
note_on channel=0 note=38 velocity=0 time=0.06875
note_on channel=1 note=74 velocity=0 time=0.00625
note_on channel=1 note=65 velocity=0 time=0.00625
note_on channel=1 note=69 velocity=0 time=0.025
note_on channel=1 note=62 velocity=0 time=0
<meta message set_tempo tempo=759494 time=0.275>
<meta message set_tempo tempo=769231 time=0.5696205>
<meta message set_tempo tempo=779221 time=0.57692325>
<meta message set_tempo tempo=789474 time=0.6493508333333332>
<meta message set_tempo tempo=800000 time=0.5921055>
<meta message set_tempo tempo=810811 time=0.6>
<meta message set_tempo tempo=821918 time=0.6756758333333333>
<meta message set_tempo tempo=833333 time=0.6164384999999999>
<meta message set_tempo tempo=845070 time=0.6944441666666666>
<meta message set_tempo tempo=857143 time=0.6338025>
<meta message set_tempo tempo=869565 time=0.64285725>
<meta message set_tempo tempo=882353 time=0.7246374999999999>
<meta message set_tempo tempo=895522 time=0.66176475>
<meta message set_tempo tempo=909091 time=0.6716414999999999>
<meta message set_tempo tempo=923077 time=0.7575758333333333>
<meta message set_tempo tempo=937500 time=0.6923077499999999>
<meta message set_tempo tempo=952381 time=0.703125>
<meta message set_tempo tempo=967742 time=0.7936508333333333>
<meta message set_tempo tempo=983607 time=0.7258065>
<meta message set_tempo tempo=1000000 time=0.73770525>
<meta message end_of_track time=0>
